<svg width="1920" height="1080" viewBox="0 0 1920 1080" fill="none" xmlns="http://www.w3.org/2000/svg">
<g clip-path="url(#clip0_13_126)">
<ellipse cx="1586" cy="715.5" rx="654" ry="572.5" fill="#F9EDF2"/>
<ellipse cx="252" cy="201" rx="252" ry="201" transform="matrix(1 0 0 -1 1684 670)" fill="#B7C8F4"/>
<ellipse cx="252" cy="201" rx="252" ry="201" transform="matrix(1 0 0 -1 1432 755)" fill="#B7C8F4"/>
<ellipse cx="252" cy="201" rx="252" ry="201" transform="matrix(1 0 0 -1 1112 897)" fill="#B7C8F4"/>
<path d="M2014 806.771C2014 1046.86 1812.08 1241.49 1563 1241.49C1313.92 1241.49 740 1417.97 740 1177.88C740 937.785 1211 634.232 1522 597.604C1793 565.686 2014 566.681 2014 806.771Z" fill="#86CF99"/>
<path d="M1547.69 775.714C1541.81 714.931 1670.12 621.912 1735 583L1584.42 591.554C1505.15 635.33 1355.79 733.447 1392.52 775.714C1429.25 817.98 1299.48 929.515 1230 980H1401.7C1452.81 937.231 1553.57 836.496 1547.69 775.714Z" fill="#68D5F2"/>
<circle cx="1563" cy="1288" r="451" fill="#5FA38B"/>
<circle cx="1849" cy="1186" r="451" fill="#5FA38B"/>
<path fill-rule="evenodd" clip-rule="evenodd" d="M1775 226.288H1486C1488.55 211.056 1510.18 199.16 1536.49 199.16C1544.85 199.16 1552.73 200.361 1559.69 202.488C1566.18 192.038 1577.66 185.094 1590.74 185.094C1597.25 185.094 1603.35 186.811 1608.65 189.821C1618.11 174.894 1634.68 165 1653.54 165C1679.02 165 1700.32 183.065 1705.55 207.199C1711.75 205.908 1718.63 205.189 1725.88 205.189C1751.96 205.189 1773.31 214.505 1775 226.288Z" fill="#B7C8F4"/>
<path d="M1574.69 627.038C1573.22 627.311 1571.09 628.836 1568.6 631.386C1567.6 632.411 1566.56 633.594 1565.87 634.49C1565.62 634.804 1564.67 636.527 1564.4 637.146C1564.04 637.963 1563.62 639.351 1563.4 640.472C1563.22 641.354 1563.03 642.749 1563.01 643.378L1563 643.682L1575.4 648.123L1575.85 647.965C1576.1 647.88 1576.53 647.733 1576.8 647.637C1577.59 647.36 1578.23 647.135 1578.75 646.953C1579.01 646.861 1579.27 646.769 1579.32 646.748C1579.4 646.718 1579.35 646.783 1579.12 647.046C1578.64 647.576 1578.37 648.023 1578.37 648.283C1578.37 648.591 1578.63 648.83 1579.07 648.946C1580.16 649.23 1580.5 649.333 1582.21 649.89C1582.97 650.136 1583.84 650.399 1584.12 650.471C1585.03 650.7 1586.06 650.861 1587.25 650.956C1587.98 651.015 1590.95 651.015 1591.94 650.956C1594.95 650.775 1597.04 650.338 1599.49 649.391C1601.22 648.721 1602.13 648.078 1602.61 647.189C1602.86 646.738 1602.91 646.499 1602.91 645.907C1602.91 645.347 1602.88 645.138 1602.68 644.605C1602.45 643.949 1602.23 643.614 1601.53 642.851C1600.61 641.843 1599.09 640.554 1596.33 638.438C1595.37 637.7 1594.55 637.074 1594.52 637.047C1594.47 637.002 1594.1 637.091 1591.5 637.754C1588.88 638.421 1588.5 638.527 1588.26 638.653C1587.72 638.927 1587.14 639.344 1586.48 639.932C1586.24 640.14 1586.19 640.175 1586.17 640.123C1586.16 640.089 1586.07 639.717 1585.97 639.293C1585.86 638.869 1585.71 638.253 1585.62 637.925C1585.54 637.597 1585.4 637.064 1585.33 636.746C1585.19 636.196 1585.11 635.878 1584.62 633.892C1584.51 633.43 1584.4 632.986 1584.37 632.904C1584.34 632.774 1584.25 632.678 1583.62 632.097C1581.73 630.36 1579.99 629.031 1578.44 628.138C1576.92 627.267 1575.58 626.87 1574.69 627.038Z" fill="#8B7CA6"/>
<path d="M1588.15 638.803L1578.57 648.246C1577.77 647.932 1583.77 642.388 1586.91 639.623L1588.15 638.803Z" fill="#8B7CA6"/>
<path d="M1586.95 639.59L1586.91 639.623M1586.91 639.623C1583.77 642.388 1577.77 647.932 1578.57 648.246L1588.15 638.803L1586.91 639.623ZM1563.4 643.721C1563.6 641.426 1564.4 636.443 1565.99 634.869C1568.55 631.092 1573.18 628.049 1575.17 627M1594.53 637.033C1596.66 638.541 1601.24 642.03 1602.51 643.918C1603.79 645.807 1602.25 647.852 1601.32 648.639M1574.69 627.038C1573.22 627.311 1571.09 628.836 1568.6 631.386C1567.6 632.411 1566.56 633.594 1565.87 634.49C1565.62 634.804 1564.67 636.527 1564.4 637.146C1564.04 637.963 1563.62 639.351 1563.4 640.472C1563.22 641.354 1563.03 642.749 1563.01 643.378L1563 643.682L1575.4 648.123L1575.85 647.965C1576.1 647.88 1576.53 647.733 1576.8 647.637C1577.59 647.36 1578.23 647.135 1578.75 646.953C1579.01 646.861 1579.27 646.769 1579.32 646.748C1579.4 646.718 1579.35 646.783 1579.12 647.046C1578.64 647.576 1578.37 648.023 1578.37 648.283C1578.37 648.591 1578.63 648.83 1579.07 648.946C1580.16 649.23 1580.5 649.333 1582.21 649.89C1582.97 650.136 1583.84 650.399 1584.12 650.471C1585.03 650.7 1586.06 650.861 1587.25 650.956C1587.98 651.015 1590.95 651.015 1591.94 650.956C1594.95 650.775 1597.04 650.338 1599.49 649.391C1601.22 648.721 1602.13 648.078 1602.61 647.189C1602.86 646.738 1602.91 646.499 1602.91 645.907C1602.91 645.347 1602.88 645.138 1602.68 644.605C1602.45 643.949 1602.23 643.614 1601.53 642.851C1600.61 641.843 1599.09 640.554 1596.33 638.438C1595.37 637.7 1594.55 637.074 1594.52 637.047C1594.47 637.002 1594.1 637.091 1591.5 637.754C1588.88 638.421 1588.5 638.527 1588.26 638.653C1587.72 638.927 1587.14 639.344 1586.48 639.932C1586.24 640.14 1586.19 640.175 1586.17 640.123C1586.16 640.089 1586.07 639.717 1585.97 639.293C1585.86 638.869 1585.71 638.253 1585.62 637.925C1585.54 637.597 1585.4 637.064 1585.33 636.746C1585.19 636.196 1585.11 635.878 1584.62 633.892C1584.51 633.43 1584.4 632.986 1584.37 632.904C1584.34 632.774 1584.25 632.678 1583.62 632.097C1581.73 630.36 1579.99 629.031 1578.44 628.138C1576.92 627.267 1575.58 626.87 1574.69 627.038Z" stroke="#75688C"/>
<path d="M1477.69 771.038C1476.22 771.311 1474.09 772.836 1471.6 775.386C1470.6 776.411 1469.56 777.594 1468.87 778.49C1468.62 778.804 1467.67 780.527 1467.4 781.146C1467.04 781.963 1466.62 783.351 1466.4 784.472C1466.22 785.354 1466.03 786.749 1466.01 787.378L1466 787.682L1478.4 792.123L1478.85 791.965C1479.1 791.88 1479.53 791.733 1479.8 791.637C1480.59 791.36 1481.23 791.135 1481.75 790.953C1482.01 790.861 1482.27 790.769 1482.32 790.748C1482.4 790.718 1482.35 790.783 1482.12 791.046C1481.64 791.576 1481.37 792.023 1481.37 792.283C1481.37 792.591 1481.63 792.83 1482.07 792.946C1483.16 793.23 1483.5 793.333 1485.21 793.89C1485.97 794.136 1486.84 794.399 1487.12 794.471C1488.03 794.7 1489.06 794.861 1490.25 794.956C1490.98 795.015 1493.95 795.015 1494.94 794.956C1497.95 794.775 1500.04 794.338 1502.49 793.391C1504.22 792.721 1505.13 792.078 1505.61 791.189C1505.86 790.738 1505.91 790.499 1505.91 789.907C1505.91 789.347 1505.88 789.138 1505.68 788.605C1505.45 787.949 1505.23 787.614 1504.53 786.851C1503.61 785.843 1502.09 784.554 1499.33 782.438C1498.37 781.7 1497.55 781.074 1497.52 781.047C1497.47 781.002 1497.1 781.091 1494.5 781.754C1491.88 782.421 1491.5 782.527 1491.26 782.653C1490.72 782.927 1490.14 783.344 1489.48 783.932C1489.24 784.14 1489.19 784.175 1489.17 784.123C1489.16 784.089 1489.07 783.717 1488.97 783.293C1488.86 782.869 1488.71 782.253 1488.62 781.925C1488.54 781.597 1488.4 781.064 1488.33 780.746C1488.19 780.196 1488.11 779.878 1487.62 777.892C1487.51 777.43 1487.4 776.986 1487.37 776.904C1487.34 776.774 1487.25 776.678 1486.62 776.097C1484.73 774.36 1482.99 773.031 1481.44 772.138C1479.92 771.267 1478.58 770.87 1477.69 771.038Z" fill="#8B7CA6"/>
<path d="M1491.15 782.803L1481.57 792.246C1480.77 791.932 1486.77 786.388 1489.91 783.623L1491.15 782.803Z" fill="#8B7CA6"/>
<path d="M1489.95 783.59L1489.91 783.623M1489.91 783.623C1486.77 786.388 1480.77 791.932 1481.57 792.246L1491.15 782.803L1489.91 783.623ZM1466.4 787.721C1466.6 785.426 1467.4 780.443 1468.99 778.869C1471.55 775.092 1476.18 772.049 1478.17 771M1497.53 781.033C1499.66 782.541 1504.24 786.03 1505.51 787.918C1506.79 789.807 1505.25 791.852 1504.32 792.639M1477.69 771.038C1476.22 771.311 1474.09 772.836 1471.6 775.386C1470.6 776.411 1469.56 777.594 1468.87 778.49C1468.62 778.804 1467.67 780.527 1467.4 781.146C1467.04 781.963 1466.62 783.351 1466.4 784.472C1466.22 785.354 1466.03 786.749 1466.01 787.378L1466 787.682L1478.4 792.123L1478.85 791.965C1479.1 791.88 1479.53 791.733 1479.8 791.637C1480.59 791.36 1481.23 791.135 1481.75 790.953C1482.01 790.861 1482.27 790.769 1482.32 790.748C1482.4 790.718 1482.35 790.783 1482.12 791.046C1481.64 791.576 1481.37 792.023 1481.37 792.283C1481.37 792.591 1481.63 792.83 1482.07 792.946C1483.16 793.23 1483.5 793.333 1485.21 793.89C1485.97 794.136 1486.84 794.399 1487.12 794.471C1488.03 794.7 1489.06 794.861 1490.25 794.956C1490.98 795.015 1493.95 795.015 1494.94 794.956C1497.95 794.775 1500.04 794.338 1502.49 793.391C1504.22 792.721 1505.13 792.078 1505.61 791.189C1505.86 790.738 1505.91 790.499 1505.91 789.907C1505.91 789.347 1505.88 789.138 1505.68 788.605C1505.45 787.949 1505.23 787.614 1504.53 786.851C1503.61 785.843 1502.09 784.554 1499.33 782.438C1498.37 781.7 1497.55 781.074 1497.52 781.047C1497.47 781.002 1497.1 781.091 1494.5 781.754C1491.88 782.421 1491.5 782.527 1491.26 782.653C1490.72 782.927 1490.14 783.344 1489.48 783.932C1489.24 784.14 1489.19 784.175 1489.17 784.123C1489.16 784.089 1489.07 783.717 1488.97 783.293C1488.86 782.869 1488.71 782.253 1488.62 781.925C1488.54 781.597 1488.4 781.064 1488.33 780.746C1488.19 780.196 1488.11 779.878 1487.62 777.892C1487.51 777.43 1487.4 776.986 1487.37 776.904C1487.34 776.774 1487.25 776.678 1486.62 776.097C1484.73 774.36 1482.99 773.031 1481.44 772.138C1479.92 771.267 1478.58 770.87 1477.69 771.038Z" stroke="#75688C"/>
<path d="M1740.05 956.59L1740.09 956.623M1740.09 956.623C1743.23 959.388 1749.23 964.932 1748.43 965.246L1738.85 955.803L1740.09 956.623ZM1763.6 960.721C1763.4 958.426 1762.6 953.443 1761.01 951.869C1758.45 948.092 1753.82 945.049 1751.83 944M1732.47 954.033C1730.34 955.541 1725.76 959.03 1724.49 960.918C1723.21 962.807 1724.75 964.852 1725.68 965.639M1752.31 944.038C1753.78 944.311 1755.91 945.836 1758.4 948.386C1759.4 949.411 1760.44 950.594 1761.13 951.49C1761.38 951.804 1762.33 953.527 1762.6 954.146C1762.96 954.963 1763.38 956.351 1763.6 957.472C1763.78 958.354 1763.97 959.749 1763.99 960.378L1764 960.682L1751.6 965.123L1751.15 964.965C1750.9 964.88 1750.47 964.733 1750.2 964.637C1749.41 964.36 1748.77 964.135 1748.25 963.953C1747.99 963.861 1747.73 963.769 1747.68 963.748C1747.6 963.718 1747.65 963.783 1747.88 964.046C1748.36 964.576 1748.63 965.023 1748.63 965.283C1748.63 965.591 1748.37 965.83 1747.93 965.946C1746.84 966.23 1746.5 966.333 1744.79 966.89C1744.03 967.136 1743.16 967.399 1742.88 967.471C1741.97 967.7 1740.94 967.861 1739.75 967.956C1739.02 968.015 1736.05 968.015 1735.06 967.956C1732.05 967.775 1729.96 967.338 1727.51 966.391C1725.78 965.721 1724.87 965.078 1724.39 964.189C1724.14 963.738 1724.09 963.499 1724.09 962.907C1724.09 962.347 1724.12 962.138 1724.32 961.605C1724.55 960.949 1724.77 960.614 1725.47 959.851C1726.39 958.843 1727.91 957.554 1730.67 955.438C1731.63 954.7 1732.45 954.074 1732.48 954.047C1732.53 954.002 1732.9 954.091 1735.5 954.754C1738.12 955.421 1738.5 955.527 1738.74 955.653C1739.28 955.927 1739.86 956.344 1740.52 956.932C1740.76 957.14 1740.81 957.175 1740.83 957.123C1740.84 957.089 1740.93 956.717 1741.03 956.293C1741.14 955.869 1741.29 955.253 1741.38 954.925C1741.46 954.597 1741.6 954.064 1741.67 953.746C1741.81 953.196 1741.89 952.878 1742.38 950.892C1742.49 950.43 1742.6 949.986 1742.63 949.904C1742.66 949.774 1742.75 949.678 1743.38 949.097C1745.27 947.36 1747.01 946.031 1748.56 945.138C1750.08 944.267 1751.42 943.87 1752.31 944.038Z" stroke="#75688C"/>
<path fill-rule="evenodd" clip-rule="evenodd" d="M1668.65 980H1410.29C1410.1 978.053 1410 976.068 1410 974.051C1410 949.17 1424.9 929 1443.27 929C1452.68 929 1465.64 938.089 1476.04 950.3C1476.89 923.982 1493.02 903 1512.79 903C1522.42 903 1535.4 911.546 1546.4 923.447C1549.47 891.047 1570.06 866 1595 866C1622.06 866 1667.5 917.5 1672 953C1672.98 964.62 1671.64 973.397 1668.65 980Z" fill="#528C74"/>
<path d="M1567.65 352.719C1566.08 349.574 1564.79 347 1564.79 347C1564.78 347 1563.48 349.601 1561.89 352.777L1559 358.554L1561.86 364.277C1563.44 367.425 1564.73 370 1564.73 370C1564.74 370 1570.52 358.453 1570.52 358.442C1570.52 358.439 1569.23 355.863 1567.65 352.719Z" fill="#FCD34D"/>
<path d="M1536 374.903L1542.77 381.587L1541.18 391L1549.5 386.556L1557.82 391L1556.23 381.587L1563 374.903L1553.68 373.538L1549.5 365L1545.32 373.538L1536 374.903Z" fill="#FCD34D"/>
<path d="M1800.13 871.839H1792.71L1789.18 843.219H1800.13V871.839Z" fill="#9E616A"/>
<path d="M1804.04 884.695H1798.72L1797.77 879.671L1795.34 884.695H1781.23C1780.56 884.695 1779.9 884.479 1779.35 884.078C1778.81 883.677 1778.41 883.112 1778.21 882.467C1778 881.821 1778.02 881.127 1778.24 880.488C1778.46 879.848 1778.88 879.296 1779.43 878.912L1790.7 871.128V866.049L1802.55 866.757L1804.04 884.695Z" fill="#2F2E41"/>
<path d="M1844.19 862.475L1838.24 866.902L1818.34 846.043L1827.12 839.508L1844.19 862.475Z" fill="#9E616A"/>
<path d="M1855 870.454L1850.73 873.629L1846.97 870.165L1848.02 875.648L1836.7 884.069C1836.16 884.473 1835.5 884.693 1834.82 884.696C1834.15 884.699 1833.49 884.487 1832.94 884.088C1832.39 883.69 1831.99 883.128 1831.78 882.483C1831.58 881.838 1831.59 881.145 1831.8 880.504L1836.2 867.533L1833.17 863.457L1843.1 856.952L1855 870.454Z" fill="#2F2E41"/>
<path d="M1808.76 724.174C1808.76 724.174 1822.83 736.337 1816.34 771.011L1808.41 804.986L1834.27 847.891L1826.02 857.923L1792.42 811.483L1780.24 782.905L1776.82 732.04L1808.76 724.174Z" fill="#2F2E41"/>
<path d="M1786.95 791.049L1786.1 804.163L1788.69 860.047L1800.88 857.923L1803.21 818.135L1786.95 791.049Z" fill="#2F2E41"/>
<path d="M1630.53 878.568L1637.17 878.567L1640.32 852.973L1630.53 852.974L1630.53 878.568Z" fill="#FFB6B6"/>
<path d="M1628.84 876.401L1630.71 876.401L1638 873.436L1641.9 876.401H1641.9C1644.11 876.401 1646.23 877.278 1647.79 878.84C1649.35 880.402 1650.23 882.52 1650.23 884.729V884.999L1628.84 885L1628.84 876.401Z" fill="#2F2E41"/>
<path d="M1656.24 874.387L1662.71 875.848L1671.42 851.577L1661.87 849.42L1656.24 874.387Z" fill="#FFB6B6"/>
<path d="M1655.06 871.9L1656.88 872.312L1664.65 871.025L1667.8 874.778L1667.8 874.778C1669.96 875.265 1671.83 876.587 1673.01 878.455C1674.19 880.322 1674.58 882.582 1674.09 884.736L1674.03 885L1653.17 880.288L1655.06 871.9Z" fill="#2F2E41"/>
<path d="M1622.13 722.098C1619.02 731.481 1619.35 741.666 1622.88 752.597L1624.39 814.142C1624.39 814.142 1622.14 854.503 1629.39 868.705H1639.91L1645.12 810.456L1645.77 771.36L1668.32 804.344L1653.96 867.753L1666.9 868.91L1690.2 800.097L1661.45 733.337L1622.13 722.098Z" fill="#2F2E41"/>
<path d="M1743.42 695.371C1751.46 688.119 1763.43 684.473 1773.46 688.539C1763.17 694.258 1755.23 703.435 1751.04 714.447C1749.44 718.7 1748.11 723.597 1744.18 725.874C1741.73 727.29 1738.69 727.36 1735.95 726.676C1733.21 725.992 1730.7 724.621 1728.22 723.263L1727.51 723.247C1730.68 712.888 1735.37 702.623 1743.42 695.371Z" fill="#86CF99"/>
<path d="M1773.41 688.76C1764.52 689.909 1756.22 693.831 1749.68 699.968C1748.25 701.265 1747.04 702.779 1746.08 704.454C1745.2 706.116 1744.77 707.984 1744.86 709.864C1744.9 711.618 1745.15 713.408 1744.77 715.142C1744.56 716.027 1744.16 716.857 1743.61 717.579C1743.06 718.301 1742.36 718.898 1741.56 719.33C1739.59 720.46 1737.34 720.816 1735.13 721.087C1732.67 721.389 1730.11 721.663 1727.98 723.043C1727.72 723.211 1727.48 722.8 1727.73 722.633C1731.44 720.232 1736.12 721.106 1740.11 719.503C1741.97 718.756 1743.61 717.443 1744.19 715.459C1744.7 713.723 1744.45 711.878 1744.39 710.102C1744.28 708.269 1744.62 706.438 1745.38 704.768C1746.25 703.049 1747.41 701.491 1748.8 700.16C1751.89 697.114 1755.44 694.573 1759.32 692.63C1763.73 690.388 1768.49 688.917 1773.4 688.282C1773.71 688.243 1773.71 688.721 1773.41 688.76Z" fill="white"/>
<path d="M1751.67 697.868C1750.79 696.632 1750.38 695.122 1750.51 693.61C1750.64 692.097 1751.3 690.679 1752.38 689.61C1752.59 689.395 1752.94 689.725 1752.72 689.941C1751.72 690.934 1751.1 692.255 1750.98 693.664C1750.86 695.072 1751.25 696.477 1752.08 697.624C1752.26 697.873 1751.85 698.116 1751.67 697.868Z" fill="white"/>
<path d="M1744.72 708.978C1747.77 709.519 1750.92 708.889 1753.53 707.212C1753.79 707.046 1754.03 707.456 1753.78 707.622C1751.06 709.362 1747.78 710.011 1744.6 709.44C1744.3 709.386 1744.42 708.923 1744.72 708.978Z" fill="white"/>
<path d="M1763.77 691.02C1764.01 691.569 1764.38 692.05 1764.86 692.419C1765.33 692.789 1765.89 693.035 1766.48 693.135C1766.78 693.186 1766.66 693.649 1766.36 693.598C1765.71 693.484 1765.09 693.212 1764.57 692.805C1764.05 692.398 1763.63 691.869 1763.36 691.264C1763.33 691.21 1763.32 691.145 1763.34 691.084C1763.35 691.024 1763.39 690.971 1763.44 690.937C1763.5 690.905 1763.56 690.896 1763.62 690.911C1763.68 690.926 1763.74 690.965 1763.77 691.02Z" fill="white"/>
<path d="M1784.51 723.512C1784.32 723.486 1784.13 723.459 1783.94 723.436C1781.38 723.096 1778.8 722.965 1776.21 723.043C1776.01 723.046 1775.81 723.052 1775.61 723.061C1769.39 723.317 1763.28 724.725 1757.57 727.215C1755.3 728.208 1753.11 729.372 1751.02 730.697C1748.13 732.527 1745.14 734.742 1741.91 735.489C1741.58 735.57 1741.24 735.631 1740.89 735.67L1727.55 724.109C1727.53 724.068 1727.51 724.029 1727.49 723.988L1726.94 723.55C1727.04 723.474 1727.15 723.398 1727.25 723.322C1727.31 723.278 1727.38 723.236 1727.44 723.192C1727.48 723.163 1727.52 723.134 1727.55 723.106C1727.57 723.097 1727.58 723.087 1727.59 723.081C1727.63 723.052 1727.66 723.03 1727.69 723.005C1728.3 722.575 1728.91 722.15 1729.52 721.728C1729.53 721.725 1729.53 721.725 1729.53 721.724C1734.18 718.462 1739.2 715.763 1744.48 713.684C1744.64 713.624 1744.8 713.561 1744.97 713.506C1747.35 712.621 1749.79 711.932 1752.29 711.446C1753.65 711.184 1755.03 710.992 1756.41 710.869C1759.99 710.56 1763.6 710.815 1767.1 711.626C1774.07 713.245 1780.45 717.076 1784.23 723.052C1784.33 723.205 1784.42 723.356 1784.51 723.512Z" fill="#86CF99"/>
<path d="M1784.34 723.655C1776.55 719.219 1767.56 717.35 1758.65 718.315C1756.73 718.489 1754.85 718.965 1753.07 719.725C1751.37 720.521 1749.91 721.76 1748.84 723.311C1747.82 724.738 1746.94 726.316 1745.59 727.47C1744.89 728.05 1744.08 728.476 1743.2 728.719C1742.33 728.962 1741.41 729.018 1740.51 728.881C1738.26 728.6 1736.25 727.528 1734.32 726.41C1732.17 725.17 1729.96 723.847 1727.43 723.667C1727.13 723.645 1727.18 723.17 1727.48 723.192C1731.89 723.506 1735.1 727.027 1739.25 728.146C1741.18 728.668 1743.29 728.611 1744.94 727.377C1746.4 726.298 1747.3 724.672 1748.32 723.218C1749.34 721.689 1750.71 720.432 1752.33 719.557C1754.06 718.709 1755.92 718.162 1757.83 717.938C1762.13 717.367 1766.49 717.475 1770.76 718.259C1775.63 719.126 1780.32 720.822 1784.62 723.271C1784.89 723.423 1784.6 723.806 1784.34 723.655Z" fill="white"/>
<path d="M1761.5 717.836C1761.54 716.318 1762.12 714.864 1763.13 713.734C1764.15 712.604 1765.53 711.872 1767.03 711.667C1767.34 711.627 1767.42 712.098 1767.11 712.138C1765.71 712.326 1764.42 713.009 1763.48 714.063C1762.54 715.117 1762.01 716.474 1761.98 717.887C1761.97 718.194 1761.49 718.141 1761.5 717.836Z" fill="white"/>
<path d="M1749.27 722.52C1751.38 724.792 1754.27 726.184 1757.36 726.418C1757.67 726.441 1757.62 726.915 1757.31 726.892C1754.09 726.643 1751.09 725.188 1748.89 722.819C1748.68 722.593 1749.06 722.295 1749.27 722.52Z" fill="white"/>
<path d="M1775.28 719.654C1775.14 720.238 1775.15 720.847 1775.31 721.427C1775.46 722.007 1775.76 722.539 1776.17 722.975C1776.38 723.198 1776.01 723.496 1775.8 723.274C1775.35 722.79 1775.02 722.202 1774.85 721.562C1774.67 720.922 1774.66 720.249 1774.81 719.603C1774.82 719.541 1774.85 719.484 1774.9 719.445C1774.95 719.406 1775.01 719.387 1775.07 719.391C1775.13 719.398 1775.19 719.43 1775.23 719.479C1775.27 719.529 1775.29 719.591 1775.28 719.654Z" fill="white"/>
<path d="M1725.13 681.851C1724.69 682.434 1724.12 682.913 1723.47 683.255C1722.83 683.596 1722.11 683.79 1721.38 683.825C1720.65 683.859 1719.92 683.733 1719.24 683.454C1718.56 683.176 1717.95 682.752 1717.46 682.213L1701.12 689.319L1702.71 680.198L1717.98 674.848C1718.94 674.074 1720.15 673.679 1721.38 673.738C1722.62 673.798 1723.78 674.308 1724.67 675.171C1725.55 676.034 1726.08 677.191 1726.17 678.422C1726.25 679.653 1725.89 680.873 1725.13 681.851Z" fill="#FFB8B8"/>
<path d="M1714.23 684.699L1676.3 701.604L1676.22 701.575L1632.98 686.161C1629.76 684.477 1627.3 681.625 1626.11 678.189C1624.93 674.753 1625.1 670.993 1626.59 667.679C1627.42 665.848 1628.62 664.213 1630.13 662.881C1631.63 661.55 1633.4 660.553 1635.32 659.955C1637.24 659.357 1639.26 659.173 1641.26 659.414C1643.25 659.654 1645.17 660.315 1646.89 661.352L1679.07 680.743L1710.27 676.698L1714.23 684.699Z" fill="white"/>
<path d="M1663.33 735.308L1625.09 729.188C1624.08 728.867 1623.16 728.332 1622.38 727.621C1621.61 726.91 1620.99 726.039 1620.58 725.068C1620.18 724.097 1619.98 723.049 1620.02 721.995C1620.05 720.942 1620.31 719.909 1620.78 718.967L1622.52 715.497L1621.84 679.036C1621.76 674.294 1622.93 669.613 1625.23 665.466C1627.53 661.319 1630.89 657.851 1634.95 655.411L1638.68 653.18L1640.57 648.392L1657.94 648.816L1658 655.096L1664.22 665.025L1664.22 665.066L1663.83 719.105L1662.11 724.682L1664.71 731.169L1663.33 735.308Z" fill="white"/>
<path d="M1650.85 642.438C1659.57 642.438 1666.64 635.366 1666.64 626.642C1666.64 617.917 1659.57 610.845 1650.85 610.845C1642.13 610.845 1635.06 617.917 1635.06 626.642C1635.06 635.366 1642.13 642.438 1650.85 642.438Z" fill="#FFB8B8"/>
<path d="M1634.4 630.085C1633.93 628.1 1634.15 625.307 1634.42 623.309C1635.11 618.069 1638.02 613.088 1642.44 610.137C1643.28 609.501 1644.27 609.105 1645.32 608.992C1646.37 608.949 1647.5 609.509 1647.82 610.505C1648.08 609.847 1648.48 609.251 1648.98 608.752C1649.48 608.253 1650.08 607.863 1650.74 607.605C1652.07 607.097 1653.49 606.905 1654.9 607.044C1657.64 607.27 1660.27 608.232 1662.5 609.83C1664.73 611.427 1666.49 613.6 1667.59 616.117C1668.01 617.119 1669.19 613.417 1669.73 614.364C1670.22 615.348 1671.07 616.101 1672.11 616.462C1673.16 616.754 1673.59 621.07 1674 620.064C1674.32 620.807 1674.44 621.62 1674.36 622.426C1674.29 623.232 1674 624.004 1673.55 624.672C1673.09 625.34 1672.47 625.881 1671.75 626.245C1671.02 626.609 1670.22 626.783 1669.41 626.753C1668.35 626.713 1667.33 626.321 1666.28 626.152C1662.51 625.549 1658.51 628.28 1657.71 632.01C1657.42 630.931 1656.96 629.906 1656.35 628.975C1656.03 628.512 1655.62 628.129 1655.13 627.86C1654.64 627.591 1654.09 627.443 1653.53 627.428C1652.46 627.468 1651.52 628.169 1650.82 628.985C1650.13 629.802 1649.61 630.755 1648.91 631.567C1646.85 633.95 1644.07 639.507 1641.14 639.102C1638.83 638.782 1635.05 632.795 1634.4 630.085Z" fill="#2F2E41"/>
<path d="M1746.3 699.751C1746.41 699.031 1746.26 698.295 1745.88 697.674C1745.5 697.052 1744.91 696.586 1744.22 696.356L1701.7 682.188C1701.29 682.052 1700.86 682.002 1700.43 682.042L1672.37 684.698C1671.69 684.763 1671.05 685.053 1670.55 685.521C1670.05 685.99 1669.72 686.611 1669.61 687.287L1663.88 723.095C1663.77 723.794 1663.91 724.508 1664.26 725.121C1664.61 725.734 1665.16 726.208 1665.82 726.465L1708.79 743.058C1708.99 743.136 1709.2 743.192 1709.41 743.225C1709.72 743.276 1710.04 743.278 1710.35 743.233L1738.12 739.116C1738.77 739.021 1739.38 738.718 1739.85 738.25C1740.31 737.783 1740.62 737.177 1740.72 736.523L1746.3 699.751Z" fill="white"/>
<path d="M1666.79 723.942L1709.76 740.534C1709.82 740.558 1709.89 740.566 1709.96 740.557L1737.72 736.441C1737.8 736.429 1737.88 736.392 1737.94 736.333C1737.99 736.274 1738.03 736.198 1738.04 736.116L1743.63 699.344C1743.64 699.254 1743.62 699.163 1743.57 699.086C1743.53 699.008 1743.45 698.95 1743.37 698.92L1743.08 698.823L1700.84 684.755C1700.82 684.748 1700.8 684.743 1700.78 684.74C1700.75 684.734 1700.72 684.732 1700.68 684.735L1674.69 687.196L1672.62 687.39C1672.54 687.399 1672.46 687.435 1672.4 687.494C1672.34 687.552 1672.29 687.629 1672.28 687.713L1666.55 723.52C1666.54 723.607 1666.55 723.697 1666.6 723.774C1666.64 723.85 1666.71 723.91 1666.79 723.942Z" fill="#428695"/>
<path d="M1674.69 687.196L1700.68 684.735C1700.72 684.732 1700.75 684.734 1700.78 684.74C1700.8 684.743 1700.82 684.748 1700.84 684.755L1743.08 698.823L1731.94 700.003L1715.9 701.697C1715.87 701.698 1715.84 701.698 1715.8 701.695C1715.78 701.689 1715.76 701.683 1715.73 701.676L1674.69 687.196Z" fill="#2F2E41"/>
<path d="M1665.82 726.467L1708.79 743.059C1708.99 743.137 1709.2 743.192 1709.41 743.223C1709.72 743.274 1710.04 743.278 1710.35 743.235L1738.11 739.119C1738.77 739.023 1739.38 738.719 1739.84 738.252C1740.31 737.784 1740.62 737.178 1740.72 736.523L1746.3 699.751C1746.38 699.209 1746.32 698.655 1746.12 698.145C1746.09 698.077 1746.06 698.009 1746.03 697.945C1745.8 697.479 1745.47 697.078 1745.05 696.779C1744.79 696.597 1744.52 696.455 1744.22 696.357L1744.17 696.339L1701.7 682.188C1701.53 682.132 1701.35 682.089 1701.17 682.059C1700.92 682.024 1700.67 682.019 1700.43 682.044L1689.77 683.049L1672.37 684.699C1671.91 684.742 1671.46 684.89 1671.06 685.13C1671.03 685.145 1671 685.163 1670.98 685.183C1670.96 685.195 1670.94 685.21 1670.92 685.225C1670.57 685.461 1670.28 685.766 1670.06 686.12C1669.83 686.474 1669.68 686.87 1669.61 687.284L1663.88 723.095C1663.77 723.794 1663.9 724.509 1664.26 725.122C1664.61 725.735 1665.16 726.21 1665.82 726.467ZM1670.37 687.409C1670.44 686.98 1670.63 686.579 1670.92 686.254C1671.01 686.15 1671.11 686.054 1671.21 685.97C1671.51 685.734 1671.85 685.573 1672.22 685.501C1672.29 685.486 1672.36 685.476 1672.44 685.47L1700.5 682.811C1700.56 682.804 1700.62 682.805 1700.68 682.802C1700.81 682.799 1700.95 682.809 1701.09 682.832C1701.21 682.849 1701.33 682.878 1701.45 682.919L1743.97 697.089C1744.01 697.101 1744.04 697.112 1744.07 697.124C1744.46 697.268 1744.8 697.515 1745.05 697.839C1745.25 698.087 1745.4 698.374 1745.48 698.683C1745.57 698.992 1745.59 699.315 1745.54 699.631L1739.95 736.407C1739.88 736.897 1739.65 737.351 1739.3 737.701C1738.95 738.052 1738.49 738.28 1738 738.353L1710.24 742.468C1709.84 742.525 1709.44 742.479 1709.06 742.334L1666.1 725.747C1665.6 725.553 1665.19 725.197 1664.93 724.738C1664.66 724.279 1664.56 723.743 1664.64 723.22L1670.37 687.409Z" fill="#3F3D56"/>
<path d="M1670.83 685.42C1670.85 685.355 1670.89 685.297 1670.94 685.253C1670.96 685.239 1670.98 685.227 1671 685.215C1671.02 685.208 1671.04 685.197 1671.05 685.19C1671.14 685.155 1671.24 685.154 1671.32 685.185L1672.22 685.501L1715.91 700.92L1745.05 697.839L1745.26 697.816C1745.35 697.807 1745.44 697.831 1745.52 697.883C1745.59 697.934 1745.65 698.01 1745.67 698.098C1745.68 698.118 1745.68 698.139 1745.68 698.16C1745.69 698.243 1745.67 698.327 1745.63 698.399C1745.59 698.471 1745.52 698.527 1745.45 698.558C1745.41 698.573 1745.38 698.582 1745.34 698.587L1731.94 700.003L1715.9 701.697C1715.87 701.698 1715.84 701.698 1715.8 701.695C1715.78 701.689 1715.76 701.683 1715.73 701.676L1671.21 685.97L1671.06 685.916C1671.03 685.905 1671 685.887 1670.97 685.864C1670.9 685.814 1670.85 685.745 1670.83 685.665C1670.8 685.585 1670.8 685.499 1670.83 685.42Z" fill="#3F3D56"/>
<path d="M1709.53 743.336C1709.43 743.32 1709.34 743.264 1709.28 743.182C1709.22 743.1 1709.19 742.997 1709.21 742.897L1715.48 701.254C1715.5 701.153 1715.55 701.062 1715.63 701.001C1715.72 700.94 1715.82 700.915 1715.92 700.93L1715.92 700.93C1716.02 700.947 1716.11 701.002 1716.17 701.084C1716.23 701.166 1716.26 701.269 1716.24 701.37L1709.97 743.012C1709.96 743.113 1709.9 743.204 1709.82 743.265C1709.74 743.326 1709.63 743.351 1709.53 743.336L1709.53 743.336Z" fill="#3F3D56"/>
<path d="M1725.43 740.694L1721.26 741.134L1726.14 699.838C1726.14 699.838 1731.71 698.829 1731.86 699.233C1731.95 699.475 1725.47 740.429 1725.43 740.694Z" fill="#3F3D56"/>
<path d="M1671.06 685.915L1670.95 704.748L1704.28 717.452L1716.24 701.37L1671.06 685.915Z" fill="#3F3D56"/>
<path d="M1745.05 697.839C1744.77 697.489 1744.4 697.228 1743.97 697.089L1701.45 682.92C1701.33 682.88 1701.21 682.85 1701.09 682.831C1700.95 682.807 1700.81 682.797 1700.68 682.8L1700.75 682.369L1711.27 674.747L1744.99 685.086L1745.05 697.839Z" fill="#3F3D56"/>
<path d="M1672.76 716.148C1672.81 716.153 1672.86 716.163 1672.9 716.178L1685.95 720.464C1686.11 720.518 1686.25 720.634 1686.33 720.788C1686.4 720.941 1686.42 721.119 1686.36 721.283C1686.31 721.446 1686.19 721.582 1686.04 721.659C1685.89 721.737 1685.71 721.75 1685.55 721.697L1672.5 717.41C1672.35 717.36 1672.22 717.256 1672.14 717.118C1672.06 716.98 1672.03 716.817 1672.07 716.661C1672.1 716.505 1672.19 716.367 1672.32 716.272C1672.45 716.177 1672.6 716.133 1672.76 716.148Z" fill="white"/>
<path d="M1709.71 723.777C1709.04 724.069 1708.31 724.21 1707.58 724.191C1706.85 724.171 1706.13 723.991 1705.47 723.663C1704.82 723.335 1704.24 722.867 1703.79 722.293C1703.33 721.718 1703.01 721.051 1702.84 720.338L1685.12 718.546L1690.96 711.368L1706.9 714.17C1708.11 713.964 1709.36 714.212 1710.41 714.867C1711.45 715.522 1712.22 716.538 1712.57 717.722C1712.92 718.906 1712.82 720.177 1712.29 721.293C1711.76 722.409 1710.85 723.293 1709.71 723.777Z" fill="#FFB8B8"/>
<path d="M1698.81 720.93L1657.46 717.118L1657.4 717.052L1627.22 682.455C1625.23 679.411 1624.48 675.722 1625.13 672.144C1625.77 668.566 1627.76 665.37 1630.68 663.209C1632.3 662.017 1634.15 661.181 1636.11 660.755C1638.08 660.33 1640.11 660.326 1642.07 660.743C1644.04 661.16 1645.89 661.989 1647.51 663.174C1649.14 664.36 1650.49 665.876 1651.48 667.622L1670.07 700.278L1699.27 712.012L1698.81 720.93Z" fill="white"/>
<path d="M1802.61 654.396C1801.58 646.86 1800.29 638.769 1794.98 633.329C1793.3 631.603 1791.28 630.236 1789.05 629.311C1786.82 628.386 1784.43 627.922 1782.02 627.947C1779.6 627.972 1777.22 628.485 1775.01 629.456C1772.81 630.427 1770.82 631.835 1769.17 633.596C1765.3 637.724 1763.59 643.519 1763.43 649.175C1763.28 654.83 1764.54 660.423 1765.93 665.905C1773.33 666.053 1780.66 664.608 1787.45 661.669C1789.14 660.933 1790.81 660.1 1792.6 659.643C1794.4 659.187 1795.67 660.335 1797.34 661.136L1798.26 659.383C1799.01 660.778 1801.32 660.364 1802.17 659.023C1803.01 657.682 1802.82 655.965 1802.61 654.396Z" fill="#2F2E41"/>
<path d="M1773.31 696.46L1743.12 697.106C1742.65 696.304 1741.97 695.654 1741.14 695.235C1740.32 694.817 1739.39 694.647 1738.47 694.748C1737.55 694.848 1736.67 695.214 1735.96 695.801C1735.24 696.388 1734.71 697.171 1734.43 698.053C1734.15 698.936 1734.13 699.882 1734.38 700.774C1734.63 701.667 1735.13 702.469 1735.82 703.082C1736.52 703.694 1737.38 704.092 1738.29 704.226C1739.21 704.361 1740.14 704.226 1740.98 703.838C1744.99 704.065 1776.32 708.514 1778.19 705.647C1780.08 702.737 1790.21 692.469 1790.21 692.469L1782.43 681.384L1773.31 696.46Z" fill="#9E616A"/>
<path d="M1780.67 661.852C1788.5 661.852 1794.85 655.498 1794.85 647.661C1794.85 639.823 1788.5 633.469 1780.67 633.469C1772.83 633.469 1766.48 639.823 1766.48 647.661C1766.48 655.498 1772.83 661.852 1780.67 661.852Z" fill="#9E616A"/>
<path d="M1803.39 674.966C1801.72 671.638 1800.9 667.526 1797.34 666.447C1794.93 665.719 1785.2 666.811 1783.01 668.041C1779.36 670.086 1782.67 673.92 1780.51 677.508C1778.17 681.408 1771.81 689.235 1769.47 693.136C1767.87 695.817 1773.28 703.687 1772.41 706.691C1771.54 709.694 1771.5 713.066 1772.98 715.819C1774.31 718.284 1772.39 720.464 1773.73 722.924C1775.11 725.483 1776.81 735.051 1775.52 737.659L1774.66 740.253C1783.23 740.757 1790.45 730.508 1798.97 729.428C1801.08 729.16 1803.28 728.81 1805.03 727.58C1807.6 725.77 1808.61 722.484 1809.25 719.405C1812.3 704.353 1810.24 688.711 1803.39 674.966Z" fill="white"/>
<path d="M1816.25 710.111C1815.05 706.849 1812.89 692.588 1812.89 692.588L1799.35 692.191L1805.97 708.519L1787.91 733.807C1787.91 733.807 1787.95 733.863 1788.01 733.962C1787.06 733.81 1786.09 733.948 1785.22 734.358C1784.35 734.768 1783.62 735.431 1783.13 736.26C1782.65 737.09 1782.42 738.047 1782.49 739.007C1782.55 739.966 1782.91 740.884 1783.5 741.639C1784.1 742.394 1784.91 742.952 1785.83 743.239C1786.74 743.526 1787.73 743.529 1788.65 743.248C1789.57 742.967 1790.38 742.415 1790.98 741.664C1791.58 740.913 1791.94 739.998 1792.01 739.039C1792.08 739.077 1792.16 739.091 1792.23 739.078C1792.31 739.065 1792.38 739.026 1792.43 738.968C1794.44 736.445 1817.44 713.372 1816.25 710.111Z" fill="#9E616A"/>
<path d="M1817.62 701.104C1816.38 695.859 1815.13 690.585 1813.03 685.618C1810.94 680.651 1807.94 675.96 1803.72 672.604C1802.38 671.532 1800.87 670.585 1799.18 670.251C1797.49 669.918 1795.58 670.291 1794.4 671.54C1792.5 673.538 1793.07 676.747 1793.76 679.415C1795.82 687.282 1797.87 695.15 1799.93 703.017C1805.86 702.388 1811.79 701.759 1817.72 701.13L1817.62 701.104Z" fill="white"/>
<path d="M1798.05 649.629C1797.53 646.196 1796.98 642.734 1795.75 639.502C1794.53 636.269 1792.55 633.241 1789.71 631.41C1785.22 628.511 1779.4 629.07 1774.36 630.738C1770.47 632.028 1766.66 633.988 1763.92 637.139C1761.17 640.291 1759.63 644.788 1760.65 648.909C1766.02 647.638 1771.4 646.368 1776.77 645.098L1776.18 645.514C1777.95 646.394 1779.49 647.665 1780.69 649.23C1781.89 650.795 1782.72 652.612 1783.11 654.545C1783.49 656.502 1783.44 658.519 1782.95 660.451C1782.46 662.384 1781.54 664.183 1780.27 665.718C1783.94 664.418 1787.6 663.117 1791.27 661.817C1793.53 661.014 1795.95 660.089 1797.29 658.03C1798.85 655.642 1798.48 652.478 1798.05 649.629Z" fill="#2F2E41"/>
<path d="M239 376.284L246.018 383.225L244.371 393L253 388.385L261.629 393L259.982 383.225L267 376.284L257.332 374.867L253 366L248.668 374.867L239 376.284Z" fill="#FCD34D"/>
<path fill-rule="evenodd" clip-rule="evenodd" d="M1410.36 367.335V367.268C1410.33 350.637 1387.62 337.16 1359.62 337.16C1351.26 337.16 1343.37 338.361 1336.42 340.488C1329.93 330.038 1318.45 323.094 1305.37 323.094C1298.86 323.094 1292.75 324.811 1287.46 327.821C1278 312.894 1261.43 303 1242.57 303C1217.09 303 1195.79 321.065 1190.55 345.199C1184.36 343.908 1177.48 343.189 1170.23 343.189C1143.04 343.189 1121 353.31 1121 365.795C1121 367.232 1121.29 368.637 1121.85 370H1410.16C1410.29 369.122 1410.36 368.233 1410.36 367.335Z" fill="#B7C8F4"/>
<path d="M1436.69 195.687C1433.47 189.259 1430.83 184 1430.82 184C1430.81 184 1428.15 189.314 1424.9 195.805L1419 207.61L1424.85 219.305C1428.07 225.737 1430.7 231 1430.71 231C1430.73 231 1442.54 207.404 1442.53 207.382C1442.53 207.375 1439.9 202.112 1436.69 195.687Z" fill="#FCD34D"/>
<path d="M993.686 413.687C990.471 407.259 987.835 402 987.824 402C987.813 402 985.15 407.314 981.903 413.805L976 425.61L981.847 437.305C985.065 443.737 987.702 449 987.713 449C987.728 449 999.54 425.404 999.533 425.382C999.533 425.375 996.904 420.112 993.686 413.687Z" fill="#FCD34D"/>
<path d="M57 390.284L64.0179 397.225L62.3708 407L71 402.385L79.6292 407L77.9821 397.225L85 390.284L75.3325 388.867L71 380L66.6675 388.867L57 390.284Z" fill="#FCD34D"/>
<ellipse cx="765" cy="821" rx="252" ry="201" fill="#B7C8F4"/>
<ellipse cx="513" cy="736" rx="252" ry="201" fill="#B7C8F4"/>
<ellipse cx="193" cy="594" rx="252" ry="201" fill="#B7C8F4"/>
<path d="M-77 867.771C-77 1107.86 124.92 1302.49 374 1302.49C623.08 1302.49 1197 1478.97 1197 1238.88C1197 998.785 726 695.232 415 658.604C144 626.686 -77 627.681 -77 867.771Z" fill="#81C793"/>
<path fill-rule="evenodd" clip-rule="evenodd" d="M853.914 250H57C64.0196 207.999 123.671 175.197 196.219 175.197C219.27 175.197 241.018 178.508 260.191 184.374C278.09 155.558 309.752 136.41 345.826 136.41C363.76 136.41 380.603 141.142 395.208 149.443C421.297 108.284 466.983 81 518.981 81C589.242 81 647.977 130.813 662.417 197.362C679.501 193.802 698.475 191.82 718.457 191.82C790.391 191.82 849.257 217.51 853.914 250Z" fill="#B7C8F4"/>
<path d="M520.309 858.218C526.185 792.23 397.885 691.244 333 649L483.582 658.286C562.852 705.811 712.209 812.332 675.482 858.218C638.755 904.104 768.524 1025.19 838 1080H666.3C615.188 1033.57 514.433 924.206 520.309 858.218Z" fill="#68D5F2"/>
<path d="M817.314 901.038C818.777 901.311 820.913 902.836 823.4 905.386C824.401 906.411 825.439 907.594 826.134 908.49C826.377 908.804 827.329 910.527 827.6 911.146C827.958 911.963 828.378 913.351 828.604 914.472C828.781 915.354 828.969 916.749 828.99 917.378L829 917.682L816.599 922.123L816.147 921.965C815.897 921.88 815.473 921.733 815.199 921.637C814.414 921.36 813.771 921.135 813.253 920.953C812.993 920.861 812.732 920.769 812.68 920.748C812.604 920.718 812.645 920.783 812.882 921.046C813.361 921.576 813.628 922.023 813.628 922.283C813.628 922.591 813.375 922.83 812.927 922.946C811.843 923.23 811.503 923.333 809.79 923.89C809.026 924.136 808.164 924.399 807.876 924.471C806.973 924.7 805.937 924.861 804.753 924.956C804.023 925.015 801.046 925.015 800.063 924.956C797.052 924.775 794.957 924.338 792.508 923.391C790.781 922.721 789.871 922.078 789.388 921.189C789.142 920.738 789.086 920.499 789.086 919.907C789.086 919.347 789.124 919.138 789.315 918.605C789.548 917.949 789.77 917.614 790.469 916.851C791.393 915.843 792.911 914.554 795.669 912.438C796.635 911.7 797.448 911.074 797.482 911.047C797.531 911.002 797.899 911.091 800.501 911.754C803.117 912.421 803.499 912.527 803.742 912.653C804.281 912.927 804.857 913.344 805.524 913.932C805.757 914.14 805.809 914.175 805.826 914.123C805.837 914.089 805.931 913.717 806.035 913.293C806.136 912.869 806.292 912.253 806.379 911.925C806.462 911.597 806.598 911.064 806.674 910.746C806.809 910.196 806.889 909.878 807.376 907.892C807.49 907.43 807.601 906.986 807.626 906.904C807.661 906.774 807.747 906.678 808.38 906.097C810.273 904.36 812.006 903.031 813.562 902.138C815.081 901.267 816.425 900.87 817.314 901.038Z" fill="#8B7CA6"/>
<path d="M803.854 912.803L813.434 922.246C814.229 921.932 808.226 916.388 805.089 913.623L803.854 912.803Z" fill="#8B7CA6"/>
<path d="M805.052 913.59L805.089 913.623M805.089 913.623C808.226 916.388 814.229 921.932 813.434 922.246L803.854 912.803L805.089 913.623ZM828.601 917.721C828.401 915.426 827.603 910.443 826.006 908.869C823.452 905.092 818.822 902.049 816.826 901M797.468 911.033C795.339 912.541 790.763 916.03 789.485 917.918C788.208 919.807 789.751 921.852 790.683 922.639M817.314 901.038C818.777 901.311 820.913 902.836 823.4 905.386C824.401 906.411 825.439 907.594 826.134 908.49C826.377 908.804 827.329 910.527 827.6 911.146C827.958 911.963 828.378 913.351 828.604 914.472C828.781 915.354 828.969 916.749 828.99 917.378L829 917.682L816.599 922.123L816.147 921.965C815.897 921.88 815.473 921.733 815.199 921.637C814.414 921.36 813.771 921.135 813.253 920.953C812.993 920.861 812.732 920.769 812.68 920.748C812.604 920.718 812.645 920.783 812.882 921.046C813.361 921.576 813.628 922.023 813.628 922.283C813.628 922.591 813.375 922.83 812.927 922.946C811.843 923.23 811.503 923.333 809.79 923.89C809.026 924.136 808.164 924.399 807.876 924.471C806.973 924.7 805.937 924.861 804.753 924.956C804.023 925.015 801.046 925.015 800.063 924.956C797.052 924.775 794.957 924.338 792.508 923.391C790.781 922.721 789.871 922.078 789.388 921.189C789.142 920.738 789.086 920.499 789.086 919.907C789.086 919.347 789.124 919.138 789.315 918.605C789.548 917.949 789.77 917.614 790.469 916.851C791.393 915.843 792.911 914.554 795.669 912.438C796.635 911.7 797.448 911.074 797.482 911.047C797.531 911.002 797.899 911.091 800.501 911.754C803.117 912.421 803.499 912.527 803.742 912.653C804.281 912.927 804.857 913.344 805.524 913.932C805.757 914.14 805.809 914.175 805.826 914.123C805.837 914.089 805.931 913.717 806.035 913.293C806.136 912.869 806.292 912.253 806.379 911.925C806.462 911.597 806.598 911.064 806.674 910.746C806.809 910.196 806.889 909.878 807.376 907.892C807.49 907.43 807.601 906.986 807.626 906.904C807.661 906.774 807.747 906.678 808.38 906.097C810.273 904.36 812.006 903.031 813.562 902.138C815.081 901.267 816.425 900.87 817.314 901.038Z" stroke="#75688C"/>
<path d="M1375.96 730.128L1348 708.07C1346.82 707.132 1346.06 705.768 1345.87 704.274C1345.69 702.779 1346.11 701.274 1347.03 700.082C1347.51 699.465 1348.11 698.952 1348.79 698.573C1349.47 698.194 1350.23 697.958 1351 697.879C1351.78 697.8 1352.57 697.879 1353.31 698.112C1354.06 698.345 1354.75 698.727 1355.34 699.235L1383.68 723.035L1401.51 736.773C1402.41 736.269 1403.44 736.053 1404.47 736.154C1405.5 736.255 1406.47 736.668 1407.25 737.338C1408.03 738.007 1408.59 738.901 1408.84 739.896C1409.1 740.892 1409.04 741.942 1408.68 742.903C1408.31 743.865 1407.66 744.691 1406.81 745.27C1405.95 745.848 1404.94 746.152 1403.91 746.138C1402.88 746.125 1401.88 745.796 1401.04 745.195C1400.2 744.595 1399.57 743.752 1399.23 742.781L1375.96 730.128Z" fill="#FFB6B6"/>
<path d="M1351.67 715.124C1351.3 715.174 1350.92 715.103 1350.6 714.92C1350.28 714.738 1350.02 714.455 1349.87 714.115C1349.69 713.698 1349.37 713.351 1348.97 713.121C1348.9 713.077 1348.82 713.039 1348.74 713.005C1348.23 712.818 1347.79 712.513 1347.43 712.116C1347.07 711.719 1346.82 711.242 1346.69 710.726C1346.28 709.021 1344.96 707.367 1343.64 706.092C1342.19 704.696 1340.65 703.357 1339.58 701.657C1338.04 699.205 1337.61 695.763 1340.58 693.717C1341.86 692.866 1343.39 692.481 1344.92 692.625C1348.13 692.885 1350.78 694.833 1353.3 696.721L1352.67 695.489C1355.38 697.598 1358.49 699.14 1361.82 700.022C1361.24 700.543 1361.74 701.586 1362.48 701.828C1363.22 702.071 1364.02 701.815 1364.78 701.654C1365.74 701.452 1366.92 701.469 1367.3 702.61C1367.38 702.885 1367.41 703.175 1367.37 703.46C1367.34 703.745 1367.25 704.021 1367.1 704.268C1364.43 709.005 1360.8 713.14 1356.45 716.413C1355.48 717.14 1354.36 717.855 1353.15 717.713C1351.95 717.571 1350.93 716.081 1351.67 715.124Z" fill="white"/>
<path d="M1329.5 745.914L1326.89 733.381L1354.32 724.773L1350.63 753.623L1329.5 745.914Z" fill="#FFB6B6"/>
<path d="M1353.56 734.71L1327.12 746.068C1327.12 746.068 1323.73 745.919 1323.73 743.874C1323.73 741.829 1325.63 741.401 1323.14 739.825C1320.65 738.249 1319.62 739.272 1320.13 736.715C1320.65 734.159 1321.16 733.313 1321.16 732.713C1321.16 732.113 1320.65 729.557 1320.65 727C1320.65 725.761 1324.64 723.51 1323.65 716.246C1322.44 707.397 1322.86 693.854 1331.43 691.207L1337.58 680.469H1349.32L1352.98 691.207L1357.32 696.867C1357.32 696.867 1365.87 707.64 1363.3 713.265C1360.74 718.89 1353.56 734.71 1353.56 734.71Z" fill="#2F2E41"/>
<path d="M1338.55 669.646C1347.18 676.186 1356.79 681.391 1358.6 688.588C1358.6 688.588 1357.52 677.28 1362.58 679.423C1371.08 683.024 1368.2 663.439 1365.82 660.236C1361.84 654.898 1348.44 651.865 1348.44 651.865L1338.93 657.065L1338.55 669.646Z" fill="#2F2E41"/>
<path d="M1353.58 677.582C1361.81 677.582 1368.48 670.935 1368.48 662.735C1368.48 654.534 1361.81 647.887 1353.58 647.887C1345.35 647.887 1338.67 654.534 1338.67 662.735C1338.67 670.935 1345.35 677.582 1353.58 677.582Z" fill="#FFB6B6"/>
<path d="M1348.21 657.054L1347.64 659.563L1357.66 661.837C1357.67 661.329 1357.78 660.829 1358 660.368C1358.21 659.906 1358.51 659.493 1358.89 659.155C1358.68 660.139 1358.7 661.16 1358.97 662.133C1364.37 665.155 1364.06 666.226 1368.43 665.455C1369.02 665.59 1369.64 665.484 1370.16 665.162C1370.67 664.84 1371.04 664.328 1371.17 663.738C1372.93 656.044 1373.51 648.18 1365.82 646.27C1363.95 645.805 1362.01 645.716 1360.11 646.008C1358.21 646.301 1356.38 646.969 1354.74 647.973C1353.1 648.977 1351.68 650.298 1350.56 651.857C1349.43 653.416 1348.64 655.183 1348.21 657.054Z" fill="#2F2E41"/>
<path d="M1350.66 667.066C1351.15 664.922 1352.11 662.914 1353.48 661.186C1354.84 659.458 1356.57 658.054 1358.55 657.074C1360.53 656.093 1362.69 655.562 1364.9 655.518C1367.11 655.474 1369.3 655.919 1371.31 656.82C1370.61 654.769 1369.2 653.036 1367.33 651.933L1356.05 647.052C1350.48 645.789 1341.67 642.206 1337.65 645.638C1333.94 648.79 1335.75 654.96 1332.33 658.416C1328.6 662.203 1328.28 666.681 1329.34 669.256C1330.57 672.236 1333.02 676.301 1336.08 677.181C1336.24 676.132 1336.77 675.173 1337.56 674.472C1337.34 675.471 1337.32 676.504 1337.51 677.511L1356.05 692.24C1354.31 690.74 1352.84 686.875 1351.82 682.521C1351.22 679.944 1347.63 679.039 1350.54 674.665C1353.45 670.292 1350.27 668.795 1350.66 667.066Z" fill="#2F2E41"/>
<path d="M1335.81 650.637L1335.87 650.741C1335.93 650.879 1335.99 651.017 1336.04 651.161L1336.05 651.167C1336.33 651.27 1336.65 651.103 1336.96 650.838C1336.91 651.461 1336.88 652.063 1336.85 652.654L1346.72 648.806C1345.01 649.102 1344.75 643.018 1343.52 644.184C1343.45 644.247 1343.39 644.31 1343.33 644.374C1343.48 644.007 1343.58 643.622 1343.64 643.228C1343.69 642.734 1343.65 642.235 1343.52 641.755C1343.52 641.752 1343.52 641.75 1343.52 641.747C1343.52 641.744 1343.52 641.74 1343.52 641.737C1343.39 641.303 1343.2 640.891 1342.95 640.517C1342.59 639.972 1342.13 639.498 1341.59 639.118C1340.91 638.599 1340.12 638.247 1339.27 638.091C1338.43 637.935 1337.56 637.979 1336.74 638.22C1334.85 638.93 1333.29 640.305 1332.36 642.083C1331.58 643.482 1330.98 645.053 1331.1 646.648C1331.14 647.07 1331.23 647.486 1331.38 647.885C1331.56 648.445 1331.86 648.957 1332.27 649.379C1332.69 649.801 1333.19 650.123 1333.74 650.32C1333.88 650.366 1334.05 650.418 1334.22 650.482C1334.31 649.732 1334.32 648.975 1334.24 648.225C1334.88 648.947 1335.41 649.76 1335.81 650.637Z" fill="#2F2E41"/>
<path d="M1345.37 648.415C1345.36 648.736 1345.32 649.056 1345.26 649.371C1345.25 649.411 1345.24 649.452 1345.23 649.491C1344.83 651.282 1342.64 647.557 1340.94 648.806C1339.64 649.768 1338.92 649.969 1337.48 650.533C1337.43 650.39 1336.96 650.672 1336.9 650.533C1336.88 650.499 1336.92 649.992 1336.9 649.958C1338.3 649.399 1338.54 649.152 1339.79 648.231C1341.38 647.062 1341.15 648.156 1341.52 646.504C1341.95 644.598 1344.47 645.416 1343.18 644.512L1343.33 644.305C1344.24 644.937 1344.92 645.86 1345.25 646.924C1345.25 646.927 1345.25 646.93 1345.25 646.933C1345.25 646.936 1345.25 646.939 1345.26 646.941C1345.35 647.426 1345.39 647.921 1345.37 648.415Z" fill="white"/>
<path d="M1300.41 803.148L1300.39 808.142L1320.14 810.607L1320.18 803.236L1300.41 803.148Z" fill="#FFB6B6"/>
<path d="M1302.81 803.155L1302.74 801.854L1290.08 800.747L1290.06 804.492L1293.6 805.175L1290.05 806.87L1290 816.797C1290 817.273 1290.15 817.738 1290.43 818.123C1290.71 818.508 1291.11 818.793 1291.56 818.937C1292.02 819.08 1292.51 819.075 1292.96 818.922C1293.41 818.768 1293.81 818.474 1294.08 818.083L1295.73 815.735L1299.61 810.181L1303.2 810.196L1302.81 803.155Z" fill="#2F2E41"/>
<path d="M1387.96 795.013C1384.66 803.614 1381.87 810.27 1380.72 811.407C1379.45 812.674 1370.84 813.202 1360.2 813.347C1348.97 813.496 1335.48 813.222 1325.94 812.963H1325.94C1318.74 812.763 1313.79 812.569 1313.79 812.569L1313.83 801.884C1313.83 801.884 1314.07 801.819 1314.51 801.685C1315.33 801.45 1316.84 801.012 1318.82 800.428C1325.05 798.593 1335.88 795.367 1344.05 792.735C1346.73 791.867 1349.13 791.07 1350.98 790.401C1353.1 789.644 1354.51 789.055 1354.83 788.741C1356.69 786.926 1357.52 788.741 1358.7 790.551C1359.88 792.366 1360.25 790.551 1361.79 789.22C1363.34 787.888 1366.83 789.718 1366.83 789.718C1366.83 789.718 1366.86 788.512 1366.91 786.592C1366.98 783.755 1367.09 779.338 1367.2 774.92C1367.19 774.915 1367.19 774.915 1367.2 774.915C1367.2 774.721 1367.21 774.521 1367.21 774.327C1369.62 776.406 1372.18 778.31 1374.74 780.694C1376.41 782.244 1378.95 784.812 1380.76 786.647C1381.13 787.021 1381.6 787.515 1381.97 787.903C1384.15 790.111 1386.16 792.489 1387.96 795.013Z" fill="#2F2E41"/>
<path d="M1306.5 817.493L1306.88 822.472L1326.78 823.339L1326.21 815.99L1306.5 817.493Z" fill="#FFB6B6"/>
<path d="M1309.62 822.591L1308.9 817.311L1308.72 816.014L1296.01 815.929L1296.29 819.664L1299.88 820.058L1296.48 822.037L1297.24 831.939C1297.27 832.414 1297.46 832.864 1297.77 833.225C1298.08 833.585 1298.5 833.837 1298.97 833.944C1299.44 834.05 1299.92 834.005 1300.36 833.816C1300.8 833.627 1301.17 833.303 1301.41 832.892L1306.28 824.565L1309.85 824.296L1309.62 822.591Z" fill="#2F2E41"/>
<path d="M1392.2 815.67C1388.18 821.923 1338.74 828.035 1320.18 824.565C1320.21 824.067 1320.27 823.563 1320.33 823.059C1320.61 820.846 1321.12 818.587 1321.56 816.343C1321.74 815.401 1321.91 814.459 1322.04 813.521C1322.66 813.421 1321.98 813.486 1322.8 813.357C1323.84 813.173 1324.89 813.041 1325.94 812.963H1325.94C1326.26 812.938 1326.62 812.913 1327.05 812.883C1336.5 812.24 1348.54 814.952 1356.99 810.34C1359.38 809.034 1359.53 808.665 1359.88 808.251C1361.91 805.828 1362.1 807.832 1363.86 808.7C1365.61 809.567 1365.29 808.047 1365.78 806.72C1366.27 805.394 1368.43 805.569 1369.69 805.374C1368.52 804.297 1369.29 804.108 1367.36 803.185C1364.52 801.819 1359.81 799.805 1356.48 798.464C1356.47 798.457 1356.46 798.452 1356.44 798.449C1355.04 797.91 1353.06 797.058 1351.79 796.524C1350.81 796.11 1349.1 795.332 1348.56 795.128C1347.36 794.674 1345.31 798.962 1344.05 798.219C1343.61 797.95 1343.27 797.741 1343.1 797.641C1340.98 796.38 1342.64 797.038 1342.42 795.507C1342.39 795.318 1342.48 794.829 1342.45 794.664C1342.4 794.275 1342.53 793.627 1342.33 793.393C1342.14 793.164 1341.49 794.32 1341.09 794.49C1340.91 794.57 1340.2 795.123 1339.62 795.063C1337.11 794.789 1335.41 792.356 1334.55 789.918C1327.26 786.772 1322.45 779.422 1321.3 772.562C1320.33 766.768 1322.06 762.141 1323.58 758.327C1324.95 754.906 1325.38 755.38 1326.9 752.937C1326.86 752.498 1326.86 752.613 1326.86 752.643C1326.86 752.598 1326.85 752.418 1326.82 751.83C1326.74 750.254 1326.54 745.603 1326.45 743.434C1327.08 742.739 1327.79 742.12 1328.56 741.589C1330.93 739.834 1334.47 738.827 1337.06 738.333C1340.01 737.77 1343.83 738.173 1345.96 738.483C1349.28 738.961 1350.38 739.604 1353.16 740.253C1353.16 745.513 1354.26 744.047 1353.72 750.868C1353.18 757.688 1372.18 778.31 1374.74 780.694C1376.41 782.244 1378.95 784.812 1380.76 786.647C1381.13 787.021 1381.6 787.515 1381.97 787.903C1384.09 790.132 1388.4 795.657 1388.6 795.986C1388.86 796.399 1388.97 796.724 1389.18 797.122C1389.19 797.132 1396.21 809.418 1392.2 815.67Z" fill="#2F2E41"/>
<path d="M1338.09 745.046L1334.42 709.703C1334.27 708.205 1334.72 706.708 1335.67 705.536C1336.61 704.363 1337.99 703.608 1339.49 703.434C1340.26 703.344 1341.05 703.413 1341.8 703.636C1342.55 703.859 1343.24 704.231 1343.84 704.73C1344.44 705.23 1344.94 705.846 1345.29 706.541C1345.64 707.235 1345.85 707.994 1345.9 708.772L1348.57 745.601L1351.15 767.911C1352.14 768.2 1353.01 768.786 1353.66 769.589C1354.3 770.392 1354.68 771.373 1354.75 772.398C1354.81 773.424 1354.56 774.444 1354.02 775.322C1353.48 776.199 1352.69 776.889 1351.74 777.3C1350.79 777.711 1349.75 777.822 1348.73 777.618C1347.72 777.414 1346.8 776.905 1346.09 776.16C1345.38 775.415 1344.92 774.47 1344.76 773.454C1344.61 772.437 1344.78 771.399 1345.24 770.479L1338.09 745.046Z" fill="#FFB6B6"/>
<path d="M1331.91 717.24C1331.62 717.013 1331.41 716.695 1331.31 716.337C1331.22 715.979 1331.24 715.6 1331.39 715.258C1331.55 714.833 1331.58 714.366 1331.47 713.922C1331.45 713.837 1331.42 713.753 1331.39 713.671C1331.17 713.183 1331.08 712.651 1331.12 712.12C1331.15 711.588 1331.32 711.074 1331.6 710.619C1332.54 709.136 1332.81 707.044 1332.8 705.21C1332.79 703.204 1332.68 701.169 1333.16 699.219C1333.84 696.408 1336.01 693.697 1339.56 694.39C1341.06 694.709 1342.41 695.534 1343.38 696.727C1345.43 699.194 1345.88 702.445 1346.28 705.558L1346.72 704.248C1347.1 707.657 1348.17 710.954 1349.85 713.942C1349.08 713.896 1348.68 714.979 1349.02 715.676C1349.36 716.372 1350.1 716.762 1350.75 717.192C1351.56 717.735 1352.38 718.592 1351.82 719.659C1351.68 719.91 1351.49 720.13 1351.26 720.304C1351.03 720.478 1350.77 720.604 1350.49 720.672C1345.22 722.072 1339.71 722.371 1334.32 721.551C1333.12 721.368 1331.83 721.066 1331.09 720.109C1330.35 719.151 1330.71 717.382 1331.91 717.24Z" fill="white"/>
</g>
<defs>
<clipPath id="clip0_13_126">
<rect width="1920" height="1080" fill="white"/>
</clipPath>
</defs>
</svg>
