<svg width="960" height="1099" viewBox="0 0 960 1099" fill="none" xmlns="http://www.w3.org/2000/svg">
<g clip-path="url(#clip0_13_187)">
<ellipse cx="701" cy="654.5" rx="654" ry="572.5" fill="#F9EDF2"/>
<path d="M362.686 365.687C359.471 359.259 356.835 354 356.824 354C356.813 354 354.15 359.314 350.903 365.805L345 377.61L350.847 389.305C354.065 395.737 356.702 401 356.713 401C356.728 401 368.54 377.404 368.533 377.382C368.533 377.375 365.904 372.112 362.686 365.687Z" fill="#FCD34D"/>
<path fill-rule="evenodd" clip-rule="evenodd" d="M943 184.288H654C656.546 169.056 678.178 157.16 704.488 157.16C712.847 157.16 720.734 158.361 727.687 160.488C734.178 150.038 745.66 143.094 758.742 143.094C765.246 143.094 771.354 144.811 776.651 147.821C786.112 132.894 802.68 123 821.537 123C847.017 123 868.317 141.065 873.554 165.199C879.749 163.908 886.63 163.189 893.877 163.189C919.963 163.189 941.311 172.505 943 184.288Z" fill="#B7C8F4"/>
<ellipse cx="252" cy="201" rx="252" ry="201" transform="matrix(1 0 0 -1 799 609)" fill="#B7C8F4"/>
<ellipse cx="252" cy="201" rx="252" ry="201" transform="matrix(1 0 0 -1 547 694)" fill="#B7C8F4"/>
<ellipse cx="252" cy="201" rx="252" ry="201" transform="matrix(1 0 0 -1 227 836)" fill="#B7C8F4"/>
<ellipse cx="616" cy="974" rx="252" ry="201" fill="#B7C8F4"/>
<ellipse cx="364" cy="889" rx="252" ry="201" fill="#B7C8F4"/>
<ellipse cx="44" cy="747" rx="252" ry="201" fill="#B7C8F4"/>
<path d="M1129 745.771C1129 985.861 927.08 1180.49 678 1180.49C428.92 1180.49 -145 1356.97 -145 1116.88C-145 876.785 326 573.232 637 536.604C908 504.686 1129 505.681 1129 745.771Z" fill="#86CF99"/>
<path d="M662.691 714.714C656.815 653.931 785.115 560.912 850 522L699.418 530.554C620.148 574.33 470.791 672.447 507.518 714.714C544.245 756.98 414.476 868.515 345 919H516.7C567.812 876.231 668.567 775.496 662.691 714.714Z" fill="#68D5F2"/>
<circle cx="678" cy="1227" r="451" fill="#5FA38B"/>
<circle cx="964" cy="1125" r="451" fill="#5FA38B"/>
<path d="M689.686 566.038C688.223 566.311 686.087 567.836 683.6 570.386C682.599 571.411 681.561 572.594 680.866 573.49C680.623 573.804 679.671 575.527 679.4 576.146C679.042 576.963 678.622 578.351 678.396 579.472C678.219 580.354 678.031 581.749 678.01 582.378L678 582.682L690.401 587.123L690.853 586.965C691.103 586.88 691.527 586.733 691.801 586.637C692.586 586.36 693.229 586.135 693.747 585.953C694.007 585.861 694.268 585.769 694.32 585.748C694.396 585.718 694.355 585.783 694.118 586.046C693.639 586.576 693.372 587.023 693.372 587.283C693.372 587.591 693.625 587.83 694.073 587.946C695.157 588.23 695.497 588.333 697.21 588.89C697.974 589.136 698.836 589.399 699.124 589.471C700.027 589.7 701.063 589.861 702.247 589.956C702.977 590.015 705.954 590.015 706.937 589.956C709.948 589.775 712.043 589.338 714.492 588.391C716.219 587.721 717.129 587.078 717.612 586.189C717.858 585.738 717.914 585.499 717.914 584.907C717.914 584.347 717.876 584.138 717.685 583.605C717.452 582.949 717.23 582.614 716.531 581.851C715.607 580.843 714.089 579.554 711.331 577.438C710.365 576.7 709.552 576.074 709.518 576.047C709.469 576.002 709.101 576.091 706.499 576.754C703.883 577.421 703.501 577.527 703.258 577.653C702.719 577.927 702.143 578.344 701.476 578.932C701.243 579.14 701.191 579.175 701.174 579.123C701.163 579.089 701.069 578.717 700.965 578.293C700.864 577.869 700.708 577.253 700.621 576.925C700.538 576.597 700.402 576.064 700.326 575.746C700.191 575.196 700.111 574.878 699.624 572.892C699.51 572.43 699.399 571.986 699.374 571.904C699.339 571.774 699.253 571.678 698.62 571.097C696.727 569.36 694.994 568.031 693.438 567.138C691.919 566.267 690.575 565.87 689.686 566.038Z" fill="#8B7CA6"/>
<path d="M703.146 577.803L693.566 587.246C692.771 586.932 698.774 581.388 701.911 578.623L703.146 577.803Z" fill="#8B7CA6"/>
<path d="M701.948 578.59L701.911 578.623M701.911 578.623C698.774 581.388 692.771 586.932 693.566 587.246L703.146 577.803L701.911 578.623ZM678.399 582.721C678.599 580.426 679.397 575.443 680.994 573.869C683.548 570.092 688.178 567.049 690.174 566M709.532 576.033C711.661 577.541 716.237 581.03 717.515 582.918C718.792 584.807 717.249 586.852 716.317 587.639M689.686 566.038C688.223 566.311 686.087 567.836 683.6 570.386C682.599 571.411 681.561 572.594 680.866 573.49C680.623 573.804 679.671 575.527 679.4 576.146C679.042 576.963 678.622 578.351 678.396 579.472C678.219 580.354 678.031 581.749 678.01 582.378L678 582.682L690.401 587.123L690.853 586.965C691.103 586.88 691.527 586.733 691.801 586.637C692.586 586.36 693.229 586.135 693.747 585.953C694.007 585.861 694.268 585.769 694.32 585.748C694.396 585.718 694.355 585.783 694.118 586.046C693.639 586.576 693.372 587.023 693.372 587.283C693.372 587.591 693.625 587.83 694.073 587.946C695.157 588.23 695.497 588.333 697.21 588.89C697.974 589.136 698.836 589.399 699.124 589.471C700.027 589.7 701.063 589.861 702.247 589.956C702.977 590.015 705.954 590.015 706.937 589.956C709.948 589.775 712.043 589.338 714.492 588.391C716.219 587.721 717.129 587.078 717.612 586.189C717.858 585.738 717.914 585.499 717.914 584.907C717.914 584.347 717.876 584.138 717.685 583.605C717.452 582.949 717.23 582.614 716.531 581.851C715.607 580.843 714.089 579.554 711.331 577.438C710.365 576.7 709.552 576.074 709.518 576.047C709.469 576.002 709.101 576.091 706.499 576.754C703.883 577.421 703.501 577.527 703.258 577.653C702.719 577.927 702.143 578.344 701.476 578.932C701.243 579.14 701.191 579.175 701.174 579.123C701.163 579.089 701.069 578.717 700.965 578.293C700.864 577.869 700.708 577.253 700.621 576.925C700.538 576.597 700.402 576.064 700.326 575.746C700.191 575.196 700.111 574.878 699.624 572.892C699.51 572.43 699.399 571.986 699.374 571.904C699.339 571.774 699.253 571.678 698.62 571.097C696.727 569.36 694.994 568.031 693.438 567.138C691.919 566.267 690.575 565.87 689.686 566.038Z" stroke="#75688C"/>
<path d="M592.686 710.038C591.223 710.311 589.087 711.836 586.6 714.386C585.599 715.411 584.561 716.594 583.866 717.49C583.623 717.804 582.671 719.527 582.4 720.146C582.042 720.963 581.622 722.351 581.396 723.472C581.219 724.354 581.031 725.749 581.01 726.378L581 726.682L593.401 731.123L593.853 730.965C594.103 730.88 594.527 730.733 594.801 730.637C595.586 730.36 596.229 730.135 596.747 729.953C597.007 729.861 597.268 729.769 597.32 729.748C597.396 729.718 597.355 729.783 597.118 730.046C596.639 730.576 596.372 731.023 596.372 731.283C596.372 731.591 596.625 731.83 597.073 731.946C598.157 732.23 598.497 732.333 600.21 732.89C600.974 733.136 601.836 733.399 602.124 733.471C603.027 733.7 604.063 733.861 605.247 733.956C605.977 734.015 608.954 734.015 609.937 733.956C612.948 733.775 615.043 733.338 617.492 732.391C619.219 731.721 620.129 731.078 620.612 730.189C620.858 729.738 620.914 729.499 620.914 728.907C620.914 728.347 620.876 728.138 620.685 727.605C620.452 726.949 620.23 726.614 619.531 725.851C618.607 724.843 617.089 723.554 614.331 721.438C613.365 720.7 612.552 720.074 612.518 720.047C612.469 720.002 612.101 720.091 609.499 720.754C606.883 721.421 606.501 721.527 606.258 721.653C605.719 721.927 605.143 722.344 604.476 722.932C604.243 723.14 604.191 723.175 604.174 723.123C604.163 723.089 604.069 722.717 603.965 722.293C603.864 721.869 603.708 721.253 603.621 720.925C603.538 720.597 603.402 720.064 603.326 719.746C603.191 719.196 603.111 718.878 602.624 716.892C602.51 716.43 602.399 715.986 602.374 715.904C602.339 715.774 602.253 715.678 601.62 715.097C599.727 713.36 597.994 712.031 596.438 711.138C594.919 710.267 593.575 709.87 592.686 710.038Z" fill="#8B7CA6"/>
<path d="M606.146 721.803L596.566 731.246C595.771 730.932 601.774 725.388 604.911 722.623L606.146 721.803Z" fill="#8B7CA6"/>
<path d="M604.948 722.59L604.911 722.623M604.911 722.623C601.774 725.388 595.771 730.932 596.566 731.246L606.146 721.803L604.911 722.623ZM581.399 726.721C581.599 724.426 582.397 719.443 583.994 717.869C586.548 714.092 591.178 711.049 593.174 710M612.532 720.033C614.661 721.541 619.237 725.03 620.515 726.918C621.792 728.807 620.249 730.852 619.317 731.639M592.686 710.038C591.223 710.311 589.087 711.836 586.6 714.386C585.599 715.411 584.561 716.594 583.866 717.49C583.623 717.804 582.671 719.527 582.4 720.146C582.042 720.963 581.622 722.351 581.396 723.472C581.219 724.354 581.031 725.749 581.01 726.378L581 726.682L593.401 731.123L593.853 730.965C594.103 730.88 594.527 730.733 594.801 730.637C595.586 730.36 596.229 730.135 596.747 729.953C597.007 729.861 597.268 729.769 597.32 729.748C597.396 729.718 597.355 729.783 597.118 730.046C596.639 730.576 596.372 731.023 596.372 731.283C596.372 731.591 596.625 731.83 597.073 731.946C598.157 732.23 598.497 732.333 600.21 732.89C600.974 733.136 601.836 733.399 602.124 733.471C603.027 733.7 604.063 733.861 605.247 733.956C605.977 734.015 608.954 734.015 609.937 733.956C612.948 733.775 615.043 733.338 617.492 732.391C619.219 731.721 620.129 731.078 620.612 730.189C620.858 729.738 620.914 729.499 620.914 728.907C620.914 728.347 620.876 728.138 620.685 727.605C620.452 726.949 620.23 726.614 619.531 725.851C618.607 724.843 617.089 723.554 614.331 721.438C613.365 720.7 612.552 720.074 612.518 720.047C612.469 720.002 612.101 720.091 609.499 720.754C606.883 721.421 606.501 721.527 606.258 721.653C605.719 721.927 605.143 722.344 604.476 722.932C604.243 723.14 604.191 723.175 604.174 723.123C604.163 723.089 604.069 722.717 603.965 722.293C603.864 721.869 603.708 721.253 603.621 720.925C603.538 720.597 603.402 720.064 603.326 719.746C603.191 719.196 603.111 718.878 602.624 716.892C602.51 716.43 602.399 715.986 602.374 715.904C602.339 715.774 602.253 715.678 601.62 715.097C599.727 713.36 597.994 712.031 596.438 711.138C594.919 710.267 593.575 709.87 592.686 710.038Z" stroke="#75688C"/>
<path fill-rule="evenodd" clip-rule="evenodd" d="M783.65 919H525.288C525.098 917.053 525 915.068 525 913.051C525 888.17 539.896 868 558.271 868C567.684 868 580.638 877.089 591.036 889.3C591.894 862.982 608.023 842 627.794 842C637.423 842 650.402 850.546 661.396 862.447C664.467 830.047 685.057 805 710 805C737.062 805 782.5 856.5 787 892C787.985 903.62 786.645 912.397 783.65 919Z" fill="#528C74"/>
<path d="M682.655 291.719C681.082 288.574 679.791 286 679.786 286C679.781 286 678.478 288.601 676.888 291.777L674 297.554L676.862 303.277C678.436 306.425 679.727 309 679.732 309C679.739 309 685.52 297.453 685.516 297.442C685.516 297.439 684.229 294.863 682.655 291.719Z" fill="#FCD34D"/>
<path d="M651 313.903L657.767 320.587L656.179 330L664.5 325.556L672.821 330L671.233 320.587L678 313.903L668.678 312.538L664.5 304L660.322 312.538L651 313.903Z" fill="#FCD34D"/>
<path d="M915.126 810.839H907.709L904.179 782.219H915.126V810.839Z" fill="#9E616A"/>
<path d="M919.041 823.695H913.722L912.772 818.671L910.341 823.695H896.234C895.557 823.695 894.899 823.479 894.354 823.078C893.809 822.677 893.407 822.112 893.206 821.467C893.005 820.821 893.015 820.127 893.236 819.488C893.456 818.848 893.875 818.296 894.432 817.912L905.697 810.128V805.049L917.547 805.757L919.041 823.695Z" fill="#2F2E41"/>
<path d="M959.191 801.475L953.239 805.902L933.335 785.043L942.12 778.508L959.191 801.475Z" fill="#9E616A"/>
<path d="M970 809.454L965.732 812.629L961.973 809.165L963.019 814.648L951.698 823.069C951.156 823.473 950.498 823.693 949.822 823.696C949.146 823.699 948.486 823.487 947.94 823.088C947.393 822.69 946.988 822.128 946.783 821.483C946.579 820.838 946.586 820.145 946.803 819.504L951.2 806.533L948.171 802.457L958.101 795.952L970 809.454Z" fill="#2F2E41"/>
<path d="M923.761 663.174C923.761 663.174 937.834 675.337 931.341 710.011L923.414 743.986L949.266 786.891L941.023 796.923L907.415 750.483L895.237 721.905L891.819 671.04L923.761 663.174Z" fill="#2F2E41"/>
<path d="M901.949 730.049L901.103 743.163L903.693 799.047L915.882 796.923L918.211 757.135L901.949 730.049Z" fill="#2F2E41"/>
<path d="M745.533 817.568L752.165 817.567L755.321 791.973L745.532 791.974L745.533 817.568Z" fill="#FFB6B6"/>
<path d="M743.841 815.401L745.708 815.401L752.996 812.436L756.903 815.401H756.904C759.111 815.401 761.229 816.278 762.79 817.84C764.351 819.402 765.228 821.52 765.228 823.729V823.999L743.841 824L743.841 815.401Z" fill="#2F2E41"/>
<path d="M771.236 813.387L777.706 814.848L786.419 790.577L776.871 788.42L771.236 813.387Z" fill="#FFB6B6"/>
<path d="M770.063 810.9L771.884 811.312L779.647 810.025L782.804 813.778L782.805 813.778C784.958 814.265 786.83 815.587 788.009 817.455C789.188 819.322 789.577 821.582 789.091 823.736L789.032 824L768.17 819.288L770.063 810.9Z" fill="#2F2E41"/>
<path d="M737.132 661.098C734.022 670.481 734.351 680.666 737.879 691.597L739.388 753.142C739.388 753.142 737.14 793.503 744.392 807.705H754.909L760.116 749.456L760.77 710.36L783.318 743.344L768.957 806.753L781.901 807.91L805.205 739.097L776.452 672.337L737.132 661.098Z" fill="#2F2E41"/>
<path d="M858.417 634.371C866.461 627.119 878.426 623.473 888.463 627.539C878.167 633.258 870.226 642.435 866.043 653.447C864.445 657.7 863.11 662.597 859.18 664.874C856.735 666.29 853.693 666.36 850.951 665.676C848.209 664.992 845.696 663.621 843.217 662.263L842.512 662.247C845.678 651.888 850.372 641.623 858.417 634.371Z" fill="#86CF99"/>
<path d="M888.407 627.76C879.518 628.909 871.216 632.831 864.682 638.968C863.252 640.265 862.035 641.779 861.076 643.454C860.195 645.116 859.775 646.984 859.859 648.864C859.902 650.618 860.15 652.408 859.766 654.142C859.557 655.027 859.163 655.857 858.61 656.579C858.057 657.301 857.358 657.898 856.558 658.33C854.594 659.46 852.341 659.816 850.126 660.087C847.667 660.389 845.107 660.663 842.978 662.043C842.721 662.211 842.476 661.8 842.734 661.633C846.438 659.232 851.125 660.106 855.108 658.503C856.966 657.756 858.611 656.443 859.193 654.459C859.702 652.723 859.448 650.878 859.389 649.102C859.279 647.269 859.621 645.438 860.382 643.768C861.253 642.049 862.409 640.491 863.802 639.16C866.891 636.114 870.439 633.573 874.316 631.63C878.729 629.388 883.493 627.917 888.402 627.282C888.706 627.243 888.709 627.721 888.407 627.76Z" fill="white"/>
<path d="M866.67 636.868C865.79 635.632 865.377 634.122 865.506 632.61C865.635 631.097 866.298 629.679 867.375 628.61C867.594 628.395 867.939 628.725 867.72 628.941C866.715 629.934 866.098 631.255 865.981 632.664C865.863 634.072 866.253 635.477 867.08 636.624C867.259 636.873 866.848 637.116 866.67 636.868Z" fill="white"/>
<path d="M859.72 647.978C862.775 648.519 865.921 647.889 868.532 646.212C868.79 646.046 869.035 646.456 868.776 646.622C866.056 648.362 862.781 649.011 859.603 648.44C859.3 648.386 859.419 647.923 859.72 647.978Z" fill="white"/>
<path d="M878.768 630.02C879.009 630.569 879.383 631.05 879.856 631.419C880.328 631.789 880.886 632.035 881.477 632.135C881.78 632.186 881.661 632.649 881.36 632.598C880.707 632.484 880.092 632.212 879.569 631.805C879.046 631.398 878.63 630.869 878.358 630.264C878.328 630.21 878.32 630.145 878.335 630.084C878.35 630.024 878.388 629.971 878.441 629.937C878.495 629.905 878.56 629.896 878.622 629.911C878.683 629.926 878.736 629.965 878.768 630.02Z" fill="white"/>
<path d="M899.515 662.512C899.324 662.486 899.134 662.459 898.941 662.436C896.38 662.096 893.796 661.965 891.214 662.043C891.015 662.046 890.812 662.052 890.613 662.061C884.395 662.317 878.278 663.725 872.573 666.215C870.304 667.208 868.114 668.372 866.022 669.697C863.132 671.527 860.144 673.742 856.914 674.489C856.578 674.57 856.237 674.631 855.893 674.67L842.547 663.109C842.53 663.068 842.51 663.029 842.492 662.988L841.938 662.55C842.042 662.474 842.15 662.398 842.253 662.322C842.313 662.278 842.376 662.236 842.435 662.192C842.476 662.163 842.517 662.134 842.552 662.106C842.565 662.097 842.579 662.087 842.59 662.081C842.625 662.052 842.661 662.03 842.693 662.005C843.299 661.575 843.909 661.15 844.523 660.728C844.526 660.725 844.526 660.725 844.531 660.724C849.18 657.462 854.198 654.763 859.482 652.684C859.641 652.624 859.802 652.561 859.966 652.506C862.346 651.621 864.794 650.932 867.285 650.446C868.651 650.184 870.028 649.992 871.413 649.869C874.992 649.56 878.597 649.815 882.096 650.626C889.071 652.245 895.451 656.076 899.231 662.052C899.327 662.205 899.421 662.356 899.515 662.512Z" fill="#86CF99"/>
<path d="M899.338 662.655C891.549 658.219 882.561 656.35 873.65 657.315C871.728 657.489 869.845 657.965 868.071 658.725C866.367 659.521 864.907 660.76 863.843 662.311C862.822 663.738 861.943 665.316 860.593 666.47C859.893 667.05 859.079 667.476 858.203 667.719C857.327 667.962 856.41 668.018 855.511 667.881C853.263 667.6 851.25 666.528 849.318 665.41C847.173 664.17 844.964 662.847 842.434 662.667C842.127 662.645 842.179 662.17 842.485 662.192C846.887 662.506 850.104 666.027 854.248 667.146C856.182 667.668 858.285 667.611 859.944 666.377C861.395 665.298 862.303 663.672 863.325 662.218C864.34 660.689 865.715 659.432 867.328 658.557C869.057 657.709 870.919 657.162 872.832 656.938C877.131 656.367 881.493 656.475 885.758 657.259C890.631 658.126 895.32 659.822 899.622 662.271C899.888 662.423 899.603 662.806 899.338 662.655Z" fill="white"/>
<path d="M876.501 656.836C876.542 655.318 877.121 653.864 878.135 652.734C879.148 651.604 880.53 650.872 882.034 650.667C882.338 650.627 882.415 651.098 882.11 651.138C880.71 651.326 879.422 652.009 878.481 653.063C877.539 654.117 877.005 655.474 876.975 656.887C876.968 657.194 876.494 657.141 876.501 656.836Z" fill="white"/>
<path d="M864.266 661.52C866.379 663.792 869.27 665.184 872.364 665.418C872.67 665.441 872.619 665.915 872.313 665.892C869.094 665.643 866.088 664.188 863.894 661.819C863.685 661.593 864.058 661.295 864.266 661.52Z" fill="white"/>
<path d="M890.282 658.654C890.144 659.238 890.153 659.847 890.308 660.427C890.463 661.007 890.76 661.539 891.172 661.975C891.383 662.198 891.01 662.496 890.8 662.274C890.347 661.79 890.02 661.202 889.847 660.562C889.674 659.922 889.661 659.249 889.808 658.603C889.816 658.541 889.848 658.484 889.897 658.445C889.946 658.406 890.008 658.387 890.071 658.391C890.133 658.398 890.191 658.43 890.23 658.479C890.27 658.529 890.289 658.591 890.282 658.654Z" fill="white"/>
<path d="M840.133 620.851C839.689 621.434 839.123 621.913 838.475 622.255C837.826 622.596 837.111 622.79 836.379 622.825C835.647 622.859 834.916 622.733 834.239 622.454C833.561 622.176 832.952 621.752 832.456 621.213L816.123 628.319L817.714 619.198L832.98 613.848C833.941 613.074 835.152 612.679 836.384 612.738C837.616 612.798 838.784 613.308 839.666 614.171C840.547 615.034 841.082 616.191 841.168 617.422C841.254 618.653 840.886 619.873 840.133 620.851Z" fill="#FFB8B8"/>
<path d="M829.233 623.699L791.297 640.604L791.216 640.575L747.978 625.161C744.757 623.477 742.302 620.625 741.114 617.189C739.927 613.753 740.097 609.993 741.591 606.679C742.419 604.848 743.625 603.213 745.13 601.881C746.635 600.55 748.404 599.553 750.322 598.955C752.24 598.357 754.263 598.173 756.257 598.414C758.252 598.654 760.173 599.315 761.893 600.352L794.07 619.743L825.272 615.698L829.233 623.699Z" fill="white"/>
<path d="M778.327 674.308L740.085 668.188C739.082 667.867 738.16 667.332 737.384 666.621C736.607 665.91 735.993 665.039 735.584 664.068C735.175 663.097 734.982 662.049 735.016 660.995C735.05 659.942 735.312 658.909 735.783 657.967L737.518 654.497L736.844 618.036C736.763 613.294 737.931 608.613 740.233 604.466C742.534 600.319 745.886 596.851 749.952 594.411L753.681 592.18L755.566 587.392L772.945 587.816L772.995 594.096L779.219 604.025L779.219 604.066L778.828 658.105L777.113 663.682L779.707 670.169L778.327 674.308Z" fill="white"/>
<path d="M765.847 581.438C774.567 581.438 781.637 574.366 781.637 565.642C781.637 556.917 774.567 549.845 765.847 549.845C757.126 549.845 750.056 556.917 750.056 565.642C750.056 574.366 757.126 581.438 765.847 581.438Z" fill="#FFB8B8"/>
<path d="M749.404 569.085C748.933 567.1 749.149 564.307 749.416 562.309C750.113 557.069 753.022 552.088 757.441 549.137C758.279 548.501 759.274 548.105 760.321 547.992C761.366 547.949 762.499 548.509 762.82 549.505C763.083 548.847 763.479 548.251 763.981 547.752C764.484 547.253 765.084 546.863 765.743 546.605C767.068 546.097 768.493 545.905 769.905 546.044C772.641 546.27 775.266 547.232 777.499 548.83C779.733 550.427 781.493 552.6 782.592 555.117C783.014 556.119 784.192 552.417 784.726 553.364C785.217 554.348 786.074 555.101 787.113 555.462C788.16 555.754 788.585 560.07 788.998 559.064C789.317 559.807 789.444 560.62 789.365 561.426C789.286 562.232 789.005 563.004 788.547 563.672C788.09 564.34 787.471 564.881 786.748 565.245C786.025 565.609 785.222 565.783 784.413 565.753C783.347 565.713 782.328 565.321 781.275 565.152C777.509 564.549 773.515 567.28 772.71 571.01C772.421 569.931 771.961 568.906 771.346 567.975C771.034 567.512 770.616 567.129 770.126 566.86C769.637 566.591 769.09 566.443 768.532 566.428C767.46 566.468 766.519 567.169 765.824 567.985C765.128 568.802 764.606 569.755 763.906 570.567C761.851 572.95 759.072 578.507 756.144 578.102C753.833 577.782 750.047 571.795 749.404 569.085Z" fill="#2F2E41"/>
<path d="M861.297 638.751C861.408 638.031 861.26 637.295 860.88 636.674C860.499 636.052 859.911 635.586 859.22 635.356L816.697 621.188C816.289 621.052 815.858 621.002 815.43 621.042L787.37 623.698C786.689 623.763 786.048 624.053 785.549 624.521C785.05 624.99 784.72 625.611 784.612 626.287L778.882 662.095C778.773 662.794 778.906 663.508 779.258 664.121C779.611 664.734 780.161 665.208 780.819 665.465L823.786 682.058C823.988 682.136 824.198 682.192 824.411 682.225C824.722 682.276 825.04 682.278 825.351 682.233L853.115 678.116C853.77 678.021 854.377 677.718 854.846 677.25C855.315 676.783 855.621 676.177 855.718 675.523L861.297 638.751Z" fill="white"/>
<path d="M781.793 662.942L824.76 679.534C824.823 679.558 824.891 679.566 824.958 679.557L852.718 675.441C852.8 675.429 852.877 675.392 852.936 675.333C852.995 675.274 853.033 675.198 853.044 675.116L858.627 638.344C858.639 638.254 858.621 638.163 858.573 638.086C858.526 638.008 858.453 637.95 858.368 637.92L858.082 637.823L815.842 623.755C815.823 623.748 815.803 623.743 815.783 623.74C815.75 623.734 815.716 623.732 815.683 623.735L789.687 626.196L787.624 626.39C787.539 626.399 787.46 626.435 787.398 626.494C787.336 626.552 787.295 626.629 787.281 626.713L781.552 662.52C781.538 662.607 781.554 662.697 781.598 662.774C781.642 662.85 781.711 662.91 781.793 662.942Z" fill="#428695"/>
<path d="M789.687 626.196L815.683 623.735C815.716 623.732 815.75 623.734 815.783 623.74C815.803 623.743 815.823 623.748 815.842 623.755L858.082 637.823L846.94 639.003L830.905 640.697C830.87 640.698 830.835 640.698 830.801 640.695C830.779 640.689 830.758 640.683 830.733 640.676L789.687 626.196Z" fill="#2F2E41"/>
<path d="M780.819 665.467L823.786 682.059C823.988 682.137 824.198 682.192 824.412 682.223C824.723 682.274 825.041 682.278 825.353 682.235L853.113 678.119C853.769 678.023 854.376 677.719 854.845 677.252C855.314 676.784 855.62 676.178 855.718 675.523L861.296 638.751C861.379 638.209 861.316 637.655 861.116 637.145C861.087 637.077 861.059 637.009 861.026 636.945C860.805 636.479 860.468 636.078 860.048 635.779C859.795 635.597 859.516 635.455 859.22 635.357L859.17 635.339L816.699 621.188C816.526 621.132 816.348 621.089 816.169 621.059C815.923 621.024 815.675 621.019 815.428 621.044L804.771 622.049L787.369 623.699C786.907 623.742 786.461 623.89 786.065 624.13C786.034 624.145 786.005 624.163 785.977 624.183C785.957 624.195 785.939 624.21 785.921 624.225C785.575 624.461 785.28 624.766 785.055 625.12C784.83 625.474 784.68 625.87 784.613 626.284L778.879 662.095C778.771 662.794 778.904 663.509 779.257 664.122C779.609 664.735 780.16 665.21 780.819 665.467ZM785.374 626.409C785.443 625.98 785.634 625.579 785.922 625.254C786.01 625.15 786.108 625.054 786.214 624.97C786.506 624.734 786.851 624.573 787.218 624.501C787.291 624.486 787.365 624.476 787.438 624.47L815.502 621.811C815.564 621.804 815.62 621.805 815.677 621.802C815.814 621.799 815.951 621.809 816.086 621.832C816.211 621.849 816.333 621.878 816.451 621.919L858.972 636.089C859.006 636.101 859.035 636.112 859.069 636.124C859.455 636.268 859.795 636.515 860.051 636.839C860.253 637.087 860.401 637.374 860.484 637.683C860.568 637.992 860.585 638.315 860.535 638.631L854.952 675.407C854.879 675.897 854.65 676.351 854.299 676.701C853.949 677.052 853.495 677.28 853.004 677.353L825.24 681.468C824.842 681.525 824.437 681.479 824.063 681.334L781.096 664.747C780.603 664.553 780.191 664.197 779.928 663.738C779.664 663.279 779.564 662.743 779.644 662.22L785.374 626.409Z" fill="#3F3D56"/>
<path d="M785.829 624.42C785.851 624.355 785.891 624.297 785.944 624.253C785.962 624.239 785.981 624.227 786 624.215C786.018 624.208 786.036 624.197 786.055 624.19C786.141 624.155 786.237 624.154 786.324 624.185L787.218 624.501L830.909 639.92L860.051 636.839L860.262 636.816C860.352 636.807 860.443 636.831 860.518 636.883C860.593 636.934 860.648 637.01 860.673 637.098C860.679 637.118 860.683 637.139 860.684 637.16C860.693 637.243 860.675 637.327 860.632 637.399C860.589 637.471 860.524 637.527 860.447 637.558C860.412 637.573 860.377 637.582 860.34 637.587L846.94 639.003L830.905 640.697C830.87 640.698 830.835 640.698 830.801 640.695C830.779 640.689 830.758 640.683 830.733 640.676L786.214 624.97L786.063 624.916C786.029 624.905 785.997 624.887 785.968 624.864C785.901 624.814 785.851 624.745 785.826 624.665C785.801 624.585 785.802 624.499 785.829 624.42Z" fill="#3F3D56"/>
<path d="M824.529 682.336C824.429 682.32 824.339 682.264 824.279 682.182C824.218 682.1 824.193 681.997 824.208 681.897L830.481 640.254C830.496 640.153 830.551 640.062 830.634 640.001C830.716 639.94 830.819 639.915 830.92 639.93L830.924 639.93C831.024 639.947 831.115 640.002 831.175 640.084C831.235 640.166 831.26 640.269 831.245 640.37L824.972 682.012C824.957 682.113 824.902 682.204 824.82 682.265C824.737 682.326 824.634 682.351 824.533 682.336L824.529 682.336Z" fill="#3F3D56"/>
<path d="M840.429 679.694L836.257 680.134L841.137 638.838C841.137 638.838 846.708 637.829 846.857 638.233C846.949 638.475 840.469 679.429 840.429 679.694Z" fill="#3F3D56"/>
<path d="M786.065 624.915L785.952 643.748L819.277 656.452L831.245 640.37L786.065 624.915Z" fill="#3F3D56"/>
<path d="M860.052 636.839C859.774 636.489 859.399 636.228 858.973 636.089L816.453 621.92C816.334 621.88 816.211 621.85 816.087 621.831C815.951 621.807 815.814 621.797 815.676 621.8L815.745 621.369L826.268 613.747L859.988 624.086L860.052 636.839Z" fill="#3F3D56"/>
<path d="M787.763 655.148C787.811 655.153 787.858 655.163 787.904 655.178L800.95 659.464C801.113 659.518 801.249 659.634 801.326 659.788C801.404 659.941 801.417 660.119 801.364 660.283C801.31 660.446 801.194 660.582 801.041 660.659C800.887 660.737 800.709 660.75 800.546 660.697L787.5 656.41C787.348 656.36 787.22 656.256 787.141 656.118C787.061 655.98 787.035 655.817 787.067 655.661C787.1 655.505 787.189 655.367 787.317 655.272C787.445 655.177 787.604 655.133 787.763 655.148Z" fill="white"/>
<path d="M824.711 662.777C824.039 663.069 823.311 663.21 822.579 663.191C821.846 663.171 821.127 662.991 820.472 662.663C819.817 662.335 819.241 661.867 818.786 661.293C818.331 660.718 818.007 660.051 817.838 659.338L800.117 657.546L805.963 650.368L821.895 653.17C823.111 652.964 824.361 653.212 825.407 653.867C826.452 654.522 827.222 655.538 827.569 656.722C827.916 657.906 827.817 659.177 827.29 660.293C826.763 661.409 825.846 662.293 824.711 662.777Z" fill="#FFB8B8"/>
<path d="M813.812 659.93L772.457 656.118L772.4 656.052L742.219 621.455C740.233 618.411 739.485 614.722 740.128 611.144C740.772 607.566 742.759 604.37 745.681 602.209C747.298 601.017 749.15 600.181 751.113 599.755C753.076 599.33 755.108 599.326 757.073 599.743C759.038 600.16 760.893 600.989 762.515 602.174C764.137 603.36 765.489 604.876 766.484 606.622L785.073 639.278L814.267 651.012L813.812 659.93Z" fill="white"/>
<path d="M917.61 593.396C916.582 585.86 915.294 577.769 909.981 572.329C908.296 570.603 906.278 569.236 904.05 568.311C901.821 567.386 899.429 566.922 897.017 566.947C894.605 566.972 892.223 567.485 890.014 568.456C887.806 569.427 885.817 570.835 884.167 572.596C880.299 576.724 878.591 582.519 878.435 588.175C878.279 593.83 879.538 599.423 880.934 604.905C888.326 605.053 895.662 603.608 902.446 600.669C904.143 599.933 905.812 599.1 907.604 598.643C909.396 598.187 910.674 599.335 912.341 600.136L913.256 598.383C914.005 599.778 916.325 599.364 917.166 598.023C918.008 596.682 917.823 594.965 917.61 593.396Z" fill="#2F2E41"/>
<path d="M888.311 635.46L858.119 636.106C857.655 635.304 856.968 634.654 856.142 634.235C855.316 633.817 854.386 633.647 853.466 633.748C852.545 633.848 851.674 634.214 850.958 634.801C850.241 635.388 849.711 636.171 849.431 637.053C849.151 637.936 849.134 638.882 849.381 639.774C849.628 640.667 850.129 641.469 850.824 642.082C851.518 642.694 852.376 643.092 853.292 643.226C854.208 643.361 855.143 643.226 855.984 642.838C859.989 643.065 891.317 647.514 893.186 644.647C895.083 641.737 905.208 631.469 905.208 631.469L897.425 620.384L888.311 635.46Z" fill="#9E616A"/>
<path d="M895.668 600.852C903.503 600.852 909.854 594.498 909.854 586.661C909.854 578.823 903.503 572.469 895.668 572.469C887.834 572.469 881.483 578.823 881.483 586.661C881.483 594.498 887.834 600.852 895.668 600.852Z" fill="#9E616A"/>
<path d="M918.389 613.966C916.717 610.638 915.905 606.526 912.341 605.447C909.934 604.719 900.201 605.811 898.007 607.041C894.359 609.086 897.665 612.92 895.513 616.508C893.173 620.408 886.814 628.235 884.474 632.136C882.865 634.817 888.284 642.687 887.414 645.691C886.544 648.694 886.502 652.066 887.984 654.819C889.31 657.284 887.392 659.464 888.725 661.924C890.112 664.483 891.814 674.051 890.523 676.659L889.659 679.253C898.235 679.757 905.445 669.508 913.968 668.428C916.084 668.16 918.282 667.81 920.026 666.58C922.596 664.77 923.612 661.484 924.246 658.405C927.302 643.353 925.24 627.711 918.389 613.966Z" fill="white"/>
<path d="M931.246 649.111C930.051 645.849 927.889 631.588 927.889 631.588L914.354 631.191L920.971 647.519L902.914 672.807C902.914 672.807 902.948 672.863 903.009 672.962C902.059 672.81 901.086 672.948 900.216 673.358C899.346 673.768 898.621 674.431 898.134 675.26C897.647 676.09 897.422 677.047 897.488 678.007C897.554 678.966 897.908 679.884 898.503 680.639C899.099 681.394 899.909 681.952 900.826 682.239C901.744 682.526 902.727 682.529 903.647 682.248C904.566 681.967 905.38 681.415 905.98 680.664C906.581 679.913 906.941 678.998 907.014 678.039C907.08 678.077 907.158 678.091 907.234 678.078C907.309 678.065 907.378 678.026 907.428 677.968C909.437 675.445 932.44 652.372 931.246 649.111Z" fill="#9E616A"/>
<path d="M932.622 640.104C931.38 634.859 930.128 629.585 928.034 624.618C925.939 619.651 922.941 614.96 918.724 611.604C917.375 610.532 915.868 609.585 914.178 609.251C912.488 608.918 910.583 609.291 909.396 610.54C907.496 612.538 908.068 615.747 908.765 618.415C910.819 626.282 912.873 634.15 914.927 642.017C920.86 641.388 926.792 640.759 932.724 640.13L932.622 640.104Z" fill="white"/>
<path d="M913.05 588.629C912.528 585.196 911.982 581.734 910.755 578.502C909.528 575.269 907.549 572.241 904.712 570.41C900.218 567.511 894.401 568.07 889.363 569.738C885.468 571.028 881.665 572.988 878.917 576.139C876.17 579.291 874.627 583.788 875.649 587.909C881.023 586.638 886.396 585.368 891.77 584.098L891.181 584.514C892.946 585.394 894.487 586.665 895.687 588.23C896.887 589.795 897.715 591.612 898.108 593.545C898.492 595.502 898.437 597.519 897.947 599.451C897.456 601.384 896.542 603.183 895.271 604.718C898.936 603.418 902.601 602.117 906.266 600.817C908.528 600.014 910.949 599.089 912.29 597.03C913.845 594.642 913.484 591.478 913.05 588.629Z" fill="#2F2E41"/>
<path fill-rule="evenodd" clip-rule="evenodd" d="M525.358 306.335V306.268C525.328 289.637 502.623 276.16 474.62 276.16C466.261 276.16 458.374 277.361 451.421 279.488C444.93 269.038 433.448 262.094 420.365 262.094C413.862 262.094 407.753 263.811 402.457 266.821C392.996 251.894 376.428 242 357.571 242C332.091 242 310.791 260.065 305.554 284.199C299.358 282.908 292.478 282.189 285.231 282.189C258.042 282.189 236 292.31 236 304.795C236 306.232 236.292 307.637 236.85 309H525.158C525.289 308.122 525.357 307.233 525.358 306.335Z" fill="#B7C8F4"/>
<path d="M551.686 134.687C548.471 128.259 545.835 123 545.824 123C545.813 123 543.15 128.314 539.903 134.805L534 146.61L539.847 158.305C543.065 164.737 545.702 170 545.713 170C545.728 170 557.54 146.404 557.533 146.382C557.533 146.375 554.904 141.112 551.686 134.687Z" fill="#FCD34D"/>
<path d="M491.962 682.128L464.002 660.07C462.821 659.132 462.056 657.768 461.875 656.274C461.693 654.779 462.108 653.274 463.031 652.082C463.508 651.465 464.107 650.952 464.79 650.573C465.473 650.194 466.226 649.958 467.004 649.879C467.781 649.8 468.567 649.879 469.313 650.112C470.059 650.345 470.749 650.727 471.342 651.235L499.68 675.035L517.512 688.773C518.411 688.269 519.444 688.053 520.47 688.154C521.497 688.255 522.467 688.668 523.25 689.338C524.032 690.007 524.589 690.901 524.844 691.896C525.099 692.892 525.04 693.942 524.676 694.903C524.311 695.865 523.658 696.691 522.806 697.27C521.953 697.848 520.943 698.152 519.911 698.138C518.88 698.125 517.878 697.796 517.041 697.195C516.204 696.595 515.572 695.752 515.233 694.781L491.962 682.128Z" fill="#FFB6B6"/>
<path d="M467.665 667.124C467.297 667.174 466.922 667.103 466.599 666.92C466.275 666.738 466.021 666.455 465.874 666.115C465.686 665.698 465.371 665.351 464.975 665.121C464.897 665.077 464.818 665.039 464.735 665.005C464.235 664.818 463.787 664.513 463.431 664.116C463.074 663.719 462.819 663.242 462.687 662.726C462.277 661.021 460.962 659.367 459.64 658.092C458.194 656.696 456.65 655.357 455.581 653.657C454.039 651.205 453.607 647.763 456.581 645.717C457.86 644.866 459.394 644.481 460.925 644.625C464.13 644.885 466.78 646.833 469.297 648.721L468.667 647.489C471.38 649.598 474.494 651.14 477.82 652.022C477.244 652.543 477.743 653.586 478.482 653.828C479.221 654.071 480.017 653.815 480.778 653.654C481.737 653.452 482.923 653.469 483.301 654.61C483.384 654.885 483.409 655.175 483.374 655.46C483.339 655.745 483.245 656.021 483.098 656.268C480.426 661.005 476.8 665.14 472.446 668.413C471.479 669.14 470.356 669.855 469.153 669.713C467.95 669.571 466.927 668.081 467.665 667.124Z" fill="white"/>
<path d="M445.5 697.914L442.89 685.381L470.321 676.773L466.627 705.623L445.5 697.914Z" fill="#FFB6B6"/>
<path d="M469.561 686.71L443.124 698.068C443.124 698.068 439.726 697.919 439.726 695.874C439.726 693.829 441.626 693.401 439.136 691.825C436.647 690.249 435.62 691.272 436.133 688.715C436.647 686.159 437.16 685.313 437.16 684.713C437.16 684.113 436.647 681.557 436.647 679C436.647 677.761 440.644 675.51 439.649 668.246C438.438 659.397 438.863 645.854 447.425 643.207L453.584 632.469H465.325L468.982 643.207L473.318 648.867C473.318 648.867 481.869 659.64 479.303 665.265C476.737 670.89 469.561 686.71 469.561 686.71Z" fill="#2F2E41"/>
<path d="M454.55 621.646C463.179 628.186 472.789 633.391 474.601 640.588C474.601 640.588 473.516 629.28 478.578 631.423C487.082 635.024 484.205 615.439 481.82 612.236C477.845 606.898 464.441 603.865 464.441 603.865L454.933 609.065L454.55 621.646Z" fill="#2F2E41"/>
<path d="M469.576 629.582C477.807 629.582 484.48 622.935 484.48 614.735C484.48 606.534 477.807 599.887 469.576 599.887C461.345 599.887 454.673 606.534 454.673 614.735C454.673 622.935 461.345 629.582 469.576 629.582Z" fill="#FFB6B6"/>
<path d="M464.209 609.054L463.635 611.563L473.661 613.837C473.67 613.329 473.784 612.829 473.996 612.368C474.208 611.906 474.514 611.493 474.894 611.155C474.677 612.139 474.702 613.16 474.966 614.133C480.372 617.155 480.062 618.226 484.432 617.455C485.024 617.59 485.645 617.484 486.159 617.162C486.673 616.84 487.037 616.328 487.172 615.738C488.93 608.044 489.508 600.18 481.823 598.27C479.955 597.805 478.012 597.716 476.109 598.008C474.206 598.301 472.381 598.969 470.74 599.973C469.1 600.977 467.677 602.298 466.555 603.857C465.434 605.416 464.636 607.183 464.209 609.054Z" fill="#2F2E41"/>
<path d="M466.661 619.066C467.152 616.922 468.114 614.914 469.478 613.186C470.843 611.458 472.575 610.054 474.55 609.074C476.525 608.093 478.694 607.562 480.9 607.518C483.107 607.474 485.295 607.919 487.308 608.82C486.611 606.769 485.2 605.036 483.33 603.933L472.045 599.052C466.479 597.789 457.668 594.206 453.647 597.638C449.943 600.79 451.746 606.96 448.335 610.416C444.596 614.203 444.279 618.681 445.339 621.256C446.565 624.236 449.019 628.301 452.081 629.181C452.24 628.132 452.765 627.173 453.564 626.472C453.343 627.471 453.324 628.504 453.508 629.511L472.045 644.24C470.314 642.74 468.839 638.875 467.823 634.521C467.222 631.944 463.634 631.039 466.544 626.665C469.453 622.292 466.266 620.795 466.661 619.066Z" fill="#2F2E41"/>
<path d="M451.813 602.637L451.865 602.741C451.929 602.879 451.993 603.017 452.045 603.161L452.05 603.167C452.333 603.27 452.651 603.103 452.963 602.838C452.915 603.461 452.88 604.063 452.854 604.654L462.723 600.806C461.007 601.102 460.753 595.018 459.522 596.184C459.452 596.247 459.389 596.31 459.325 596.374C459.479 596.007 459.583 595.622 459.637 595.228C459.69 594.734 459.651 594.235 459.522 593.755C459.52 593.752 459.518 593.75 459.517 593.747C459.516 593.744 459.516 593.74 459.516 593.737C459.393 593.303 459.202 592.891 458.95 592.517C458.586 591.972 458.126 591.498 457.592 591.118C456.91 590.599 456.116 590.247 455.272 590.091C454.429 589.935 453.561 589.979 452.738 590.22C450.853 590.93 449.295 592.305 448.358 594.083C447.578 595.482 446.983 597.053 447.104 598.648C447.139 599.07 447.231 599.486 447.376 599.885C447.556 600.445 447.863 600.957 448.274 601.379C448.685 601.801 449.188 602.123 449.745 602.32C449.883 602.366 450.045 602.418 450.219 602.482C450.311 601.732 450.317 600.975 450.236 600.225C450.878 600.947 451.41 601.76 451.813 602.637Z" fill="#2F2E41"/>
<path d="M461.371 600.415C461.358 600.736 461.319 601.056 461.255 601.371C461.25 601.411 461.243 601.452 461.232 601.491C460.828 603.282 458.638 599.557 456.945 600.806C455.639 601.768 454.916 601.969 453.478 602.533C453.426 602.39 452.963 602.672 452.9 602.533C452.882 602.499 452.917 601.992 452.9 601.958C454.304 601.399 454.535 601.152 455.789 600.231C457.378 599.062 457.153 600.156 457.522 598.504C457.95 596.598 460.469 597.416 459.175 596.512L459.325 596.305C460.244 596.937 460.922 597.86 461.249 598.924C461.249 598.927 461.249 598.93 461.25 598.933C461.251 598.936 461.253 598.939 461.255 598.941C461.352 599.426 461.391 599.921 461.371 600.415Z" fill="white"/>
<path d="M416.408 755.148L416.386 760.142L436.142 762.607L436.175 755.236L416.408 755.148Z" fill="#FFB6B6"/>
<path d="M418.807 755.155L418.737 753.854L406.075 752.747L406.055 756.492L409.603 757.175L406.045 758.87L406 768.797C405.997 769.273 406.148 769.738 406.429 770.123C406.711 770.508 407.108 770.793 407.564 770.937C408.02 771.08 408.51 771.075 408.962 770.922C409.415 770.768 409.806 770.474 410.079 770.083L411.725 767.735L415.609 762.181L419.198 762.196L418.807 755.155Z" fill="#2F2E41"/>
<path d="M503.963 747.013C500.66 755.614 497.868 762.27 496.722 763.407C495.45 764.674 486.842 765.202 476.202 765.347C464.971 765.496 451.478 765.222 441.944 764.963H441.939C434.737 764.763 429.793 764.569 429.793 764.569L429.833 753.884C429.833 753.884 430.073 753.819 430.513 753.685C431.329 753.45 432.841 753.012 434.823 752.428C441.048 750.593 451.879 747.367 460.052 744.735C462.729 743.867 465.126 743.07 466.978 742.401C469.1 741.644 470.512 741.055 470.827 740.741C472.694 738.926 473.519 740.741 474.701 742.551C475.882 744.366 476.247 742.551 477.794 741.22C479.34 739.888 482.828 741.718 482.828 741.718C482.828 741.718 482.858 740.512 482.908 738.592C482.983 735.755 483.094 731.338 483.199 726.92C483.194 726.915 483.194 726.915 483.199 726.915C483.204 726.721 483.209 726.521 483.214 726.327C485.616 728.406 488.183 730.31 490.741 732.694C492.407 734.244 494.95 736.812 496.762 738.647C497.127 739.021 497.597 739.515 497.968 739.903C500.152 742.111 502.157 744.489 503.963 747.013Z" fill="#2F2E41"/>
<path d="M422.502 769.493L422.884 774.472L442.776 775.339L442.211 767.99L422.502 769.493Z" fill="#FFB6B6"/>
<path d="M425.619 774.591L424.898 769.311L424.718 768.014L412.006 767.929L412.291 771.664L415.879 772.058L412.476 774.037L413.237 783.939C413.274 784.414 413.461 784.864 413.773 785.225C414.085 785.585 414.504 785.837 414.97 785.944C415.435 786.05 415.923 786.005 416.361 785.816C416.799 785.627 417.166 785.303 417.406 784.892L422.281 776.565L425.854 776.296L425.619 774.591Z" fill="#2F2E41"/>
<path d="M508.198 767.67C504.184 773.923 454.742 780.035 436.179 776.565C436.214 776.067 436.269 775.563 436.334 775.059C436.609 772.846 437.125 770.587 437.555 768.343C437.735 767.401 437.905 766.459 438.036 765.521C438.661 765.421 437.976 765.486 438.796 765.357C439.837 765.173 440.886 765.041 441.939 764.963H441.944C442.265 764.938 442.625 764.913 443.05 764.883C452.504 764.24 464.541 766.952 472.989 762.34C475.376 761.034 475.526 760.665 475.877 760.251C477.909 757.828 478.104 759.832 479.855 760.7C481.607 761.567 481.287 760.047 481.777 758.72C482.268 757.394 484.435 757.569 485.691 757.374C484.525 756.297 485.291 756.108 483.364 755.185C480.521 753.819 475.812 751.805 472.478 750.464C472.468 750.457 472.456 750.452 472.443 750.449C471.037 749.91 469.055 749.058 467.789 748.524C466.808 748.11 465.096 747.332 464.556 747.128C463.365 746.674 461.308 750.962 460.052 750.219C459.606 749.95 459.266 749.741 459.096 749.641C456.979 748.38 458.64 749.038 458.42 747.507C458.39 747.318 458.475 746.829 458.45 746.664C458.395 746.275 458.525 745.627 458.335 745.393C458.14 745.164 457.494 746.32 457.089 746.49C456.909 746.57 456.198 747.123 455.617 747.063C453.115 746.789 451.413 744.356 450.548 741.918C443.261 738.772 438.446 731.422 437.3 724.562C436.329 718.768 438.056 714.141 439.582 710.327C440.953 706.906 441.379 707.38 442.9 704.937C442.855 704.498 442.855 704.613 442.855 704.643C442.855 704.598 442.845 704.418 442.815 703.83C442.735 702.254 442.545 697.603 442.455 695.434C443.083 694.739 443.79 694.12 444.562 693.589C446.929 691.834 450.472 690.827 453.06 690.333C456.008 689.77 459.826 690.173 461.958 690.483C465.282 690.961 466.383 691.604 469.155 692.253C469.16 697.513 470.261 696.047 469.721 702.868C469.175 709.688 488.183 730.31 490.741 732.694C492.407 734.244 494.95 736.812 496.762 738.647C497.127 739.021 497.597 739.515 497.968 739.903C500.09 742.132 504.399 747.657 504.604 747.986C504.864 748.399 504.974 748.724 505.185 749.122C505.19 749.132 512.206 761.418 508.198 767.67Z" fill="#2F2E41"/>
<path d="M454.088 697.046L450.424 661.703C450.274 660.205 450.72 658.708 451.667 657.536C452.615 656.363 453.987 655.608 455.488 655.434C456.264 655.344 457.051 655.413 457.8 655.636C458.549 655.859 459.244 656.231 459.844 656.73C460.444 657.23 460.935 657.846 461.288 658.541C461.642 659.235 461.849 659.994 461.898 660.772L464.573 697.601L467.146 719.911C468.136 720.2 469.012 720.786 469.656 721.589C470.3 722.392 470.68 723.373 470.745 724.398C470.81 725.424 470.557 726.444 470.019 727.322C469.481 728.199 468.686 728.889 467.74 729.3C466.795 729.711 465.745 729.822 464.734 729.618C463.723 729.414 462.8 728.905 462.089 728.16C461.379 727.415 460.916 726.47 460.763 725.454C460.611 724.437 460.776 723.399 461.236 722.479L454.088 697.046Z" fill="#FFB6B6"/>
<path d="M447.911 669.24C447.618 669.013 447.408 668.695 447.313 668.337C447.218 667.979 447.244 667.6 447.386 667.258C447.554 666.833 447.584 666.366 447.473 665.922C447.45 665.837 447.422 665.753 447.389 665.671C447.174 665.183 447.081 664.651 447.118 664.12C447.154 663.588 447.318 663.074 447.597 662.619C448.536 661.136 448.807 659.044 448.801 657.21C448.795 655.204 448.679 653.169 449.155 651.219C449.841 648.408 452.013 645.697 455.56 646.39C457.065 646.709 458.412 647.534 459.377 648.727C461.427 651.194 461.877 654.445 462.277 657.558L462.723 656.248C463.101 659.657 464.166 662.954 465.854 665.942C465.078 665.896 464.677 666.979 465.018 667.676C465.359 668.372 466.099 668.762 466.746 669.192C467.561 669.735 468.376 670.592 467.82 671.659C467.68 671.91 467.489 672.13 467.26 672.304C467.03 672.478 466.767 672.604 466.487 672.672C461.217 674.072 455.713 674.371 450.322 673.551C449.124 673.368 447.827 673.066 447.089 672.109C446.352 671.151 446.708 669.382 447.911 669.24Z" fill="white"/>
<path d="M-618 933.771C-618 1173.86 -416.08 1368.49 -167 1368.49C82.0804 1368.49 656 1544.97 656 1304.88C656 1064.78 185 761.232 -126 724.604C-397 692.686 -618 693.681 -618 933.771Z" fill="#81C793"/>
<path d="M-20.6909 956.218C-14.8145 890.23 -143.115 789.244 -208 747L-57.4182 756.286C21.8515 803.811 171.209 910.332 134.482 956.218C97.7545 1002.1 227.524 1123.19 297 1178H125.3C74.1879 1131.57 -26.5673 1022.21 -20.6909 956.218Z" fill="#68D5F2"/>
<path d="M284.314 948.038C285.777 948.311 287.913 949.836 290.4 952.386C291.401 953.411 292.439 954.594 293.134 955.49C293.377 955.804 294.329 957.527 294.6 958.146C294.958 958.963 295.378 960.351 295.604 961.472C295.781 962.354 295.969 963.749 295.99 964.378L296 964.682L283.599 969.123L283.147 968.965C282.897 968.88 282.473 968.733 282.199 968.637C281.414 968.36 280.771 968.135 280.253 967.953C279.993 967.861 279.732 967.769 279.68 967.748C279.604 967.718 279.645 967.783 279.882 968.046C280.361 968.576 280.628 969.023 280.628 969.283C280.628 969.591 280.375 969.83 279.927 969.946C278.843 970.23 278.503 970.333 276.79 970.89C276.026 971.136 275.164 971.399 274.876 971.471C273.973 971.7 272.937 971.861 271.753 971.956C271.023 972.015 268.046 972.015 267.063 971.956C264.052 971.775 261.957 971.338 259.508 970.391C257.781 969.721 256.871 969.078 256.388 968.189C256.142 967.738 256.086 967.499 256.086 966.907C256.086 966.347 256.124 966.138 256.315 965.605C256.548 964.949 256.77 964.614 257.469 963.851C258.393 962.843 259.911 961.554 262.669 959.438C263.635 958.7 264.448 958.074 264.482 958.047C264.531 958.002 264.899 958.091 267.501 958.754C270.117 959.421 270.499 959.527 270.742 959.653C271.281 959.927 271.857 960.344 272.524 960.932C272.757 961.14 272.809 961.175 272.826 961.123C272.837 961.089 272.931 960.717 273.035 960.293C273.136 959.869 273.292 959.253 273.379 958.925C273.462 958.597 273.598 958.064 273.674 957.746C273.809 957.196 273.889 956.878 274.376 954.892C274.49 954.43 274.601 953.986 274.626 953.904C274.661 953.774 274.747 953.678 275.38 953.097C277.273 951.36 279.006 950.031 280.562 949.138C282.081 948.267 283.425 947.87 284.314 948.038Z" fill="#8B7CA6"/>
<path d="M270.854 959.803L280.434 969.246C281.229 968.932 275.226 963.388 272.089 960.623L270.854 959.803Z" fill="#8B7CA6"/>
<path d="M272.052 960.59L272.089 960.623M272.089 960.623C275.226 963.388 281.229 968.932 280.434 969.246L270.854 959.803L272.089 960.623ZM295.601 964.721C295.401 962.426 294.603 957.443 293.006 955.869C290.452 952.092 285.822 949.049 283.826 948M264.468 958.033C262.339 959.541 257.763 963.03 256.485 964.918C255.208 966.807 256.751 968.852 257.683 969.639M284.314 948.038C285.777 948.311 287.913 949.836 290.4 952.386C291.401 953.411 292.439 954.594 293.134 955.49C293.377 955.804 294.329 957.527 294.6 958.146C294.958 958.963 295.378 960.351 295.604 961.472C295.781 962.354 295.969 963.749 295.99 964.378L296 964.682L283.599 969.123L283.147 968.965C282.897 968.88 282.473 968.733 282.199 968.637C281.414 968.36 280.771 968.135 280.253 967.953C279.993 967.861 279.732 967.769 279.68 967.748C279.604 967.718 279.645 967.783 279.882 968.046C280.361 968.576 280.628 969.023 280.628 969.283C280.628 969.591 280.375 969.83 279.927 969.946C278.843 970.23 278.503 970.333 276.79 970.89C276.026 971.136 275.164 971.399 274.876 971.471C273.973 971.7 272.937 971.861 271.753 971.956C271.023 972.015 268.046 972.015 267.063 971.956C264.052 971.775 261.957 971.338 259.508 970.391C257.781 969.721 256.871 969.078 256.388 968.189C256.142 967.738 256.086 967.499 256.086 966.907C256.086 966.347 256.124 966.138 256.315 965.605C256.548 964.949 256.77 964.614 257.469 963.851C258.393 962.843 259.911 961.554 262.669 959.438C263.635 958.7 264.448 958.074 264.482 958.047C264.531 958.002 264.899 958.091 267.501 958.754C270.117 959.421 270.499 959.527 270.742 959.653C271.281 959.927 271.857 960.344 272.524 960.932C272.757 961.14 272.809 961.175 272.826 961.123C272.837 961.089 272.931 960.717 273.035 960.293C273.136 959.869 273.292 959.253 273.379 958.925C273.462 958.597 273.598 958.064 273.674 957.746C273.809 957.196 273.889 956.878 274.376 954.892C274.49 954.43 274.601 953.986 274.626 953.904C274.661 953.774 274.747 953.678 275.38 953.097C277.273 951.36 279.006 950.031 280.562 949.138C282.081 948.267 283.425 947.87 284.314 948.038Z" stroke="#75688C"/>
<path fill-rule="evenodd" clip-rule="evenodd" d="M417.914 499H-379C-371.98 456.999 -312.329 424.197 -239.781 424.197C-216.73 424.197 -194.982 427.508 -175.809 433.374C-157.91 404.558 -126.248 385.41 -90.1744 385.41C-72.2404 385.41 -55.3967 390.142 -40.7925 398.443C-14.7028 357.284 30.9828 330 82.9813 330C153.242 330 211.977 379.813 226.417 446.362C243.501 442.802 262.475 440.82 282.457 440.82C354.391 440.82 413.257 466.51 417.914 499Z" fill="#7095F4"/>
</g>
<defs>
<clipPath id="clip0_13_187">
<rect width="960" height="1099" fill="white"/>
</clipPath>
</defs>
</svg>
