<svg width="290" height="67" viewBox="0 0 290 67" fill="none" xmlns="http://www.w3.org/2000/svg">
<path fill-rule="evenodd" clip-rule="evenodd" d="M289.358 64.3352V64.2684C289.328 47.6371 266.623 34.1603 238.62 34.1603C230.261 34.1603 222.374 35.3613 215.421 37.4885C208.93 27.0383 197.448 20.0943 184.365 20.0943C177.862 20.0943 171.753 21.8106 166.457 24.8206C156.996 9.89438 140.428 0 121.571 0C96.0907 0 74.7905 18.0647 69.5538 42.1985C63.3584 40.9076 56.4776 40.1886 49.2311 40.1886C22.0415 40.1886 0 50.3097 0 62.7947C0 64.2318 0.292023 65.6375 0.85025 67H289.158C289.289 66.122 289.357 65.2332 289.358 64.3352Z" fill="#B7C8F4"/>
</svg>
