<svg width="1000" height="760" viewBox="0 0 1000 760" fill="none" xmlns="http://www.w3.org/2000/svg">
<g clip-path="url(#clip0_22_70)">
<path d="M880 380C880 589.868 709.868 760 500 760C290.132 760 120 589.868 120 380C120 170.132 290.132 0 500 0C709.868 0 880 170.132 880 380Z" fill="#EFF5E3"/>
<path d="M998.555 735.825H1.44509C1.06183 735.825 0.694261 735.673 0.423255 735.402C0.152249 735.131 0 734.763 0 734.38C0 733.997 0.152249 733.629 0.423255 733.358C0.694261 733.087 1.06183 732.935 1.44509 732.935H998.555C998.938 732.935 999.306 733.087 999.577 733.358C999.848 733.629 1000 733.997 1000 734.38C1000 734.763 999.848 735.131 999.577 735.402C999.306 735.673 998.938 735.825 998.555 735.825Z" fill="#363636"/>
<path d="M899.862 483.8H313.157C310.665 483.8 308.276 484.789 306.515 486.551C304.753 488.312 303.764 490.702 303.764 493.193C303.764 495.684 304.753 498.073 306.515 499.835C308.276 501.596 310.665 502.586 313.157 502.586H329.775V727.297C329.775 729.788 330.765 732.177 332.526 733.939C334.288 735.7 336.677 736.69 339.168 736.69C341.659 736.69 344.049 735.7 345.81 733.939C347.572 732.177 348.561 729.788 348.561 727.297L348.704 502.586H863.012V727.297C863.012 729.788 864.002 732.177 865.763 733.939C867.525 735.7 869.914 736.69 872.405 736.69C874.896 736.69 877.285 735.7 879.047 733.939C880.809 732.177 881.798 729.788 881.798 727.297V507.539L884.531 502.586H899.862C902.353 502.586 904.742 501.596 906.504 499.835C908.265 498.073 909.255 495.684 909.255 493.193C909.255 490.702 908.265 488.312 906.504 486.551C904.742 484.789 902.353 483.8 899.862 483.8Z" fill="#363636"/>
<path d="M638.431 488.715H460.711C457.27 488.712 453.971 487.343 451.538 484.91C449.104 482.476 447.736 479.177 447.732 475.736V377.89C447.736 374.449 449.104 371.15 451.538 368.717C453.971 366.284 457.27 364.915 460.711 364.911H638.431C641.872 364.915 645.171 366.284 647.604 368.717C650.038 371.15 651.406 374.449 651.41 377.89V475.736C651.406 479.177 650.038 482.476 647.604 484.91C645.171 487.343 641.872 488.712 638.431 488.715Z" fill="#363636"/>
<path d="M638.43 374.9H460.712C459.92 374.902 459.16 375.218 458.599 375.778C458.038 376.339 457.723 377.099 457.721 377.892V475.738C457.723 476.531 458.039 477.291 458.599 477.852C459.16 478.412 459.92 478.728 460.712 478.73H638.43C639.223 478.728 639.982 478.412 640.543 477.852C641.104 477.291 641.419 476.531 641.421 475.738V377.892C641.419 377.099 641.104 376.339 640.543 375.778C639.982 375.218 639.223 374.902 638.43 374.9Z" fill="white"/>
<path d="M564.728 444.175C564.728 444.175 543.453 439.273 531.752 448.26C520.051 457.248 546.645 477.675 546.645 477.675L564.728 444.175Z" fill="#363636"/>
<path d="M550.613 434.912C561.696 434.912 570.681 425.928 570.681 414.844C570.681 403.761 561.696 394.776 550.613 394.776C539.53 394.776 530.545 403.761 530.545 414.844C530.545 425.928 539.53 434.912 550.613 434.912Z" fill="#A0616A"/>
<path d="M535.095 386.674C536.433 384.402 538.373 382.545 540.7 381.307C543.028 380.068 545.652 379.497 548.283 379.657C551.036 380.002 553.722 380.754 556.254 381.888L569.373 387.005C572.767 388.329 576.485 389.951 577.958 393.284C579.326 396.377 578.306 399.95 577.273 403.17L572.365 418.479C571.821 415.014 570.888 411.622 569.583 408.366C568.257 405.089 565.861 402.357 562.785 400.615C559.377 398.867 555.361 398.903 551.535 399.087C546.118 399.348 540.227 400.037 536.377 403.858C534.334 406.029 532.949 408.734 532.383 411.661C531.825 414.572 531.545 417.529 531.545 420.493C529.323 416.674 527.452 412.662 525.953 408.505C524.721 405.41 524.018 402.13 523.876 398.802C523.747 395.445 524.86 392.159 527.004 389.572C528.091 388.308 529.511 387.373 531.102 386.872C532.692 386.371 534.391 386.325 536.007 386.738L535.095 386.674Z" fill="#363636"/>
<path d="M598.53 461.577C598.342 460.899 597.958 460.292 597.425 459.832C596.893 459.371 596.237 459.079 595.539 458.99C595.493 458.958 595.445 458.929 595.395 458.903L565.436 442.114C564.581 441.635 563.573 441.503 562.623 441.748C561.674 441.992 560.855 442.594 560.337 443.426L552.144 456.692L539.606 444.155C538.973 443.522 538.137 443.132 537.245 443.054C536.352 442.976 535.461 443.215 534.727 443.728L510.106 460.97C510.063 460.97 510.019 460.984 509.976 460.984C508.798 461.181 507.721 461.773 506.925 462.664C506.129 463.555 505.66 464.69 505.597 465.883L504.961 478.73H603.285L598.53 461.577Z" fill="#C5EB67"/>
<path d="M653.407 476.734H634.437C634.437 476.205 634.227 475.697 633.852 475.322C633.478 474.948 632.97 474.738 632.44 474.738H626.45C625.92 474.738 625.412 474.948 625.038 475.322C624.663 475.697 624.453 476.205 624.453 476.734H618.462C618.462 476.205 618.252 475.697 617.877 475.322C617.503 474.948 616.995 474.738 616.465 474.738H610.475C609.945 474.738 609.437 474.948 609.063 475.322C608.688 475.697 608.478 476.205 608.478 476.734H602.487C602.487 476.205 602.277 475.697 601.903 475.322C601.528 474.948 601.02 474.738 600.491 474.738H594.5C593.97 474.738 593.463 474.948 593.088 475.322C592.714 475.697 592.503 476.205 592.503 476.734H586.513C586.513 476.205 586.302 475.697 585.928 475.322C585.553 474.948 585.045 474.738 584.516 474.738H578.525C577.996 474.738 577.488 474.948 577.113 475.322C576.739 475.697 576.529 476.205 576.529 476.734H570.538C570.538 476.205 570.328 475.697 569.953 475.322C569.579 474.948 569.071 474.738 568.541 474.738H562.551C562.021 474.738 561.513 474.948 561.139 475.322C560.764 475.697 560.554 476.205 560.554 476.734H554.563C554.563 476.205 554.353 475.697 553.978 475.322C553.604 474.948 553.096 474.738 552.566 474.738H546.576C546.046 474.738 545.538 474.948 545.164 475.322C544.789 475.697 544.579 476.205 544.579 476.734H538.588C538.588 476.205 538.378 475.697 538.003 475.322C537.629 474.948 537.121 474.738 536.592 474.738H530.601C530.071 474.738 529.564 474.948 529.189 475.322C528.815 475.697 528.604 476.205 528.604 476.734H522.614C522.614 476.205 522.403 475.697 522.029 475.322C521.654 474.948 521.146 474.738 520.617 474.738H514.626C514.097 474.738 513.589 474.948 513.214 475.322C512.84 475.697 512.629 476.205 512.629 476.734H506.639C506.639 476.205 506.428 475.697 506.054 475.322C505.679 474.948 505.172 474.738 504.642 474.738H498.651C498.122 474.738 497.614 474.948 497.24 475.322C496.865 475.697 496.655 476.205 496.655 476.734H490.664C490.664 476.205 490.454 475.697 490.079 475.322C489.705 474.948 489.197 474.738 488.667 474.738H482.677C482.147 474.738 481.639 474.948 481.265 475.322C480.89 475.697 480.68 476.205 480.68 476.734H474.689C474.689 476.205 474.479 475.697 474.104 475.322C473.73 474.948 473.222 474.738 472.693 474.738H466.702C466.172 474.738 465.664 474.948 465.29 475.322C464.915 475.697 464.705 476.205 464.705 476.734H445.735C444.148 476.737 442.626 477.369 441.505 478.492C440.384 479.615 439.754 481.138 439.754 482.725C439.754 484.312 440.384 485.834 441.505 486.958C442.626 488.081 444.148 488.713 445.735 488.715H653.407C654.996 488.715 656.52 488.084 657.643 486.961C658.767 485.837 659.398 484.314 659.398 482.725C659.398 481.136 658.767 479.612 657.643 478.489C656.52 477.366 654.996 476.734 653.407 476.734Z" fill="#363636"/>
<path d="M414.854 441.945V481.723H315.198C312.528 481.816 309.866 481.37 307.372 480.412C304.878 479.455 302.602 478.004 300.681 476.148C298.759 474.292 297.231 472.069 296.187 469.609C295.143 467.15 294.605 464.506 294.605 461.834C294.605 459.162 295.143 456.518 296.187 454.059C297.231 451.6 298.759 449.376 300.681 447.52C302.602 445.664 304.878 444.214 307.372 443.256C309.866 442.298 312.528 441.853 315.198 441.945H414.854Z" fill="#F5F5F5"/>
<path d="M417.302 481.417C417.302 481.822 417.141 482.211 416.854 482.498C416.567 482.785 416.178 482.946 415.772 482.946H313.423C307.864 482.946 302.533 480.738 298.602 476.808C294.671 472.877 292.463 467.546 292.463 461.987C292.463 456.428 294.671 451.097 298.602 447.166C302.533 443.236 307.864 441.028 313.423 441.028H415.772C416.178 441.028 416.567 441.189 416.854 441.476C417.141 441.763 417.302 442.152 417.302 442.557C417.302 442.963 417.141 443.352 416.854 443.639C416.567 443.926 416.178 444.087 415.772 444.087H313.423C308.678 444.092 304.129 445.979 300.776 449.336C297.423 452.692 295.539 457.243 295.539 461.987C295.539 466.732 297.423 471.282 300.776 474.638C304.129 477.995 308.678 479.882 313.423 479.887H415.772C416.178 479.887 416.567 480.048 416.854 480.335C417.141 480.622 417.302 481.011 417.302 481.417Z" fill="#C5EB67"/>
<path d="M414.854 451.125H307.762C307.722 451.125 307.682 451.117 307.644 451.102C307.607 451.087 307.573 451.064 307.544 451.036C307.516 451.007 307.493 450.974 307.477 450.936C307.462 450.899 307.454 450.859 307.454 450.819C307.454 450.778 307.462 450.738 307.477 450.701C307.493 450.664 307.516 450.63 307.544 450.602C307.573 450.573 307.607 450.551 307.644 450.536C307.682 450.52 307.722 450.513 307.762 450.513H414.854C414.935 450.513 415.012 450.546 415.069 450.603C415.126 450.661 415.158 450.738 415.158 450.819C415.158 450.9 415.126 450.977 415.069 451.034C415.012 451.092 414.935 451.124 414.854 451.125Z" fill="#CCCCCC"/>
<path d="M414.854 458.468H307.762C307.722 458.469 307.682 458.461 307.644 458.446C307.607 458.43 307.573 458.408 307.544 458.379C307.516 458.351 307.493 458.317 307.477 458.28C307.462 458.243 307.454 458.203 307.454 458.162C307.454 458.122 307.462 458.082 307.477 458.045C307.493 458.007 307.516 457.974 307.544 457.945C307.573 457.917 307.607 457.894 307.644 457.879C307.682 457.864 307.722 457.856 307.762 457.856H414.854C414.935 457.857 415.012 457.889 415.069 457.947C415.126 458.004 415.158 458.082 415.158 458.162C415.158 458.243 415.126 458.321 415.069 458.378C415.012 458.435 414.935 458.468 414.854 458.468Z" fill="#CCCCCC"/>
<path d="M414.854 465.812H307.762C307.722 465.812 307.682 465.804 307.644 465.789C307.607 465.774 307.573 465.751 307.544 465.723C307.516 465.694 307.493 465.661 307.477 465.623C307.462 465.586 307.454 465.546 307.454 465.506C307.454 465.465 307.462 465.425 307.477 465.388C307.493 465.351 307.516 465.317 307.544 465.289C307.573 465.26 307.607 465.238 307.644 465.222C307.682 465.207 307.722 465.2 307.762 465.2H414.854C414.935 465.2 415.012 465.233 415.069 465.29C415.126 465.347 415.158 465.425 415.158 465.506C415.158 465.587 415.126 465.664 415.069 465.721C415.012 465.779 414.935 465.811 414.854 465.812Z" fill="#CCCCCC"/>
<path d="M414.854 473.155H307.762C307.722 473.155 307.682 473.148 307.644 473.132C307.607 473.117 307.573 473.095 307.544 473.066C307.516 473.038 307.493 473.004 307.477 472.967C307.462 472.929 307.454 472.889 307.454 472.849C307.454 472.809 307.462 472.769 307.477 472.732C307.493 472.694 307.516 472.661 307.544 472.632C307.573 472.604 307.607 472.581 307.644 472.566C307.682 472.551 307.722 472.543 307.762 472.543H414.854C414.935 472.544 415.012 472.576 415.069 472.634C415.126 472.691 415.158 472.768 415.158 472.849C415.158 472.93 415.126 473.007 415.069 473.065C415.012 473.122 414.935 473.155 414.854 473.155Z" fill="#CCCCCC"/>
<path d="M396.068 400.038V439.815H296.412C293.742 439.908 291.08 439.462 288.586 438.505C286.092 437.547 283.816 436.097 281.895 434.241C279.973 432.385 278.445 430.161 277.401 427.702C276.357 425.242 275.819 422.598 275.819 419.927C275.819 417.255 276.357 414.611 277.401 412.151C278.445 409.692 279.973 407.468 281.895 405.612C283.816 403.756 286.092 402.306 288.586 401.348C291.08 400.391 293.742 399.945 296.412 400.038H396.068Z" fill="#F5F5F5"/>
<path d="M398.516 439.509C398.516 439.915 398.355 440.304 398.068 440.591C397.781 440.878 397.392 441.039 396.986 441.039H294.637C291.884 441.039 289.159 440.497 286.616 439.443C284.073 438.39 281.762 436.846 279.816 434.9C277.87 432.954 276.326 430.643 275.273 428.1C274.219 425.557 273.677 422.832 273.677 420.079C273.677 417.327 274.219 414.602 275.273 412.059C276.326 409.516 277.87 407.205 279.816 405.259C281.762 403.313 284.073 401.769 286.616 400.715C289.159 399.662 291.884 399.12 294.637 399.12H396.986C397.392 399.12 397.781 399.281 398.068 399.568C398.355 399.855 398.516 400.244 398.516 400.65C398.516 401.056 398.355 401.445 398.068 401.732C397.781 402.019 397.392 402.18 396.986 402.18H294.637C289.892 402.184 285.343 404.072 281.99 407.428C278.637 410.785 276.753 415.335 276.753 420.079C276.753 424.824 278.637 429.374 281.99 432.731C285.343 436.087 289.892 437.975 294.637 437.979H396.986C397.392 437.979 397.781 438.141 398.068 438.427C398.354 438.714 398.516 439.103 398.516 439.509Z" fill="#3F3D56"/>
<path d="M396.068 409.217H288.976C288.936 409.218 288.896 409.21 288.858 409.195C288.821 409.179 288.787 409.157 288.758 409.128C288.73 409.1 288.707 409.066 288.691 409.029C288.676 408.992 288.668 408.952 288.668 408.911C288.668 408.871 288.676 408.831 288.691 408.794C288.707 408.756 288.73 408.723 288.758 408.694C288.787 408.666 288.821 408.643 288.858 408.628C288.896 408.613 288.936 408.605 288.976 408.605H396.068C396.149 408.606 396.226 408.638 396.283 408.696C396.34 408.753 396.372 408.831 396.372 408.911C396.372 408.992 396.34 409.07 396.283 409.127C396.226 409.184 396.149 409.217 396.068 409.217Z" fill="#CCCCCC"/>
<path d="M396.068 416.561H288.976C288.936 416.561 288.896 416.553 288.858 416.538C288.821 416.523 288.787 416.5 288.758 416.472C288.73 416.443 288.707 416.41 288.691 416.372C288.676 416.335 288.668 416.295 288.668 416.255C288.668 416.214 288.676 416.174 288.691 416.137C288.707 416.1 288.73 416.066 288.758 416.038C288.787 416.009 288.821 415.987 288.858 415.971C288.896 415.956 288.936 415.949 288.976 415.949H396.068C396.149 415.949 396.226 415.982 396.283 416.039C396.34 416.096 396.372 416.174 396.372 416.255C396.372 416.336 396.34 416.413 396.283 416.47C396.226 416.528 396.149 416.56 396.068 416.561Z" fill="#CCCCCC"/>
<path d="M396.068 423.904H288.976C288.936 423.904 288.896 423.897 288.858 423.882C288.821 423.866 288.787 423.844 288.758 423.815C288.73 423.787 288.707 423.753 288.691 423.716C288.676 423.679 288.668 423.639 288.668 423.598C288.668 423.558 288.676 423.518 288.691 423.481C288.707 423.443 288.73 423.41 288.758 423.381C288.787 423.353 288.821 423.33 288.858 423.315C288.896 423.3 288.936 423.292 288.976 423.292H396.068C396.149 423.293 396.226 423.325 396.283 423.383C396.34 423.44 396.372 423.517 396.372 423.598C396.372 423.679 396.34 423.757 396.283 423.814C396.226 423.871 396.149 423.904 396.068 423.904Z" fill="#CCCCCC"/>
<path d="M396.068 431.248H288.976C288.936 431.248 288.896 431.24 288.858 431.225C288.821 431.21 288.787 431.187 288.758 431.159C288.73 431.13 288.707 431.096 288.691 431.059C288.676 431.022 288.668 430.982 288.668 430.942C288.668 430.901 288.676 430.861 288.691 430.824C288.707 430.787 288.73 430.753 288.758 430.725C288.787 430.696 288.821 430.674 288.858 430.658C288.896 430.643 288.936 430.635 288.976 430.636H396.068C396.149 430.636 396.226 430.669 396.283 430.726C396.34 430.783 396.372 430.861 396.372 430.942C396.372 431.022 396.34 431.1 396.283 431.157C396.226 431.215 396.149 431.247 396.068 431.248Z" fill="#CCCCCC"/>
<path d="M511.999 623.108V588.426C511.999 586.893 511.39 585.423 510.306 584.339C509.222 583.255 507.751 582.646 506.218 582.646H374.716C373.183 582.646 371.712 583.255 370.628 584.339C369.544 585.423 368.935 586.893 368.935 588.426V623.108H511.999Z" fill="#363636"/>
<path d="M511.999 636.114H368.935V680.912H511.999V636.114Z" fill="#363636"/>
<path d="M368.935 693.918V728.6C368.935 730.133 369.544 731.603 370.628 732.687C371.712 733.771 373.183 734.38 374.716 734.38H506.218C507.751 734.38 509.222 733.771 510.306 732.687C511.39 731.603 511.999 730.133 511.999 728.6V693.918H368.935Z" fill="#363636"/>
<path d="M439.744 608.658C442.139 608.658 444.08 606.717 444.08 604.322C444.08 601.928 442.139 599.987 439.744 599.987C437.35 599.987 435.409 601.928 435.409 604.322C435.409 606.717 437.35 608.658 439.744 608.658Z" fill="white"/>
<path d="M439.744 666.461C442.139 666.461 444.08 664.52 444.08 662.126C444.08 659.732 442.139 657.791 439.744 657.791C437.35 657.791 435.409 659.732 435.409 662.126C435.409 664.52 437.35 666.461 439.744 666.461Z" fill="white"/>
<path d="M439.977 723.041C442.371 723.041 444.312 721.1 444.312 718.705C444.312 716.311 442.371 714.37 439.977 714.37C437.582 714.37 435.642 716.311 435.642 718.705C435.642 721.1 437.582 723.041 439.977 723.041Z" fill="white"/>
<path d="M495.779 543.102V582.879H396.123C393.453 582.972 390.791 582.526 388.297 581.568C385.803 580.611 383.527 579.161 381.605 577.305C379.684 575.449 378.156 573.225 377.112 570.765C376.068 568.306 375.53 565.662 375.53 562.99C375.53 560.318 376.068 557.674 377.112 555.215C378.156 552.756 379.684 550.532 381.605 548.676C383.527 546.82 385.803 545.37 388.297 544.412C390.791 543.454 393.453 543.009 396.123 543.102H495.779Z" fill="#F5F5F5"/>
<path d="M498.227 582.573C498.227 582.978 498.066 583.367 497.779 583.654C497.492 583.941 497.103 584.102 496.697 584.103H394.348C391.594 584.105 388.866 583.564 386.321 582.512C383.776 581.46 381.464 579.916 379.516 577.97C377.568 576.023 376.022 573.712 374.968 571.168C373.913 568.624 373.371 565.897 373.371 563.143C373.371 560.389 373.913 557.662 374.968 555.118C376.022 552.574 377.568 550.263 379.516 548.316C381.464 546.37 383.776 544.826 386.321 543.774C388.866 542.722 391.594 542.181 394.348 542.184H496.697C497.103 542.184 497.492 542.345 497.779 542.632C498.066 542.919 498.227 543.308 498.227 543.714C498.227 544.119 498.066 544.508 497.779 544.795C497.492 545.082 497.103 545.243 496.697 545.243H394.348C389.603 545.248 385.054 547.135 381.701 550.492C378.348 553.848 376.464 558.399 376.464 563.143C376.464 567.888 378.348 572.438 381.701 575.794C385.054 579.151 389.603 581.039 394.348 581.043H496.697C497.103 581.043 497.492 581.204 497.779 581.491C498.065 581.778 498.227 582.167 498.227 582.573Z" fill="#3F3D56"/>
<path d="M495.779 552.281H388.687C388.647 552.281 388.607 552.273 388.569 552.258C388.532 552.243 388.498 552.22 388.469 552.192C388.441 552.164 388.418 552.13 388.402 552.092C388.387 552.055 388.379 552.015 388.379 551.975C388.379 551.934 388.387 551.895 388.402 551.857C388.418 551.82 388.441 551.786 388.469 551.758C388.498 551.729 388.532 551.707 388.569 551.692C388.607 551.676 388.647 551.669 388.687 551.669H495.779C495.86 551.669 495.937 551.702 495.994 551.759C496.051 551.817 496.083 551.894 496.083 551.975C496.083 552.056 496.051 552.133 495.994 552.19C495.937 552.248 495.86 552.28 495.779 552.281Z" fill="#CCCCCC"/>
<path d="M495.779 559.624H388.687C388.647 559.625 388.607 559.617 388.569 559.602C388.532 559.586 388.498 559.564 388.469 559.535C388.441 559.507 388.418 559.473 388.402 559.436C388.387 559.399 388.379 559.359 388.379 559.318C388.379 559.278 388.387 559.238 388.402 559.201C388.418 559.164 388.441 559.13 388.469 559.101C388.498 559.073 388.532 559.05 388.569 559.035C388.607 559.02 388.647 559.012 388.687 559.012H495.779C495.86 559.013 495.937 559.045 495.994 559.103C496.051 559.16 496.083 559.238 496.083 559.318C496.083 559.399 496.051 559.477 495.994 559.534C495.937 559.591 495.86 559.624 495.779 559.624Z" fill="#CCCCCC"/>
<path d="M495.779 566.968H388.687C388.647 566.968 388.607 566.96 388.569 566.945C388.532 566.93 388.498 566.907 388.469 566.879C388.441 566.85 388.418 566.817 388.402 566.779C388.387 566.742 388.379 566.702 388.379 566.662C388.379 566.621 388.387 566.582 388.402 566.544C388.418 566.507 388.441 566.473 388.469 566.445C388.498 566.416 388.532 566.394 388.569 566.379C388.607 566.363 388.647 566.356 388.687 566.356H495.779C495.86 566.356 495.937 566.389 495.994 566.446C496.051 566.503 496.083 566.581 496.083 566.662C496.083 566.743 496.051 566.82 495.994 566.877C495.937 566.935 495.86 566.967 495.779 566.968Z" fill="#CCCCCC"/>
<path d="M495.779 574.311H388.687C388.647 574.311 388.607 574.304 388.569 574.289C388.532 574.273 388.498 574.251 388.469 574.222C388.441 574.194 388.418 574.16 388.402 574.123C388.387 574.085 388.379 574.046 388.379 574.005C388.379 573.965 388.387 573.925 388.402 573.888C388.418 573.85 388.441 573.817 388.469 573.788C388.498 573.76 388.532 573.737 388.569 573.722C388.607 573.707 388.647 573.699 388.687 573.699H495.779C495.86 573.7 495.937 573.732 495.994 573.79C496.051 573.847 496.083 573.924 496.083 574.005C496.083 574.086 496.051 574.164 495.994 574.221C495.937 574.278 495.86 574.311 495.779 574.311Z" fill="#CCCCCC"/>
<path d="M361.431 283.482V29.8691C361.434 26.9875 362.581 24.2248 364.618 22.1871C366.656 20.1495 369.419 19.0033 372.3 19H572.775C575.657 19.0033 578.419 20.1495 580.457 22.1871C582.495 24.2248 583.641 26.9875 583.644 29.8691V283.482C583.641 286.363 582.495 289.126 580.457 291.164C578.419 293.201 575.657 294.348 572.775 294.351H372.3C369.419 294.348 366.656 293.201 364.618 291.164C362.581 289.126 361.434 286.363 361.431 283.482ZM372.3 21.4154C370.059 21.4179 367.91 22.3093 366.325 23.8942C364.741 25.479 363.849 27.6278 363.846 29.8691V283.482C363.849 285.723 364.741 287.872 366.325 289.457C367.91 291.042 370.059 291.933 372.3 291.936H572.775C575.016 291.933 577.165 291.042 578.75 289.457C580.335 287.872 581.226 285.723 581.229 283.482V29.8691C581.226 27.6278 580.335 25.479 578.75 23.8942C577.165 22.3093 575.016 21.4179 572.775 21.4154H372.3Z" fill="#363636"/>
<path d="M483.78 135.471V83.396C483.781 81.9551 484.354 80.5738 485.373 79.5549C486.392 78.5361 487.773 77.963 489.214 77.9614H533.343C534.784 77.963 536.165 78.5361 537.184 79.5549C538.203 80.5738 538.776 81.9551 538.777 83.396V135.471C538.776 136.912 538.203 138.293 537.184 139.312C536.165 140.331 534.784 140.904 533.343 140.905H489.214C487.773 140.904 486.392 140.331 485.373 139.312C484.354 138.293 483.781 136.912 483.78 135.471Z" fill="#C5EB67"/>
<path d="M398.034 159.624V107.55C398.036 106.109 398.609 104.727 399.628 103.709C400.647 102.69 402.028 102.117 403.469 102.115H447.598C449.038 102.117 450.42 102.69 451.439 103.709C452.457 104.727 453.031 106.109 453.032 107.55V159.624C453.031 161.065 452.457 162.447 451.439 163.465C450.42 164.484 449.038 165.057 447.598 165.059H403.469C402.028 165.057 400.647 164.484 399.628 163.465C398.609 162.447 398.036 161.065 398.034 159.624Z" fill="#363636"/>
<path d="M466.872 233.293V181.218C466.874 179.777 467.447 178.396 468.466 177.377C469.484 176.358 470.866 175.785 472.307 175.783H516.435C517.876 175.785 519.257 176.358 520.276 177.377C521.295 178.396 521.868 179.777 521.87 181.218V233.293C521.868 234.734 521.295 236.115 520.276 237.134C519.257 238.153 517.876 238.726 516.435 238.727H472.307C470.866 238.726 469.484 238.153 468.466 237.134C467.447 236.115 466.874 234.734 466.872 233.293Z" fill="#C5EB67"/>
<path d="M730.582 471.374H685.178C684.747 471.374 684.322 471.473 683.935 471.663L672.475 477.4C672.098 477.561 671.777 477.828 671.551 478.17C671.325 478.512 671.204 478.913 671.204 479.322C671.204 479.732 671.325 480.133 671.551 480.475C671.777 480.816 672.098 481.084 672.475 481.244L683.935 486.981C684.322 487.172 684.747 487.271 685.178 487.27H730.582C731.208 487.307 731.823 487.095 732.293 486.681C732.764 486.267 733.053 485.685 733.097 485.059V473.585C733.053 472.96 732.764 472.378 732.293 471.964C731.823 471.55 731.208 471.338 730.582 471.374Z" fill="#3F3D56"/>
<path d="M733.097 473.585V485.059C733.053 485.685 732.764 486.267 732.293 486.681C731.823 487.095 731.208 487.307 730.582 487.27H721.536V471.374H730.582C731.208 471.338 731.823 471.55 732.293 471.964C732.764 472.378 733.053 472.96 733.097 473.585Z" fill="#C5EB67"/>
<path d="M730.241 385.536C732.297 384.648 734.518 384.205 736.758 384.236C738.998 384.267 741.206 384.77 743.237 385.714C745.269 386.657 747.078 388.019 748.547 389.71C750.015 391.402 751.11 393.384 751.759 395.528C751.961 396.208 752.115 396.901 752.221 397.602L815.716 429.088L830.41 419.35L848.693 440.398L826.256 458.62C823.558 460.795 820.231 462.041 816.768 462.174C813.306 462.308 809.892 461.322 807.035 459.362L742.614 414.812C742.135 415.016 741.645 415.194 741.147 415.347C739.003 415.996 736.746 416.184 734.524 415.899C732.302 415.614 730.165 414.864 728.254 413.696C726.342 412.528 724.699 410.969 723.432 409.121C722.165 407.274 721.302 405.18 720.901 402.976C720.782 402.336 720.704 401.69 720.666 401.04C720.487 397.787 721.309 394.558 723.021 391.786C724.733 389.014 727.252 386.833 730.241 385.536Z" fill="#FFB8B8"/>
<path d="M862.487 579.393H793.109C793.109 581.387 721.606 583.005 721.606 583.005C720.484 583.85 719.461 584.82 718.557 585.895C715.841 589.135 714.357 593.229 714.366 597.456V600.346C714.368 605.136 716.271 609.73 719.658 613.117C723.046 616.504 727.639 618.408 732.429 618.41H862.487C867.277 618.406 871.869 616.501 875.255 613.115C878.642 609.728 880.547 605.136 880.551 600.346V597.456C880.544 592.667 878.639 588.077 875.253 584.691C871.867 581.304 867.276 579.399 862.487 579.393Z" fill="#363636"/>
<path d="M787.019 739.08H805.806V617.692H787.019V739.08Z" fill="#363636"/>
<path d="M733.551 738.42C733.551 740.449 762.019 739.205 797.135 739.205C832.251 739.205 860.719 740.449 860.719 738.42C860.719 736.39 832.251 720.293 797.135 720.293C762.019 720.293 733.551 736.39 733.551 738.42Z" fill="#363636"/>
<path d="M750.51 724.192L732.795 724.191L724.366 678.241L750.513 678.243L750.51 724.192Z" fill="#FFB8B8"/>
<path d="M755.029 741.365L697.904 741.363V740.641C697.904 737.721 698.479 734.829 699.596 732.132C700.713 729.434 702.351 726.983 704.416 724.918C706.481 722.854 708.932 721.216 711.63 720.098C714.327 718.981 717.218 718.406 720.138 718.406L755.03 718.407L755.029 741.365Z" fill="#2F2E41"/>
<path d="M724.012 695.698L688.693 616.496C685.744 609.821 685.418 602.279 687.78 595.374C690.142 588.469 695.018 582.707 701.437 579.236L778.046 538.155L813.004 535.182L845.251 532.251L845.483 532.644C845.781 533.147 852.714 545.122 848.027 558.254C844.473 568.214 835.226 575.994 820.544 581.378C786.274 593.944 746.687 604.683 731.257 608.716C730.575 608.891 729.938 609.207 729.387 609.646C728.836 610.084 728.385 610.634 728.062 611.259C727.738 611.877 727.545 612.556 727.497 613.252C727.448 613.948 727.544 614.647 727.778 615.304L760.591 689.024C760.934 689.959 761.057 690.961 760.952 691.951C760.846 692.941 760.515 693.894 759.983 694.736C759.451 695.577 758.733 696.286 757.884 696.806C757.035 697.327 756.078 697.645 755.086 697.737L730.568 699.522C730.36 699.542 730.153 699.552 729.946 699.552C728.691 699.552 727.462 699.187 726.409 698.503C725.356 697.819 724.523 696.845 724.012 695.698Z" fill="#2F2E41"/>
<path d="M759.181 724.192L741.465 724.191L733.036 678.241L759.184 678.243L759.181 724.192Z" fill="#FFB8B8"/>
<path d="M763.699 741.365L706.574 741.363V740.641C706.574 737.721 707.149 734.829 708.267 732.132C709.384 729.434 711.022 726.983 713.086 724.918C715.151 722.854 717.602 721.216 720.3 720.098C722.998 718.981 725.889 718.406 728.809 718.406L763.7 718.407L763.699 741.365Z" fill="#2F2E41"/>
<path d="M734.128 700.033L698.809 620.831C695.86 614.156 695.534 606.615 697.896 599.71C700.257 592.805 705.133 587.042 711.552 583.571L788.161 542.49L823.12 539.517L855.366 536.586L855.599 536.98C855.896 537.482 862.83 549.458 858.143 562.589C854.588 572.549 845.341 580.329 830.659 585.713C796.39 598.279 756.802 609.018 741.373 613.051C740.691 613.226 740.053 613.543 739.503 613.981C738.952 614.419 738.5 614.969 738.177 615.594C737.853 616.212 737.661 616.891 737.612 617.587C737.563 618.283 737.659 618.982 737.894 619.639L770.706 693.36C771.049 694.295 771.173 695.296 771.067 696.286C770.962 697.276 770.63 698.229 770.098 699.071C769.567 699.913 768.848 700.621 767.999 701.141C767.15 701.662 766.193 701.98 765.202 702.072L740.684 703.858C740.475 703.877 740.268 703.887 740.062 703.887C738.806 703.887 737.578 703.523 736.524 702.839C735.471 702.155 734.639 701.18 734.128 700.033Z" fill="#363636"/>
<path d="M716.524 458.081C701.682 438.34 689.949 416.443 681.733 393.151C681.257 391.758 681.291 390.241 681.828 388.87C682.366 387.5 683.373 386.364 684.669 385.666L735.457 358.453C736.278 358.009 737.191 357.759 738.123 357.721C739.056 357.683 739.986 357.859 740.841 358.235C741.711 358.613 742.484 359.185 743.101 359.907C743.717 360.629 744.161 361.483 744.397 362.402C750.309 384.847 761.42 405.584 776.833 422.938C777.468 423.644 777.933 424.486 778.193 425.399C778.453 426.312 778.501 427.273 778.334 428.207C778.173 429.127 777.804 429.998 777.256 430.754C776.708 431.51 775.994 432.131 775.17 432.569L724.382 459.782C723.083 460.475 721.58 460.684 720.141 460.373C718.702 460.061 717.42 459.249 716.524 458.081Z" fill="#363636"/>
<path d="M719.99 455.477C720.263 455.818 720.646 456.053 721.074 456.141C721.502 456.23 721.948 456.166 722.334 455.961L773.122 428.747C773.369 428.619 773.582 428.435 773.746 428.21C773.909 427.985 774.019 427.725 774.065 427.451C774.118 427.161 774.103 426.864 774.022 426.581C773.94 426.298 773.794 426.038 773.595 425.821C757.728 407.956 746.289 386.608 740.204 363.502C740.133 363.216 739.998 362.951 739.808 362.727C739.618 362.502 739.378 362.325 739.108 362.208C738.854 362.095 738.577 362.041 738.298 362.053C738.02 362.064 737.748 362.14 737.504 362.275L686.717 389.488C686.332 389.696 686.032 390.031 685.868 390.437C685.705 390.843 685.688 391.292 685.821 391.709C693.891 414.584 705.414 436.089 719.99 455.477Z" fill="white"/>
<path d="M885.249 450.822L845.474 465.937L835.763 438.962C834.473 435.38 834.492 431.458 835.814 427.888C837.137 424.318 839.679 421.331 842.991 419.454C846.342 417.555 850.261 416.917 854.04 417.655C857.82 418.393 861.211 420.458 863.602 423.478L885.249 450.822Z" fill="#6C63FF"/>
<path d="M784.079 557.701C783.242 557.109 782.541 556.345 782.021 555.461C781.502 554.577 781.177 553.592 781.068 552.572C775.974 505.015 779.522 467.798 791.915 438.794C794.098 433.791 797.386 429.348 801.532 425.799C805.679 422.25 810.576 419.687 815.855 418.303L848.008 416.68L848.174 416.76C855.43 420.314 861.347 426.111 865.048 433.293C868.75 440.474 870.038 448.657 868.723 456.628C858.381 483.887 849.722 512.268 856.326 535.163C856.603 536.12 856.683 537.123 856.563 538.112C856.443 539.102 856.124 540.056 855.626 540.919C855.144 541.753 854.495 542.48 853.721 543.054C852.946 543.628 852.063 544.037 851.124 544.256L789.883 558.824C788.892 559.06 787.861 559.082 786.86 558.888C785.859 558.694 784.911 558.29 784.079 557.701Z" fill="#F5F5F5"/>
<path d="M837.278 404.671C856.88 404.671 872.77 388.78 872.77 369.178C872.77 349.576 856.88 333.685 837.278 333.685C817.675 333.685 801.785 349.576 801.785 369.178C801.785 388.78 817.675 404.671 837.278 404.671Z" fill="#FFB8B8"/>
<path d="M738.791 397.289L711.13 409.5C710.078 409.963 708.885 409.99 707.813 409.574C706.742 409.159 705.878 408.335 705.413 407.284L704.729 405.734C704.266 404.682 704.239 403.49 704.654 402.418C705.07 401.346 705.893 400.483 706.944 400.018L734.605 387.807C735.657 387.344 736.85 387.318 737.922 387.733C738.994 388.148 739.857 388.972 740.322 390.023L741.006 391.573C741.469 392.625 741.496 393.817 741.081 394.889C740.665 395.961 739.842 396.824 738.791 397.289Z" fill="#363636"/>
<path d="M748.907 416.075L721.245 428.286C720.193 428.749 719.001 428.776 717.929 428.36C716.857 427.945 715.994 427.121 715.529 426.07L714.844 424.521C714.381 423.469 714.355 422.276 714.77 421.204C715.185 420.132 716.009 419.269 717.06 418.804L744.721 406.594C745.773 406.13 746.966 406.104 748.037 406.519C749.109 406.934 749.972 407.758 750.438 408.809L751.122 410.359C751.585 411.411 751.612 412.603 751.196 413.675C750.781 414.747 749.958 415.61 748.907 416.075Z" fill="#363636"/>
<path d="M770.238 489.453L708.57 440.803C708.079 440.975 707.579 441.123 707.073 441.244C704.897 441.753 702.637 441.799 700.442 441.378C698.246 440.957 696.164 440.078 694.331 438.8C692.485 437.521 690.933 435.862 689.78 433.935C688.627 432.007 687.899 429.856 687.645 427.625C687.231 424.057 688.035 420.455 689.926 417.402C691.817 414.349 694.685 412.025 698.063 410.806C700.171 410.05 702.415 409.748 704.649 409.919C706.882 410.091 709.054 410.732 711.022 411.801C712.99 412.871 714.71 414.344 716.07 416.124C717.429 417.904 718.397 419.952 718.91 422.132C719.069 422.823 719.179 423.524 719.241 424.231L780.63 459.646L795.907 450.85L812.83 473.006L789.111 489.913C786.334 491.876 782.998 492.891 779.598 492.808C776.199 492.725 772.916 491.549 770.238 489.453Z" fill="#FFB8B8"/>
<path d="M820.355 479.906L785.169 455.979L801.706 432.559C803.901 429.449 807.126 427.216 810.809 426.253C814.492 425.291 818.397 425.661 821.834 427.299C825.31 428.956 828.079 431.801 829.641 435.322C831.203 438.842 831.455 442.804 830.352 446.494L820.355 479.906Z" fill="#F5F5F5"/>
<path d="M824.265 363.892C815.142 370.135 803.164 376.553 793.847 369.904C787.729 365.539 785.802 357.454 788.283 350.36C792.744 337.602 805.002 331.985 816.723 327.68C831.961 322.083 848.552 317.63 864.282 321.638C880.013 325.647 893.915 340.877 891.075 356.859C888.792 369.712 876.668 380.407 878.389 393.347C880.121 406.371 894.767 413.226 907.697 415.553C920.627 417.881 935.097 418.629 944.389 427.916C956.243 439.764 953.283 460.941 942.129 473.45C930.974 485.959 914.142 491.63 897.831 495.484C876.221 500.592 852.847 503.276 832.322 494.8C811.798 486.324 795.826 463.507 801.772 442.112C804.283 433.075 810.199 425.437 815.917 418.002C821.634 410.566 827.424 402.791 829.605 393.668C831.423 386.066 830.078 377.239 825.036 371.537C824.119 370.539 823.542 369.276 823.388 367.929C823.233 366.582 823.51 365.222 824.177 364.042L824.265 363.892Z" fill="#363636"/>
<path d="M304.619 536.339C295.473 539.554 285.653 540.359 276.106 538.677C266.559 536.995 257.605 532.883 250.108 526.737C231.016 510.712 225.03 484.311 220.159 459.865C215.357 435.763 210.555 411.661 205.753 387.559L235.914 408.327C257.604 423.262 279.783 438.676 294.802 460.309C309.82 481.941 316.375 511.472 304.309 534.88" fill="#C5EB67"/>
<path d="M302.041 623.88C305.093 601.644 308.232 579.122 306.091 556.647C304.189 536.688 298.1 517.192 285.703 501.208C279.122 492.739 271.115 485.483 262.041 479.766C259.675 478.273 257.497 482.023 259.853 483.51C275.553 493.433 287.697 508.085 294.533 525.354C302.084 544.559 303.296 565.493 301.995 585.894C301.208 598.231 299.541 610.487 297.86 622.727C297.728 623.281 297.81 623.864 298.091 624.359C298.372 624.854 298.831 625.224 299.374 625.394C299.928 625.543 300.519 625.468 301.018 625.185C301.517 624.901 301.885 624.432 302.041 623.88Z" fill="#363636"/>
<path d="M272.637 584.532C268.715 590.494 263.323 595.345 256.982 598.618C250.64 601.891 243.563 603.476 236.431 603.219C218.103 602.349 202.823 589.557 189.068 577.413L148.384 541.492L175.31 540.203C194.674 539.277 214.537 538.412 232.98 544.384C251.423 550.355 268.433 564.726 271.805 583.816" fill="#C5EB67"/>
<path d="M310.668 636.663C295.975 610.664 278.932 581.769 248.479 572.534C240.011 569.975 231.133 569.058 222.321 569.833C219.544 570.072 220.238 574.353 223.01 574.114C237.78 572.888 252.522 576.788 264.753 585.158C276.523 593.17 285.688 604.308 293.444 616.12C298.195 623.354 302.451 630.896 306.708 638.428C308.068 640.835 312.044 639.098 310.668 636.663Z" fill="#363636"/>
<path d="M336.65 666.384C336.155 660.648 334.095 655.157 330.695 650.51C327.295 645.863 322.686 642.239 317.368 640.03V625H292.159V640.504C287.103 642.821 282.752 646.436 279.549 650.983C276.346 655.529 274.407 660.844 273.927 666.384L268 735.291H342.577L336.65 666.384Z" fill="#F5F5F5"/>
</g>
<defs>
<clipPath id="clip0_22_70">
<rect width="1000" height="760" fill="white"/>
</clipPath>
</defs>
</svg>
