<svg width="1000" height="796" viewBox="0 0 1000 796" fill="none" xmlns="http://www.w3.org/2000/svg">
<g clip-path="url(#clip0_22_2)">
<path d="M880 398C880 607.868 709.868 778 500 778C290.132 778 120 607.868 120 398C120 188.132 290.132 18 500 18C709.868 18 880 188.132 880 398Z" fill="#EFF5E3"/>
<path d="M0 793.801C0 794.971 0.938991 795.91 2.10829 795.91H716.569C717.738 795.91 718.677 794.971 718.677 793.801C718.677 792.632 717.738 791.693 716.569 791.693H2.10829C0.938991 791.693 0 792.632 0 793.801Z" fill="#363636"/>
<path d="M424.02 764.667C427.68 764.896 429.703 760.349 426.934 757.699L426.659 756.604C426.695 756.516 426.731 756.429 426.768 756.341C430.469 747.515 443.013 747.576 446.683 756.415C449.94 764.26 454.087 772.118 455.108 780.413C455.566 784.074 455.36 787.804 454.548 791.397C462.18 774.726 466.196 756.521 466.196 738.213C466.196 733.613 465.944 729.013 465.429 724.425C465.006 720.672 464.422 716.942 463.667 713.246C459.582 693.267 450.737 674.239 437.979 658.345C431.846 654.992 426.731 649.752 423.642 643.47C422.532 641.204 421.662 638.767 421.25 636.284C421.948 636.376 423.882 625.746 423.356 625.093C424.328 623.617 426.069 622.884 427.132 621.443C432.415 614.28 439.694 615.531 443.494 625.265C451.612 629.362 451.691 636.157 446.71 642.692C443.541 646.849 443.105 652.475 440.325 656.926C440.611 657.292 440.908 657.647 441.194 658.013C446.44 664.742 450.977 671.973 454.802 679.571C453.721 671.127 455.317 660.955 458.038 654.398C461.135 646.926 466.94 640.634 472.052 634.175C478.192 626.417 490.783 629.803 491.865 639.637C491.875 639.732 491.886 639.828 491.896 639.923C491.136 640.351 490.392 640.806 489.666 641.287C485.521 644.028 486.954 650.453 491.865 651.211L491.976 651.228C491.701 653.963 491.232 656.674 490.545 659.341C497.103 684.702 482.945 693.939 462.729 694.354C462.283 694.583 461.848 694.812 461.402 695.029C463.45 700.796 465.086 706.712 466.299 712.708C467.386 718.006 468.141 723.361 468.565 728.739C469.091 735.524 469.045 742.344 468.473 749.118L468.507 748.877C469.96 741.417 474.011 734.449 479.893 729.62C488.654 722.423 501.033 719.772 510.485 713.987C515.035 711.202 520.865 714.801 520.071 720.076L520.032 720.329C518.625 720.901 517.252 721.564 515.925 722.308C515.165 722.736 514.422 723.191 513.695 723.672C509.55 726.413 510.983 732.838 515.893 733.596L516.005 733.613C516.085 733.625 516.154 733.636 516.234 733.648C513.819 739.38 510.455 744.701 506.244 749.289C502.144 771.429 484.532 773.529 465.693 767.082H465.681C463.621 776.053 460.612 784.818 456.745 793.171H424.82C424.706 792.816 424.603 792.45 424.5 792.095C427.452 792.278 430.427 792.107 433.333 791.569C430.965 788.663 428.596 785.733 426.228 782.827C426.17 782.77 426.125 782.712 426.079 782.655C424.877 781.168 423.665 779.692 422.463 778.204L422.462 778.203C422.387 773.636 422.936 769.084 424.02 764.667Z" fill="#C5EB67"/>
<path d="M965.056 795.44H599.134C579.866 795.44 564.191 779.764 564.191 760.496V34.9437C564.191 15.6761 579.866 0 599.134 0H965.056C984.324 0 1000 15.6761 1000 34.9437V760.496C1000 779.764 984.324 795.44 965.056 795.44ZM599.134 3.54316C581.792 3.54316 567.734 17.6013 567.734 34.9429V760.496C567.734 777.838 581.793 791.897 599.135 791.897H965.056C982.398 791.897 996.457 777.838 996.457 760.496V266.986C996.457 121.49 878.51 3.54316 733.014 3.54316H599.134Z" fill="#363636"/>
<path d="M668.123 358.069C691.605 358.069 710.641 339.033 710.641 315.551C710.641 292.069 691.605 273.033 668.123 273.033C644.641 273.033 625.606 292.069 625.606 315.551C625.606 339.033 644.641 358.069 668.123 358.069Z" fill="#C5EB67"/>
<path d="M896.067 358.069C919.549 358.069 938.585 339.033 938.585 315.551C938.585 292.069 919.549 273.033 896.067 273.033C872.585 273.033 853.549 292.069 853.549 315.551C853.549 339.033 872.585 358.069 896.067 358.069Z" fill="#363636"/>
<path d="M782.095 358.069C805.577 358.069 824.613 339.033 824.613 315.551C824.613 292.069 805.577 273.033 782.095 273.033C758.613 273.033 739.577 292.069 739.577 315.551C739.577 339.033 758.613 358.069 782.095 358.069Z" fill="#363636"/>
<path d="M668.123 480.308C691.605 480.308 710.641 461.272 710.641 437.79C710.641 414.308 691.605 395.272 668.123 395.272C644.641 395.272 625.606 414.308 625.606 437.79C625.606 461.272 644.641 480.308 668.123 480.308Z" fill="#363636"/>
<path d="M896.067 480.308C919.549 480.308 938.585 461.272 938.585 437.79C938.585 414.308 919.549 395.272 896.067 395.272C872.585 395.272 853.549 414.308 853.549 437.79C853.549 461.272 872.585 480.308 896.067 480.308Z" fill="#363636"/>
<path d="M782.095 480.308C805.577 480.308 824.613 461.272 824.613 437.79C824.613 414.308 805.577 395.272 782.095 395.272C758.613 395.272 739.577 414.308 739.577 437.79C739.577 461.272 758.613 480.308 782.095 480.308Z" fill="#363636"/>
<path d="M668.123 602.547C691.605 602.547 710.641 583.511 710.641 560.029C710.641 536.547 691.605 517.511 668.123 517.511C644.641 517.511 625.606 536.547 625.606 560.029C625.606 583.511 644.641 602.547 668.123 602.547Z" fill="#363636"/>
<path d="M895.197 724.576C918.679 724.576 937.715 705.541 937.715 682.059C937.715 658.577 918.679 639.541 895.197 639.541C871.715 639.541 852.679 658.577 852.679 682.059C852.679 705.541 871.715 724.576 895.197 724.576Z" fill="#363636"/>
<path d="M726.011 724.576C781.292 724.576 826.106 705.541 826.106 682.059C826.106 658.577 781.292 639.541 726.011 639.541C670.731 639.541 625.917 658.577 625.917 682.059C625.917 705.541 670.731 724.576 726.011 724.576Z" fill="#363636"/>
<path d="M896.067 602.547C919.549 602.547 938.585 583.511 938.585 560.029C938.585 536.547 919.549 517.511 896.067 517.511C872.585 517.511 853.549 536.547 853.549 560.029C853.549 583.511 872.585 602.547 896.067 602.547Z" fill="#363636"/>
<path d="M782.095 602.547C805.577 602.547 824.613 583.511 824.613 560.029C824.613 536.547 805.577 517.511 782.095 517.511C758.613 517.511 739.577 536.547 739.577 560.029C739.577 583.511 758.613 602.547 782.095 602.547Z" fill="#C5EB67"/>
<path d="M790.451 49.6045H383.813C371.756 49.6045 361.952 59.409 361.952 71.4663V220.845C361.952 232.902 371.756 242.707 383.813 242.707H790.451C802.508 242.707 812.313 232.902 812.313 220.845V71.4663C812.313 59.409 802.508 49.6045 790.451 49.6045Z" fill="#F5F5F5"/>
<path d="M790.451 49.6045H383.813C371.756 49.6045 361.952 59.409 361.952 71.4663V220.845C361.952 232.902 371.756 242.707 383.813 242.707H790.451C802.508 242.707 812.313 232.902 812.313 220.845V71.4663C812.313 59.409 802.508 49.6045 790.451 49.6045ZM810.014 220.845C810.014 231.638 801.244 240.408 790.451 240.408H383.813C373.02 240.408 364.25 231.638 364.25 220.845V71.4663C364.25 60.6734 373.02 51.9033 383.813 51.9033H790.451C801.244 51.9033 810.014 60.6734 810.014 71.4663V220.845Z" fill="#363636"/>
<path d="M668.675 139.955H404.903C402.403 139.955 400.377 142.731 400.377 146.155C400.377 149.58 402.403 152.356 404.903 152.356H668.675C671.175 152.356 673.201 149.58 673.201 146.155C673.201 142.731 671.175 139.955 668.675 139.955Z" fill="#C5EB67"/>
<path d="M120.383 319.631L116.761 341.199L148.881 419.333L166.114 410.473L149.341 337.356L146.93 309.452L120.383 319.631Z" fill="#A0616A"/>
<path d="M155.839 198.29C155.839 198.29 139.022 190.144 125.973 217.67C112.923 245.195 114.539 305.565 114.539 305.565C114.539 305.565 109.788 310.09 112.804 313.258C115.82 316.425 118.632 321.452 115.555 327.247C113.934 330.302 110.18 336.277 116.327 337.974C122.473 339.672 151.223 331.653 151.223 331.653C151.223 331.653 161.974 326.837 155.865 323.593C149.757 320.35 158.36 300.73 158.36 300.73L165.468 244.055L155.839 198.29Z" fill="#F5F5F5"/>
<path d="M169.044 449.185C175.794 447.112 178.436 436.215 174.944 424.847C171.453 413.478 163.151 405.943 156.401 408.016C149.651 410.088 147.009 420.985 150.5 432.353C153.991 443.722 162.293 451.257 169.044 449.185Z" fill="#A0616A"/>
<path d="M328.234 784.048L344.332 779.727L335.329 715.582L311.571 721.958L328.234 784.048Z" fill="#A0616A"/>
<path d="M383.288 768.884C384.016 769.594 385.012 772.248 385.275 773.229C386.085 776.247 384.295 779.349 381.278 780.159L331.426 793.535C329.367 794.088 327.251 792.867 326.698 790.808L326.141 788.733C326.141 788.733 322.001 783.157 325.016 774.106C325.016 774.106 332.942 778.433 339.841 766.473L341.27 760.69L365.348 770.009L376.873 768.389C379.394 768.034 381.465 767.107 383.288 768.884Z" fill="#363636"/>
<path d="M170.446 783.678L187.113 783.677L195.041 719.389L170.443 719.391L170.446 783.678Z" fill="#A0616A"/>
<path d="M227.549 783.3C228.068 784.174 228.342 786.995 228.342 788.011C228.342 791.136 225.809 793.668 222.685 793.668H171.07C168.938 793.668 167.21 791.94 167.21 789.809V787.66C167.21 787.66 164.657 781.202 169.914 773.241C169.914 773.241 176.448 779.474 186.211 769.711L189.09 764.496L209.93 779.737L221.481 781.159C224.008 781.47 226.249 781.111 227.549 783.3Z" fill="#363636"/>
<path d="M281.367 400.74L325.194 589.648L346.352 742.285L313.104 746.819L220.917 486.882L199.759 746.819L161.978 749.842C161.978 749.842 131.753 441.544 145.354 403.763L281.367 400.74Z" fill="#363636"/>
<path d="M333.534 177.361L348.656 161.561L366.021 78.8869L346.788 76.5249L319.552 146.422L305.857 170.853L333.534 177.361Z" fill="#A0616A"/>
<path d="M235.992 257.774C235.992 257.774 250.144 283.869 276.411 268.442C302.678 253.015 330.459 192.278 330.459 192.278C330.459 192.278 336.006 176.839 341.808 173.776C344.867 172.162 352.736 170.422 348.607 165.563C344.479 160.703 314.789 150.08 314.789 150.08C314.789 150.08 303.19 148.019 306.418 154.135C309.646 160.252 299.044 156.463 300.115 162.936C301.185 169.409 291.501 171.64 291.501 171.64L235.992 257.774Z" fill="#F5F5F5"/>
<path d="M372.002 67.2084C375.506 55.8441 372.877 44.9446 366.13 42.8638C359.382 40.783 351.071 48.3087 347.567 59.6731C344.062 71.0374 346.691 81.9369 353.439 84.0177C360.186 86.0985 368.497 78.5727 372.002 67.2084Z" fill="#A0616A"/>
<path d="M237.871 167.367H196.494L194.819 180.413C194.819 180.413 142.635 194.764 143.939 202.592C145.244 210.419 153.072 340.88 153.072 340.88L146.549 406.111C146.549 406.111 263.963 455.686 282.228 396.978L273.096 329.139C273.096 329.139 295.274 213.029 290.056 207.81C284.837 202.592 241.785 181.718 241.785 181.718L237.871 167.367Z" fill="#F5F5F5"/>
<path d="M213.836 167.53C234.348 167.53 250.976 150.902 250.976 130.391C250.976 109.879 234.348 93.251 213.836 93.251C193.325 93.251 176.697 109.879 176.697 130.391C176.697 150.902 193.325 167.53 213.836 167.53Z" fill="#A0616A"/>
<path d="M241.341 115.113C246.087 114.712 250.832 114.311 255.577 113.91C253.946 113.162 252.247 112.361 251.16 110.933C250.074 109.505 249.849 107.249 251.162 106.025C252.696 104.596 255.236 105.353 256.913 106.612C255.99 101.792 253.113 97.3755 249.077 94.5833C244.146 91.1725 231.949 95.2396 226.005 94.4566C219.147 93.553 218.291 87.7059 211.432 86.8023C208.847 86.4619 205.938 86.205 203.906 87.8381C201.651 89.6492 201.398 93.0734 199.409 95.1725C196.569 98.1696 191.701 97.2854 187.66 98.1286C181.935 99.3232 177.62 104.343 175.627 109.84C173.634 115.338 173.56 121.318 173.51 127.166C173.453 133.719 173.432 141.306 178.172 145.832C181.06 148.59 188.926 158.051 189.776 161.953C190.38 164.724 214.992 168.098 220.327 167.945L238.508 161.953C240.295 154.084 237.339 138.519 233.091 131.66C234.49 133.508 240.96 139.071 241.949 136.975C242.938 134.878 242.489 128.309 243.721 126.345C245.275 123.867 238.427 115.36 241.341 115.113Z" fill="#363636"/>
<path d="M763.142 85.0361C723.253 85.0361 690.916 114.542 690.916 150.939V194.874H705.362V155.228L736.367 123.793L746.582 134.149L719.807 161.294V179.904C756.305 176.597 784.81 148.499 784.81 114.326V85.0361H763.142Z" fill="#C5EB67"/>
<path d="M957.271 42.481C948.877 41.3979 919.763 14.5023 916.55 19.7907C913.337 25.0792 916.711 41.3506 927.006 48.3955C937.301 55.4405 954.953 56.5828 960.528 60.7189C966.103 64.855 967.078 69.133 966.6 70.467C966.122 71.8 928.485 61.2396 922.424 67.895C916.363 74.55 922.822 83.771 933.41 88.972C943.998 94.174 967.477 82.888 973.549 84.723C979.62 86.558 982.357 91.925 980.314 92.668C978.27 93.411 953.973 96.12 946.638 100.344C939.304 104.568 937.659 111.155 951.119 112.604C964.579 114.052 981.776 103.134 986.128 105.21C990.481 107.286 988.999 109.566 986.677 110.606C984.356 111.647 967.977 116.477 962.669 119.381C957.362 122.286 967.113 128.372 970.818 129.528C974.522 130.684 985.451 127.847 988.33 126.215C991.208 124.584 992.842 119.547 995.606 119.695C998.371 119.844 998.918 127.17 1000.21 128.049C1001.49 128.928 1008.6 126.719 1009.06 124.814C1009.51 122.91 1005.05 119.137 1005.94 116.299C1006.83 113.46 1012.07 116.18 1016.95 112.083C1021.82 107.987 1030.87 93.674 1029.16 87.93C1027.45 82.186 1008.71 100.619 1002.86 102.565C998.523 103.384 995.759 101.105 997.753 98.639C999.747 96.174 1032.53 75.503 1032.77 67.696C1033 59.8895 1031.33 61.659 1027.08 63.215C1022.82 64.771 1001.76 84.245 997.707 81.092C993.659 77.938 1025.78 53.8588 1026.22 43.465C1026.66 33.0712 1023.87 21.7381 1018.44 22.1807C1013 22.6234 1002.15 54.1927 993.884 55.8637C985.616 57.5346 992.406 52.3509 994.191 46.6719C995.975 40.993 1008.98 18.4959 1007.1 12.8153C1005.22 7.13477 1004.69 0.955068 998.147 2.57737C991.599 4.19957 984.801 33.127 980.648 32.3276C976.494 31.5281 984.709 15.9802 982.599 4.39827C980.489 -7.18363 970.25 -16.1839 967.094 -14.2534C963.939 -12.323 964.108 -12.3899 965.228 -9.32423C966.348 -6.25843 971.785 3.33437 971.858 9.87037C971.93 16.4063 973.318 20.7235 971.242 20.3246C969.165 19.9257 966.863 13.6255 966.08 8.31447C965.297 3.00347 964.333 -8.61113 961.448 -11.2242C958.563 -13.8374 950.612 -25.0225 938.851 -17.0629C927.09 -9.10343 932.239 2.34017 936.299 9.73407C940.359 17.128 945.999 22.0159 951.634 28.4495C957.269 34.883 961.019 42.9647 957.271 42.481Z" fill="#C5EB67"/>
<path d="M478.058 430.667C469.664 429.584 440.549 402.688 437.336 407.977C434.123 413.265 437.497 429.537 447.792 436.582C458.087 443.627 475.74 444.769 481.315 448.905C486.89 453.041 487.865 457.319 487.387 458.653C486.909 459.986 449.271 449.426 443.211 456.081C437.15 462.736 443.609 471.957 454.197 477.158C464.785 482.36 488.264 471.074 494.335 472.909C500.407 474.744 503.144 480.111 501.1 480.854C499.057 481.597 474.76 484.306 467.425 488.53C460.091 492.754 458.445 499.341 471.906 500.79C485.366 502.238 502.562 491.32 506.915 493.396C511.268 495.472 509.785 497.752 507.464 498.792C505.143 499.833 488.764 504.663 483.456 507.567C478.148 510.472 487.9 516.558 491.604 517.714C495.309 518.87 506.238 516.033 509.116 514.401C511.995 512.77 513.628 507.733 516.393 507.881C519.158 508.03 519.705 515.356 520.991 516.235C522.278 517.114 529.384 514.905 529.841 513C530.299 511.096 525.836 507.323 526.728 504.485C527.62 501.646 532.861 504.366 537.733 500.269C542.605 496.173 551.659 481.86 549.949 476.116C548.238 470.372 529.494 488.805 523.643 490.751C519.31 491.57 516.546 489.291 518.54 486.826C520.534 484.36 553.32 463.689 553.554 455.882C553.787 448.076 552.115 449.845 547.863 451.401C543.61 452.957 522.543 472.431 518.494 469.278C514.446 466.124 546.566 442.045 547.005 431.651C547.444 421.257 544.661 409.924 539.224 410.367C533.788 410.809 522.939 442.379 514.671 444.05C506.402 445.721 513.193 440.537 514.978 434.858C516.762 429.179 529.771 406.682 527.887 401.001C526.003 395.321 525.481 389.141 518.934 390.763C512.386 392.386 505.588 421.313 501.434 420.514C497.281 419.714 505.495 404.166 503.386 392.584C501.276 381.002 491.036 372.002 487.881 373.933C484.726 375.863 484.894 375.796 486.015 378.862C487.135 381.928 492.572 391.52 492.644 398.056C492.717 404.592 494.105 408.91 492.029 408.511C489.952 408.112 487.65 401.811 486.867 396.5C486.084 391.19 485.12 379.575 482.235 376.962C479.349 374.349 471.399 363.163 459.638 371.123C447.877 379.083 453.026 390.526 457.086 397.92C461.146 405.314 466.786 410.202 472.421 416.635C478.055 423.069 481.805 431.151 478.058 430.667Z" fill="#C5EB67"/>
</g>
<defs>
<clipPath id="clip0_22_2">
<rect width="1000" height="796" fill="white"/>
</clipPath>
</defs>
</svg>
