<svg width="1001" height="762" viewBox="0 0 1001 762" fill="none" xmlns="http://www.w3.org/2000/svg">
<path d="M880.011 381.147C880.011 591.015 709.879 761.147 500.011 761.147C290.142 761.147 120.011 591.015 120.011 381.147C120.011 171.279 290.142 1.14723 500.011 1.14723C709.879 1.14723 880.011 171.279 880.011 381.147Z" fill="#5FA38B"/>
<path d="M606.378 229.571C607.622 229.628 608.853 229.301 609.906 228.635C610.958 227.969 611.78 226.995 612.26 225.846C612.741 224.697 612.857 223.428 612.592 222.211C612.327 220.994 611.694 219.888 610.78 219.042C610.627 218.434 610.517 217.996 610.364 217.388C610.418 217.255 610.473 217.123 610.529 216.99C616.121 203.656 635.074 203.748 640.619 217.102C645.54 228.955 651.806 240.828 653.348 253.361C654.028 258.9 653.741 264.516 652.501 269.957C664.06 244.743 670.062 217.338 670.101 189.601C670.103 182.641 669.717 175.686 668.943 168.769C668.303 163.098 667.415 157.468 666.28 151.878C660.085 121.548 646.783 93.1195 627.468 68.9283C618.119 63.8274 610.559 55.9835 605.805 46.4534C604.083 43.0277 602.866 39.3707 602.192 35.5963C603.247 35.7346 606.169 19.6736 605.373 18.6882C606.843 16.4581 609.473 15.3495 611.078 13.1733C619.061 2.35037 630.059 4.24013 635.801 18.9476C648.066 25.1379 648.185 35.404 640.659 45.2777C635.871 51.5594 635.213 60.0593 631.012 66.7843C631.444 67.3376 631.894 67.8736 632.326 68.4269C640.227 78.5863 647.113 89.4956 652.886 100.998C651.252 88.2408 653.664 72.8712 657.774 62.9638C662.454 51.6753 671.224 42.1682 678.948 32.4094C688.226 20.6875 707.25 25.8032 708.884 40.6625C708.9 40.8063 708.915 40.9502 708.931 41.0939C707.783 41.7411 706.66 42.4281 705.562 43.1548C704.181 44.077 703.112 45.3947 702.493 46.9352C701.874 48.4757 701.736 50.1672 702.095 51.788C702.454 53.4087 703.294 54.8832 704.505 56.0183C705.717 57.1533 707.243 57.896 708.883 58.1489L709.052 58.1748C708.643 62.3095 707.92 66.4072 706.891 70.4324C716.799 108.751 695.407 122.708 664.863 123.335C664.188 123.68 663.531 124.026 662.857 124.355C668.657 140.791 672.295 157.912 673.68 175.286C674.463 185.537 674.417 195.834 673.541 206.077L673.593 205.714C675.806 194.324 681.882 184.046 690.795 176.617C704.033 165.743 722.735 161.739 737.017 152.998C743.891 148.79 752.701 154.227 751.501 162.198C751.482 162.325 751.462 162.452 751.443 162.579C749.314 163.446 747.241 164.445 745.236 165.57C744.089 166.217 742.966 166.904 741.867 167.631C740.487 168.553 739.417 169.871 738.799 171.411C738.18 172.952 738.041 174.643 738.4 176.264C738.759 177.885 739.599 179.359 740.811 180.495C742.022 181.63 743.548 182.372 745.189 182.625L745.357 182.651C745.478 182.668 745.582 182.686 745.703 182.703C742.065 191.388 736.96 199.383 730.61 206.336C724.415 239.787 697.805 242.961 669.34 233.219H669.323C666.2 246.791 661.675 260.001 655.821 272.637H607.586C607.413 272.101 607.258 271.548 607.102 271.012C611.567 271.292 616.049 271.025 620.449 270.217C616.87 265.825 613.291 261.399 609.713 257.008C609.633 256.926 609.558 256.84 609.488 256.749C607.673 254.501 605.84 252.271 604.025 250.024L604.024 250.021C603.927 243.132 604.718 236.259 606.376 229.572L606.378 229.571Z" fill="#27ED70"/>
<path d="M761.243 106.128C752.275 73.4294 824.611 45.3895 843.607 71.7219C846.248 67.9782 856.01 65.7043 860.489 66.8527C864.967 68.0011 868.734 70.8721 872.409 73.6513C877.462 77.5329 882.699 81.5523 885.799 87.1336C888.923 92.6918 889.405 100.271 885.202 105.095C881.872 108.93 872.041 111.411 867.034 112.421C863.543 113.133 860.603 113.708 858.077 114.121C855.782 110.815 854.725 106.806 855.091 102.798C853.39 103.945 851.965 105.454 850.917 107.217C849.868 108.98 849.223 110.954 849.028 112.996C848.959 113.845 877.255 217.96 877.255 217.96C873.855 219.895 870.279 221.502 866.575 222.76C859.247 211.561 853.635 199.329 849.923 186.471C849.07 195.069 849.178 203.735 850.245 212.31C850.812 217.118 851.625 221.894 852.679 226.619C819.054 233.877 768.478 231.488 746.475 200.619C746.471 200.491 746.467 200.364 746.464 200.236C746.447 199.017 746.006 197.843 745.219 196.913C744.431 195.983 743.344 195.357 742.145 195.14C740.945 194.924 739.708 195.131 738.645 195.726C737.582 196.322 736.759 197.268 736.317 198.404C735.783 199.766 735.291 200.945 734.853 201.882C728.445 178.96 736.736 152.432 761.243 106.128Z" fill="#2F2E41"/>
<path d="M704.024 654.335V655.406C703.981 655.05 703.981 654.691 704.024 654.335Z" fill="#2F2E41"/>
<path d="M736.953 469.282C737.808 469.05 738.678 468.881 739.558 468.776C738.548 468.94 737.68 469.109 736.953 469.282Z" fill="#2F2E41"/>
<path d="M736.191 469.476C736.422 469.411 736.679 469.346 736.953 469.282C736.698 469.348 736.453 469.397 736.191 469.476Z" fill="#2F2E41"/>
<path d="M979.474 761.484H856.221C854.463 760.08 853.241 758.115 852.76 755.917C852.28 753.719 852.57 751.423 853.582 749.413C856.949 741.691 850.351 734.635 850.351 734.635C848.112 732.011 846.554 728.874 845.817 725.504C845.08 722.133 845.187 718.633 846.127 715.314C849.393 703.908 836.595 671.716 836.595 671.716C836.595 671.716 829.696 713.284 821.243 761.484H704.024C702.06 758.139 701.025 754.331 701.025 750.452C701.025 746.573 702.06 742.765 704.024 739.42C710.855 727.838 704.024 725.616 704.024 725.616C704.024 725.616 697.192 712.655 704.024 703.244C710.855 693.833 704.024 655.406 704.024 655.406C704.281 657.105 706.227 654.016 709.223 647.539C713.785 637.685 720.756 619.964 727.799 599.391C732.834 584.708 737.91 568.552 742.153 552.757H742.163C743.275 548.607 744.329 544.495 745.324 540.421C747.27 532.431 748.938 524.667 750.205 517.377C752.954 501.674 753.86 488.185 751.749 479.412C749.999 472.112 746.168 468.086 739.558 468.776C743.1 468.189 748.29 467.633 754.684 467.108C755.837 467.015 757.032 466.922 758.267 466.819C805.962 463.215 908.292 461.146 908.292 461.146L979.33 588.373C979.33 588.373 978.249 683.753 979.474 761.484Z" fill="#2F2E41"/>
<path d="M847.918 218.55L775.706 203.232L761.368 232.093L713.084 260.047C713.084 260.047 744.208 387.304 744.03 405.202C743.579 450.642 670.873 552.505 725.79 544.669C780.708 536.833 791.863 504.009 809.493 509.199C825.394 513.88 844.808 534.702 857.806 519.81C870.803 504.917 875.381 522.115 883.6 522.709C887.506 522.991 885.153 503.904 894.981 523.302C904.808 542.7 956.919 516.588 939.257 498.926C909.842 469.511 903.864 252.672 903.864 252.672L871.118 242.596L847.918 218.55Z" fill="#16A34A"/>
<path d="M711.719 680.693C714.62 677.233 716.057 672.778 715.724 668.275C715.39 663.772 713.313 659.576 709.933 656.582C709.237 655.984 708.492 655.444 707.707 654.969L719.781 595.714L691.869 579.008L684.105 661.97C682.387 665.379 681.847 669.261 682.567 673.01C683.288 676.759 685.23 680.164 688.089 682.694C689.73 684.117 691.635 685.204 693.696 685.892C695.757 686.579 697.933 686.854 700.1 686.7C702.267 686.547 704.382 685.968 706.326 684.997C708.269 684.026 710.002 682.681 711.426 681.04C711.525 680.926 711.622 680.81 711.719 680.693Z" fill="#A0616A"/>
<path d="M798.384 368.35C798.209 366.446 795.779 365.581 792.412 364.386C789.03 363.344 785.815 361.822 782.866 359.866C775.411 354.481 778.346 348.848 782.403 341.064C783.196 339.55 784.02 337.975 784.792 336.338C787.088 331.488 783.433 311.481 773.908 276.863C770.974 266.206 770.984 258.679 768.955 253.685C766.937 248.691 762.891 246.23 751.863 245.715C738.533 245.042 725.481 249.682 715.566 258.617C715.299 258.854 715.021 259.111 714.753 259.359C714.248 259.832 713.754 260.316 713.27 260.81C704.102 270.034 698.855 282.446 698.628 295.449L698.576 297.663L696.301 403.432L681.092 624.103L716.833 625.874L751.749 479.412L754.684 467.108L761.706 437.659C761.84 437.144 775.247 384.249 790.702 375.404C796.468 372.109 798.548 370.194 798.384 368.35Z" fill="#16A34A"/>
<path d="M971.794 680.063C968.538 676.935 966.631 672.659 966.479 668.147C966.327 663.634 967.942 659.24 970.98 655.899C971.608 655.23 972.291 654.614 973.021 654.057L954.652 596.441L980.609 576.834L997.238 658.482C999.311 661.687 1000.27 665.489 999.952 669.294C999.638 673.099 998.073 676.692 995.502 679.514C994.024 681.106 992.246 682.391 990.271 683.296C988.296 684.201 986.162 684.707 983.991 684.787C981.82 684.868 979.655 684.519 977.619 683.763C975.582 683.006 973.715 681.855 972.123 680.377C972.012 680.274 971.903 680.169 971.794 680.063Z" fill="#A0616A"/>
<path d="M984.492 555.042C984.492 555.042 964.248 483.815 970.422 476.104C976.596 468.394 958.362 466.888 966.219 452.528C974.077 438.167 963.232 435.765 963.232 435.765L957.346 402.748L946.825 321.648L946.506 319.237L943.446 295.642C942.591 288.903 940.386 282.405 936.963 276.538C933.54 270.67 928.968 265.554 923.522 261.493C923.244 261.28 922.96 261.076 922.676 260.871C921.381 259.939 920.057 259.075 918.706 258.279C908.606 252.321 896.746 250.068 885.166 251.909C863.345 255.307 870.136 263.444 866.597 285.244C860.846 320.689 859.354 340.968 862.158 345.55C863.103 347.093 864.095 348.569 865.042 349.986C869.914 357.299 873.436 362.576 866.599 368.742C863.874 370.996 860.843 372.851 857.596 374.251C854.382 375.807 852.056 376.924 852.087 378.836C852.123 380.689 854.395 382.363 860.478 385.017C867.849 388.242 875.766 400.438 882.25 412.897C887.395 422.939 891.983 433.256 895.995 443.803L960.819 626.115L996.165 620.514L984.492 555.042Z" fill="#16A34A"/>
<path d="M817.452 202.15C849.99 202.15 876.366 175.773 876.366 143.235C876.366 110.698 849.99 84.321 817.452 84.321C784.915 84.321 758.538 110.698 758.538 143.235C758.538 175.773 784.915 202.15 817.452 202.15Z" fill="#A0616A"/>
<path d="M729.088 110.722C720.119 78.023 792.456 49.9831 811.452 76.3155C814.093 72.5719 823.854 70.2979 828.333 71.4463C832.812 72.5947 836.579 75.4657 840.254 78.2449C845.307 82.1265 850.543 86.146 853.644 91.7272C856.768 97.2854 857.25 104.865 853.047 109.688C849.716 113.524 839.886 116.004 834.879 117.015C831.388 117.727 828.448 118.301 825.922 118.715C823.627 115.408 822.57 111.399 822.936 107.391C821.235 108.539 819.81 110.048 818.761 111.811C817.713 113.574 817.068 115.547 816.872 117.589C816.803 118.439 845.1 222.554 845.1 222.554C841.7 224.488 838.124 226.096 834.42 227.354C827.092 216.155 821.479 203.923 817.768 191.064C816.915 199.662 817.023 208.329 818.089 216.903C818.657 221.711 819.469 226.487 820.524 231.212C786.899 238.47 736.323 236.082 714.32 205.213C714.316 205.085 714.312 204.957 714.308 204.829C714.291 203.611 713.851 202.436 713.063 201.507C712.275 200.577 711.188 199.95 709.989 199.734C708.79 199.518 707.553 199.725 706.49 200.32C705.427 200.915 704.603 201.862 704.161 202.998C703.627 204.359 703.136 205.538 702.698 206.476C696.29 183.554 704.581 157.025 729.088 110.722Z" fill="#2F2E41"/>
<path d="M436.909 314.296C435.665 314.353 434.433 314.027 433.381 313.361C432.329 312.694 431.506 311.721 431.026 310.572C430.546 309.423 430.43 308.154 430.695 306.937C430.96 305.72 431.592 304.613 432.507 303.768C432.66 303.159 432.77 302.722 432.923 302.113C432.868 301.981 432.813 301.848 432.758 301.716C427.165 288.381 408.213 288.473 402.668 301.828C397.747 313.681 391.481 325.554 389.938 338.086C389.259 343.626 389.545 349.241 390.785 354.683C379.226 329.469 373.224 302.064 373.186 274.327C373.183 267.366 373.57 260.411 374.344 253.494C374.984 247.824 375.871 242.193 377.007 236.603C383.202 206.273 396.503 177.845 415.819 153.654C425.167 148.553 432.728 140.709 437.481 131.179C439.203 127.753 440.42 124.096 441.094 120.322C440.04 120.46 437.118 104.399 437.913 103.414C436.444 101.184 433.813 100.075 432.208 97.8989C424.225 87.076 413.227 88.9657 407.486 103.673C395.221 109.863 395.102 120.13 402.628 130.003C407.416 136.285 408.074 144.785 412.275 151.51C411.842 152.063 411.393 152.599 410.961 153.153C403.06 163.312 396.174 174.221 390.401 185.724C392.034 172.966 389.623 157.597 385.512 147.689C380.833 136.401 372.062 126.894 364.339 117.135C355.061 105.413 336.037 110.529 334.402 125.388C334.387 125.532 334.371 125.676 334.356 125.82C335.503 126.467 336.626 127.154 337.725 127.88C339.105 128.803 340.175 130.12 340.794 131.661C341.412 133.201 341.551 134.893 341.192 136.514C340.833 138.134 339.993 139.609 338.781 140.744C337.57 141.879 336.044 142.622 334.403 142.875L334.235 142.9C334.644 147.035 335.366 151.133 336.396 155.158C326.488 193.477 347.879 207.433 378.424 208.06C379.098 208.406 379.755 208.752 380.43 209.08C374.63 225.517 370.992 242.637 369.607 260.012C368.823 270.262 368.869 280.559 369.745 290.802L369.694 290.439C367.48 279.049 361.404 268.772 352.491 261.343C339.254 250.469 320.551 246.464 306.27 237.723C299.395 233.516 290.586 238.953 291.786 246.923C291.805 247.05 291.824 247.178 291.844 247.305C293.973 248.172 296.046 249.171 298.051 250.296C299.198 250.943 300.321 251.63 301.42 252.357C302.8 253.279 303.869 254.597 304.488 256.137C305.107 257.678 305.246 259.369 304.887 260.99C304.527 262.611 303.687 264.085 302.476 265.22C301.264 266.355 299.738 267.098 298.098 267.351L297.929 267.377C297.808 267.394 297.705 267.411 297.584 267.429C301.221 276.114 306.327 284.108 312.676 291.062C318.872 324.513 345.482 327.686 373.946 317.945H373.964C377.087 331.517 381.612 344.727 387.466 357.363H435.7C435.873 356.827 436.029 356.273 436.184 355.737C431.72 356.018 427.238 355.751 422.838 354.942C426.416 350.551 429.995 346.125 433.574 341.734C433.654 341.652 433.729 341.565 433.799 341.474C435.614 339.227 437.446 336.997 439.262 334.749L439.263 334.747C439.359 327.858 438.569 320.985 436.911 314.297L436.909 314.296Z" fill="#27ED70"/>
<path d="M211.844 71.7231C210.749 74.2743 176.994 74.0009 175.448 76.2726C163.528 93.8109 206.496 168.432 194.576 185.993L192.916 187.972C196.805 186.18 200.54 184.073 204.085 181.671C204.403 174.483 204.722 167.272 205.063 160.084C208.633 164.651 211.515 169.717 213.616 175.12C216.391 173.163 218.668 169.537 230.563 162.404C235.379 157.114 240.93 152.544 247.047 148.835L211.844 71.7231Z" fill="#2F2E41"/>
<path d="M236.355 215.459C232.63 213.033 228.38 211.529 223.958 211.074C219.536 210.619 215.069 211.225 210.928 212.842C206.786 214.459 203.091 217.04 200.147 220.371C197.203 223.702 195.096 227.688 194.001 231.996L142.705 365.652L54.5333 315.595C54.1461 309.841 51.9468 304.358 48.2506 299.931C44.5544 295.505 39.5513 292.362 33.9589 290.955C28.3665 289.548 22.4721 289.948 17.121 292.098C11.77 294.247 7.23726 298.037 4.17291 302.922C1.10856 307.807 -0.329952 313.537 0.0636889 319.291C0.45733 325.044 2.66291 330.525 6.36408 334.947C10.0652 339.369 15.0718 342.506 20.6658 343.907C26.2598 345.308 32.1538 344.901 37.5024 342.745C56.0706 362.563 136.57 443.815 169.897 412.068C197.909 385.383 238.334 281.962 248.066 246.248C249.624 240.537 249.33 234.479 247.226 228.946C245.121 223.413 241.315 218.691 236.355 215.459Z" fill="#FFB6B6"/>
<path d="M140.036 417.669L156.223 490.833L274.591 501.54L285.469 437.833L140.036 417.669Z" fill="#FFB6B6"/>
<path d="M320.844 605.29C320.79 606.339 320.725 607.377 320.65 608.426C319.514 623.586 318.217 641.07 316.811 660.231C314.594 690.637 312.118 725.26 309.62 761.484H61.3436L109.494 616.756C109.494 616.756 128.936 606.052 119.038 588.07C109.14 570.088 128.616 584.418 128.797 558.737C128.978 533.056 146.431 505.735 146.431 505.735L149.296 466.852L150.929 466.884L280.133 469.036L282.491 469.079L286.459 502.459C310.554 531.131 322.846 567.892 320.844 605.29Z" fill="#2F2E41"/>
<path d="M213.913 180.001L272.83 176.966L300.195 220.207C300.195 220.207 351.684 228.815 348.115 289.488C344.546 350.162 285.469 403.403 285.469 403.403L287.994 394.745L283.608 407.277L284.171 414.314L290.154 421.766L290.77 429.473L285.469 441.667C286.158 442.772 286.524 444.048 286.525 445.35C286.526 446.653 286.161 447.929 285.474 449.035C284.786 450.141 283.802 451.032 282.633 451.607C281.464 452.182 280.158 452.418 278.862 452.288L193.731 443.756C191.793 438.425 190.238 432.045 182.469 442.665L141.113 438.658L139.15 431.51C138.036 427.449 137.862 423.187 138.642 419.048C139.423 414.909 141.138 411.003 143.655 407.627C140.76 398.559 141.518 388.72 145.769 380.203L145.929 379.884L149.469 376.933C149.469 376.933 110.738 318.745 155.2 274.918L173.045 244.582L193.012 220.221L213.913 180.001Z" fill="#16A34A"/>
<path d="M228.576 154.476C259.432 154.476 284.446 129.463 284.446 98.6065C284.446 67.7505 259.432 42.7368 228.576 42.7368C197.72 42.7368 172.706 67.7505 172.706 98.6065C172.706 129.463 197.72 154.476 228.576 154.476Z" fill="#FFB6B6"/>
<path d="M271.01 179.091C266.46 175.289 263.293 170.092 262.002 164.305C260.968 171.331 261.238 178.487 262.798 185.415C259.772 187.689 256.838 189.85 254.063 191.807C251.962 186.404 249.08 181.338 245.51 176.771C245.169 183.959 244.85 191.17 244.532 198.358C240.987 200.76 237.251 202.867 233.363 204.659L235.023 202.68C246.943 185.119 216.097 152.795 228.017 135.257C231.361 130.343 216.257 91.5134 204.746 89.7618C194.51 88.215 194.942 91.1721 185.024 93.3332C183.994 89.0377 182.396 84.899 180.27 81.0267C180.836 85.3416 180.705 89.7193 179.884 93.9928C176.358 94.1293 173.584 91.8827 169.829 91.3086C145.876 87.6463 148.31 61.7371 154.975 53.5252C161.663 45.3362 183.864 42.8794 194.101 40.2179C195.033 39.3081 197.149 39.8767 198.081 39.0123C217.699 21.0589 243.936 18.0856 267.547 26.043C292.726 34.5289 308.425 50.953 316.482 76.2726L318.793 96.5348C320.866 103.05 318.258 133.363 316.482 139.965C309.578 165.629 294.875 152.818 271.01 179.091Z" fill="#2F2E41"/>
<path d="M352.473 443.787L350.273 272.483C350.159 265.226 347.195 258.305 342.022 253.213C336.85 248.121 329.883 245.268 322.624 245.268C318.869 245.268 315.154 246.032 311.704 247.515C308.255 248.998 305.143 251.168 302.559 253.892C299.976 256.617 297.974 259.839 296.676 263.363C295.378 266.886 294.812 270.637 295.011 274.387L302.751 452.26L302.898 560.54C298.336 562.475 294.48 565.766 291.854 569.969C289.229 574.171 287.96 579.079 288.221 584.027C288.483 588.976 290.261 593.723 293.314 597.626C296.368 601.528 300.548 604.396 305.288 605.839C310.028 607.283 315.098 607.232 319.808 605.695C324.519 604.157 328.641 601.206 331.616 597.243C334.591 593.281 336.274 588.499 336.436 583.546C336.599 578.594 335.233 573.712 332.524 569.563L352.473 443.787Z" fill="#FFB6B6"/>
<path d="M640.822 665.414C640.822 665.414 637.421 726.596 635.858 761.488H518.746C516.335 729.734 515.524 706.405 515.524 706.405L509.116 761.488H390.739L383.4 659.471L418.865 571.56C418.865 571.56 611.061 558.23 628.889 575.14C646.705 592.037 640.822 665.414 640.822 665.414Z" fill="#2F2E41"/>
<path d="M537.261 150.751C572.591 150.751 601.231 122.11 601.231 86.7807C601.231 51.451 572.591 22.8106 537.261 22.8106C501.931 22.8106 473.291 51.451 473.291 86.7807C473.291 122.11 501.931 150.751 537.261 150.751Z" fill="#FFB6B6"/>
<path d="M611.825 65.9943C605.254 68.9904 600.997 90.6894 595.832 85.6448C590.668 80.6003 591.013 74.0355 584.05 72.1738C578.427 70.664 572.376 72.3895 567.248 75.111C566.332 75.5912 565.444 76.1133 564.579 76.6326C564.008 76.2509 563.439 75.8918 562.829 75.5605C558.241 73.1055 552.887 72.5032 547.869 73.8778C551.834 75.206 555.282 77.7471 557.724 81.1417C556.007 82.292 554.269 83.4453 552.49 84.4671C537.633 93.0409 516.492 74.3977 500.854 67.3939C510.649 85.7757 505.826 93.3885 497.321 112.399L497.027 113.482C497.51 108.717 482.767 105.166 483.622 111.874C484.229 116.636 488.35 127.221 490.658 131.425C474.216 112.413 462.98 89.1485 465.351 65.1487C465.867 60.1071 465.711 54.7877 468.312 50.4119C470.915 46.0586 476.342 43.0037 481.143 44.6638C480.737 37.01 482.411 29.389 485.99 22.6111C489.568 15.8331 494.917 10.1515 501.466 6.17037C508.016 2.18919 515.522 0.0572339 523.186 0.00113635C530.85 -0.0549612 538.387 1.96691 544.994 5.85179C551.133 9.45425 556.259 14.5493 561.885 18.9441C567.512 23.339 573.999 27.1698 581.134 27.5326C585.66 27.7509 590.586 26.6458 594.475 28.9902C598.98 31.7105 599.751 37.4059 600.427 42.8863C596.409 43.2824 592.601 44.8674 589.488 47.4388C593.645 47.0147 597.83 47.9124 601.448 50.004C601.516 50.0351 601.582 50.0724 601.644 50.1154C604.025 59.1726 603.781 61.1805 611.825 65.9943Z" fill="#2F2E41"/>
<path d="M391.022 602.509C445.498 538.744 427.098 457.64 405.477 375.769L409.591 254.822C409.793 248.889 411.419 243.092 414.333 237.92C417.247 232.748 421.362 228.353 426.332 225.106L481.945 188.775L503.591 157.479L563.256 163.445L596.343 198.436L632.967 226.395C642.162 233.415 649.159 242.918 653.132 253.783C657.105 264.649 657.889 276.424 655.391 287.72L620.344 446.217C620.344 446.217 635.003 528.383 626.058 537.457C617.114 546.532 594.067 537.462 612.344 547.649C634.277 559.874 654.219 557.618 643.12 568.717C632.021 579.816 646.068 595.247 646.068 595.247L391.022 602.509Z" fill="#16A34A"/>
<path d="M414.314 695.181L423.395 630.479L387.158 620.134L379.99 688.883C376.991 691.633 374.818 695.164 373.716 699.081C372.615 702.998 372.627 707.144 373.753 711.055C374.879 714.965 377.073 718.483 380.088 721.215C383.104 723.946 386.822 725.782 390.824 726.517C394.826 727.251 398.953 726.854 402.742 725.371C406.531 723.889 409.832 721.378 412.272 718.123C414.713 714.867 416.197 710.995 416.557 706.942C416.918 702.89 416.141 698.816 414.314 695.181Z" fill="#FFB6B6"/>
<path d="M483.304 200.438C483.304 200.438 380.156 234.01 377.696 258.573C375.237 283.137 376.052 298.174 365.166 396.468L365.739 661.245C365.739 661.245 434.894 676.051 427.802 660.221C420.71 644.39 423.184 636.942 423.184 636.942C423.184 636.942 438.011 631.091 434.3 612.504C430.588 593.916 449.201 501.802 449.201 501.802L460.949 336.601L483.304 200.438Z" fill="#16A34A"/>
<path d="M610.489 691.754L605.655 626.597L642.492 618.643L645.151 687.713C647.964 690.653 649.901 694.319 650.744 698.3C651.587 702.28 651.304 706.417 649.925 710.245C648.546 714.073 646.127 717.441 642.939 719.969C639.751 722.498 635.921 724.087 631.88 724.558C627.838 725.03 623.746 724.364 620.062 722.637C616.378 720.909 613.249 718.189 611.026 714.781C608.804 711.372 607.576 707.412 607.481 703.344C607.386 699.276 608.428 695.263 610.489 691.754Z" fill="#FFB6B6"/>
<path d="M573.984 193.56C573.984 193.56 674.718 233.802 675.567 258.474C676.415 283.146 674.618 298.098 679.057 396.893L661.177 661.066C661.177 661.066 591.203 671.32 599.314 655.987C607.426 640.654 605.444 633.06 605.444 633.06C605.444 633.06 591.031 626.253 595.949 607.948C600.868 589.642 588.316 496.509 588.316 496.509L587.392 330.893L573.984 193.56Z" fill="#16A34A"/>
</svg>
